SplineFontDB: 3.0
FontName: Estedad-regular
FullName: Estedad regular
FamilyName: Estedad
Weight: Regular
Copyright: Copyright (c) 2017, Amin (www.instagram.com/aminabedi68---aminabedi68@gmail.com),\nwith Reserved Font Name Estedad.\n\nThis Font Software is licensed under the SIL Open Font License, Version 1.1.\n---Thank to "Saber Rastikerdar" for sharing his skill with me and testing my font.---
Version: 0.5(Beta2)
ItalicAngle: 0
UnderlinePosition: -204
UnderlineWidth: 102
Ascent: 1638
Descent: 410
InvalidEm: 0
LayerCount: 2
Layer: 0 0 "Back" 1
Layer: 1 0 "Fore" 0
XUID: [1021 89 1101065813 28845]
StyleMap: 0x0000
FSType: 0
OS2Version: 0
OS2_WeightWidthSlopeOnly: 0
OS2_UseTypoMetrics: 1
CreationTime: 1496828874
ModificationTime: 1497231016
PfmFamily: 17
TTFWeight: 400
TTFWidth: 5
LineGap: 0
VLineGap: 184
OS2TypoAscent: 500
OS2TypoAOffset: 1
OS2TypoDescent: -500
OS2TypoDOffset: 1
OS2TypoLinegap: 0
OS2WinAscent: 0
OS2WinAOffset: 1
OS2WinDescent: 0
OS2WinDOffset: 1
HheadAscent: 0
HheadAOffset: 1
HheadDescent: 0
HheadDOffset: 1
OS2Vendor: 'PfEd'
Lookup: 1 9 0 "'fina' Terminal Forms in Arabic lookup 1" { "'fina' Terminal Forms in Arabic lookup 1 subtable"  } ['fina' ('arab' <'KUR ' 'SND ' 'URD ' 'dflt' > ) ]
Lookup: 1 9 0 "'medi' Medial Forms in Arabic lookup 1" { "'medi' Medial Forms in Arabic lookup 1 subtable"  } ['medi' ('arab' <'KUR ' 'SND ' 'URD ' 'dflt' > ) ]
Lookup: 1 9 0 "'init' Initial Forms in Arabic lookup 1" { "'init' Initial Forms in Arabic lookup 1 subtable"  } ['init' ('arab' <'KUR ' 'SND ' 'URD ' 'dflt' > ) ]
Lookup: 4 9 1 "'rlig' Required Ligatures in Arabic lookup 1" { "'rlig' Required Ligatures in Arabic lookup 1 subtable"  } ['rlig' ('DFLT' <'dflt' > 'arab' <'dflt' > ) ]
Lookup: 4 0 1 "'rlig' Required Ligatures in Arabic lookup 2" { "'rlig' Required Ligatures in Arabic lookup 2 subtable"  } ['rlig' ('DFLT' <'dflt' > 'arab' <'dflt' > ) ]

StartChar: period
Encoding: 46 46 0
Width: 360
VWidth: 1600
Flags: HMW
LayerCount: 2
Fore
SplineSet
53 90 m 1
 180 217 l 1
 307 90 l 1
 180 -37 l 1
 53 90 l 1
EndSplineSet
Validated: 1
EndChar

StartChar: slash
Encoding: 47 47 1
Width: 631
VWidth: 1600
Flags: HMW
LayerCount: 2
Fore
SplineSet
416 1234 m 1
 541 1200 l 1
 214 -17 l 1
 90 17 l 1
 416 1234 l 1
EndSplineSet
Validated: 1
EndChar

StartChar: hyphen
Encoding: 45 45 2
Width: 696
VWidth: 1600
Flags: HMW
LayerCount: 2
Fore
SplineSet
606 302 m 1
 90 302 l 1
 90 431 l 1
 606 431 l 1
 606 302 l 1
EndSplineSet
Validated: 1
EndChar

StartChar: asterisk
Encoding: 42 42 3
Width: 726
VWidth: 1774
Flags: W
LayerCount: 2
Fore
SplineSet
354 1114 m 1
 354 1309 l 1
 440 1309 l 1
 440 1114 l 1
 623 1181 l 1
 630 1184 l 1
 658 1103 l 1
 660 1096 l 1
 470 1034 l 1
 591 863 l 1
 595 857 l 1
 523 812 l 1
 517 809 l 1
 394 988 l 1
 268 817 l 1
 263 811 l 1
 199 861 l 1
 193 866 l 1
 321 1034 l 1
 141 1099 l 1
 134 1101 l 1
 168 1179 l 1
 170 1186 l 1
 354 1114 l 1
EndSplineSet
EndChar

StartChar: parenleft
Encoding: 40 40 4
Width: 440
VWidth: 1600
Flags: HMW
LayerCount: 2
Fore
SplineSet
234 1243 m 1
 350 1187 l 1
 263 1009 219 815 219 622 c 0
 219 429 263 235 350 57 c 1
 234 0 l 1
 138 196 90 409 90 622 c 0
 90 835 138 1047 234 1243 c 1
EndSplineSet
Validated: 1
EndChar

StartChar: percent
Encoding: 37 37 6
Width: 1210
VWidth: 1600
Flags: HMW
LayerCount: 2
Fore
SplineSet
328 1260 m 0
 459 1260 566 1153 566 1022 c 0
 566 891 459 784 328 784 c 0
 197 784 90 891 90 1022 c 0
 90 1153 197 1260 328 1260 c 0
804 1242 m 1
 923 1192 l 1
 406 -25 l 1
 287 25 l 1
 804 1242 l 1
328 1131 m 0
 267 1131 219 1083 219 1022 c 0
 219 961 267 913 328 913 c 0
 389 913 437 961 437 1022 c 0
 437 1083 389 1131 328 1131 c 0
882 433 m 0
 1013 433 1120 326 1120 195 c 0
 1120 64 1013 -43 882 -43 c 0
 751 -43 644 64 644 195 c 0
 644 326 751 433 882 433 c 0
882 304 m 0
 821 304 773 256 773 195 c 0
 773 134 821 86 882 86 c 0
 943 86 991 134 991 195 c 0
 991 256 943 304 882 304 c 0
EndSplineSet
Validated: 1
EndChar

StartChar: exclam
Encoding: 33 33 7
Width: 360
VWidth: 1600
Flags: HMW
LayerCount: 2
Fore
SplineSet
116 1217 m 1
 244 1217 l 1
 244 302 l 1
 116 302 l 1
 116 1217 l 1
EndSplineSet
Refer: 0 46 N 1 0 0 1 10 0 2
Validated: 1
EndChar

StartChar: uni0660
Encoding: 1632 1632 8
Width: 656
VWidth: 1600
Flags: HMW
LayerCount: 2
Fore
SplineSet
328 540 m 0
 459 540 566 433 566 302 c 0
 566 171 459 64 328 64 c 0
 197 64 90 171 90 302 c 0
 90 433 197 540 328 540 c 0
328 411 m 0
 267 411 219 363 219 302 c 0
 219 241 267 193 328 193 c 0
 389 193 437 241 437 302 c 0
 437 363 389 411 328 411 c 0
EndSplineSet
Validated: 1
EndChar

StartChar: uni0661
Encoding: 1633 1633 9
Width: 490
VWidth: 1600
Flags: HMW
LayerCount: 2
Fore
SplineSet
214 1234 m 1
 325 818 400 417 400 0 c 1
 271 0 l 1
 271 401 200 790 90 1200 c 1
 214 1234 l 1
EndSplineSet
Validated: 1
EndChar

StartChar: uni0662
Encoding: 1634 1634 10
Width: 914
VWidth: 1600
Flags: HMW
LayerCount: 2
Fore
SplineSet
215 1234 m 1
 258 1067 296 774 479 774 c 0
 695 774 695 990 695 1217 c 1
 824 1217 l 1
 824 922 779 645 479 645 c 0
 425 645 379 660 338 685 c 1
 377 458 401 231 401 0 c 1
 272 0 l 1
 272 399 190 818 90 1201 c 1
 215 1234 l 1
EndSplineSet
Validated: 1
EndChar

StartChar: uni0663
Encoding: 1635 1635 11
Width: 1182
VWidth: 1600
Flags: HMW
LayerCount: 2
Fore
SplineSet
835 645 m 0
 754 645 668 705 626 781 c 1
 586 701 508 647 428 647 c 0
 399 647 369 654 341 669 c 1
 379 447 400 226 400 0 c 1
 271 0 l 1
 271 399 189 824 90 1200 c 1
 214 1234 l 1
 255 1078 285 774 413 774 c 0
 562 774 562 1018 562 1217 c 1
 691 1217 l 1
 691 1022 692 774 835 774 c 0
 958 774 963 990 963 1217 c 1
 1092 1217 l 1
 1092 922 1042 645 835 645 c 0
EndSplineSet
Validated: 1
EndChar

StartChar: uni0664
Encoding: 1636 1636 12
Width: 815
VWidth: 1600
Flags: HMW
LayerCount: 2
Fore
SplineSet
622 1197 m 1
 622 1068 l 1
 444 1068 325 1027 325 917 c 0
 325 798 430 775 610 775 c 1
 610 646 l 1
 380 646 218 492 218 324 c 0
 218 187 328 129 499 129 c 2
 725 129 l 1
 725 0 l 1
 499 0 l 2
 269 0 90 111 90 326 c 0
 90 495 189 621 325 700 c 1
 240 742 196 836 196 917 c 0
 196 1110 374 1197 622 1197 c 1
EndSplineSet
Validated: 1
EndChar

StartChar: uni0665
Encoding: 1637 1637 13
Width: 999
VWidth: 1600
Flags: HMW
LayerCount: 2
Fore
SplineSet
425 1256 m 1
 732 949 909 660 909 382 c 0
 909 141 740 6 494 6 c 0
 245 6 90 154 90 395 c 0
 90 635 214 877 407 1088 c 1
 384 1113 359 1138 333 1164 c 1
 425 1256 l 1
492 990 m 1
 322 799 219 583 219 393 c 0
 219 221 308 135 494 135 c 0
 679 135 781 208 781 378 c 0
 781 561 681 759 492 990 c 1
EndSplineSet
Validated: 1
EndChar

StartChar: uni0666
Encoding: 1638 1638 14
Width: 917
VWidth: 1600
Flags: HMW
LayerCount: 2
Fore
SplineSet
721 1216 m 1
 721 756 744 422 827 13 c 1
 701 -13 l 1
 624 362 595 676 592 1076 c 1
 532 1072 466 1070 399 1070 c 0
 290 1070 179 1076 90 1088 c 1
 108 1215 l 1
 187 1204 294 1199 399 1199 c 0
 523 1199 620 1206 721 1216 c 1
EndSplineSet
Validated: 1
EndChar

StartChar: uni0667
Encoding: 1639 1639 15
Width: 1078
VWidth: 1600
Flags: HMW
LayerCount: 2
Fore
SplineSet
201 1218 m 1
 361 947 470 671 539 378 c 1
 608 671 717 947 877 1218 c 1
 988 1152 l 1
 775 789 657 426 603 9 c 1
 475 9 l 1
 421 426 303 789 90 1152 c 1
 201 1218 l 1
EndSplineSet
Validated: 1
EndChar

StartChar: uni0669
Encoding: 1641 1641 17
Width: 862
VWidth: 1600
Flags: HMW
LayerCount: 2
Fore
SplineSet
417 1217 m 0
 654 1217 673 985 673 749 c 2
 673 657 l 2
 673 449 679 226 772 65 c 1
 661 0 l 1
 556 182 544 400 544 594 c 1
 511 586 475 581 437 581 c 0
 217 581 90 725 90 881 c 0
 90 1060 241 1217 417 1217 c 0
417 1088 m 0
 324 1088 220 982 220 879 c 0
 220 797 273 710 437 710 c 0
 477 710 514 717 545 729 c 1
 545 896 544 1088 417 1088 c 0
EndSplineSet
Validated: 1
EndChar

StartChar: uni06F0
Encoding: 1776 1776 18
Width: 656
VWidth: 1600
Flags: HMW
LayerCount: 2
Fore
SplineSet
328 540 m 0
 459 540 566 433 566 302 c 0
 566 171 459 64 328 64 c 0
 197 64 90 171 90 302 c 0
 90 433 197 540 328 540 c 0
328 411 m 0
 267 411 219 363 219 302 c 0
 219 241 267 193 328 193 c 0
 389 193 437 241 437 302 c 0
 437 363 389 411 328 411 c 0
EndSplineSet
Validated: 1
EndChar

StartChar: uni06F4
Encoding: 1780 1780 22
Width: 977
VWidth: 1600
Flags: HMW
LayerCount: 2
Fore
SplineSet
330 724 m 1
 374 484 400 245 400 0 c 1
 271 0 l 1
 271 401 200 790 90 1200 c 1
 214 1234 l 1
 242 1134 271 1048 307 975 c 1
 348 1160 521 1244 723 1244 c 0
 771 1244 820 1239 870 1230 c 1
 870 1101 l 1
 817 1113 764 1120 715 1120 c 0
 554 1120 427 1050 427 885 c 0
 427 702 715 665 887 621 c 1
 854 496 l 1
 707 525 578 555 478 611 c 1
 413 643 360 680 330 724 c 1
EndSplineSet
Validated: 1
EndChar

StartChar: uni06F5
Encoding: 1781 1781 23
Width: 999
VWidth: 1600
Flags: HMW
LayerCount: 2
Fore
SplineSet
425 1249 m 1
 742 932 910 623 910 377 c 0
 910 188 814 0 639 0 c 0
 586 0 540 15 501 39 c 1
 462 15 415 0 362 0 c 0
 183 0 90 197 90 390 c 0
 90 609 210 866 407 1081 c 1
 384 1106 359 1132 333 1158 c 1
 425 1249 l 1
500 983 m 1
 317 787 219 548 219 381 c 0
 219 276 260 133 388 133 c 0
 425 133 464 151 500 196 c 1
 536 151 575 133 612 133 c 0
 740 133 781 276 781 381 c 0
 781 548 683 787 500 983 c 1
EndSplineSet
Validated: 1
EndChar

StartChar: uni06F6
Encoding: 1782 1782 24
Width: 917
VWidth: 1600
Flags: HMW
LayerCount: 2
Fore
SplineSet
471 1218 m 0
 505 1218 540 1212 573 1200 c 1
 528 1079 l 1
 509 1086 488 1090 468 1090 c 0
 342 1090 219 959 219 849 c 0
 219 751 312 709 416 709 c 0
 531 709 647 772 733 858 c 1
 827 770 l 1
 557 473 417 283 267 0 c 1
 155 63 l 1
 263 253 349 410 489 586 c 1
 464 582 440 581 416 581 c 0
 245 581 90 678 90 849 c 0
 90 1037 268 1218 471 1218 c 0
EndSplineSet
Validated: 1
EndChar

StartChar: uni0654
Encoding: 1620 1620 28
Width: 0
VWidth: 1600
Flags: HMW
AnchorPoint: "Anchor-5" 241 1350 mark 0
AnchorPoint: "Anchor-4" 241 1350 mark 0
AnchorPoint: "Anchor-1" 241 1350 mark 0
AnchorPoint: "Anchor-1" 212 1807 basemark 0
LayerCount: 2
Fore
SplineSet
376 1538 m 1
 406 1475 l 1
 65 1316 l 1
 36 1379 l 1
 175 1444 l 1
 94 1453 20 1493 20 1574 c 0
 20 1681 134 1779 251 1779 c 0
 268 1779 286 1777 304 1773 c 1
 287 1705 l 1
 276 1708 264 1709 253 1709 c 0
 175 1709 90 1639 90 1574 c 0
 90 1523 164 1512 222 1512 c 0
 273 1512 328 1521 376 1538 c 1
EndSplineSet
Validated: 1
EndChar

StartChar: uni0653
Encoding: 1619 1619 30
Width: 0
VWidth: 1600
Flags: HMW
AnchorPoint: "Anchor-5" 241 1320 mark 0
AnchorPoint: "Anchor-4" 241 1320 mark 0
AnchorPoint: "Anchor-1" 241 1320 mark 0
AnchorPoint: "Anchor-1" 234 1472 basemark 0
LayerCount: 2
Fore
SplineSet
399 1466 m 1
 461 1433 l 1
 434 1382 380 1324 306 1324 c 0
 275 1324 243 1337 216 1363 c 0
 200 1378 187 1382 174 1382 c 0
 143 1382 100 1343 82 1310 c 1
 20 1343 l 1
 47 1394 100 1452 174 1452 c 0
 205 1452 237 1439 264 1413 c 0
 280 1398 293 1394 306 1394 c 0
 337 1394 381 1433 399 1466 c 1
EndSplineSet
Validated: 1
EndChar

StartChar: uni0652
Encoding: 1618 1618 31
Width: 0
VWidth: 1600
Flags: HMW
AnchorPoint: "Anchor-5" 187 1243 mark 0
AnchorPoint: "Anchor-4" 187 1243 mark 0
AnchorPoint: "Anchor-1" 187 1243 mark 0
AnchorPoint: "Anchor-1" 188 1679 basemark 0
LayerCount: 2
Fore
SplineSet
187 1632 m 0
 279 1632 355 1557 355 1465 c 0
 355 1373 279 1298 187 1298 c 0
 95 1298 20 1373 20 1465 c 0
 20 1557 95 1632 187 1632 c 0
187 1563 m 0
 133 1563 90 1519 90 1465 c 0
 90 1411 133 1367 187 1367 c 0
 241 1367 285 1411 285 1465 c 0
 285 1519 241 1563 187 1563 c 0
EndSplineSet
Validated: 1
EndChar

StartChar: uni0651
Encoding: 1617 1617 32
Width: 0
VWidth: 1600
Flags: HMW
AnchorPoint: "Anchor-5" 345 1298 mark 0
AnchorPoint: "Anchor-4" 345 1298 mark 0
AnchorPoint: "Anchor-1" 345 1298 mark 0
AnchorPoint: "Anchor-1" 349 1661 basemark 0
LayerCount: 2
Fore
SplineSet
378 1569 m 1
 378 1449 378 1368 493 1368 c 0
 607 1368 607 1450 607 1569 c 1
 677 1569 l 1
 677 1414 653 1298 493 1298 c 0
 423 1298 375 1322 347 1365 c 1
 319 1322 271 1298 201 1298 c 0
 41 1298 17 1414 17 1569 c 1
 87 1569 l 1
 87 1450 87 1368 201 1368 c 0
 316 1368 316 1449 316 1569 c 1
 378 1569 l 1
EndSplineSet
Validated: 1
EndChar

StartChar: uni064E
Encoding: 1614 1614 33
Width: 0
VWidth: 1600
Flags: HMW
AnchorPoint: "Anchor-5" 240 1399 mark 0
AnchorPoint: "Anchor-4" 240 1399 mark 0
AnchorPoint: "Anchor-1" 240 1399 mark 0
AnchorPoint: "Anchor-1" 207 1558 basemark 0
LayerCount: 2
Fore
SplineSet
409 1599 m 1
 438 1536 l 1
 25 1343 l 1
 -4 1406 l 1
 409 1599 l 1
EndSplineSet
Validated: 1
EndChar

StartChar: uni064F
Encoding: 1615 1615 34
Width: 0
VWidth: 1600
Flags: HMW
AnchorPoint: "Anchor-5" 200 1358 mark 0
AnchorPoint: "Anchor-4" 200 1358 mark 0
AnchorPoint: "Anchor-1" 200 1358 mark 0
AnchorPoint: "Anchor-1" 204 1831 basemark 0
LayerCount: 2
Fore
SplineSet
29 1332 m 1
 -1 1395 l 1
 123 1453 l 1
 69 1483 38 1540 38 1599 c 0
 38 1700 121 1766 205 1766 c 0
 306 1766 373 1683 373 1598 c 0
 373 1524 330 1472 276 1447 c 2
 29 1332 l 1
205 1501 m 0
 255 1501 303 1540 303 1599 c 0
 303 1648 264 1697 205 1697 c 0
 155 1697 108 1658 108 1598 c 0
 108 1549 146 1501 205 1501 c 0
EndSplineSet
Validated: 1
EndChar

StartChar: uni064C
Encoding: 1612 1612 37
Width: 0
VWidth: 1600
Flags: HMW
AnchorPoint: "Anchor-5" 299 1317 mark 0
AnchorPoint: "Anchor-4" 299 1317 mark 0
AnchorPoint: "Anchor-1" 299 1317 mark 0
AnchorPoint: "Anchor-1" 334 1949 basemark 0
LayerCount: 2
Fore
SplineSet
336 1827 m 1
 210 1827 108 1725 108 1599 c 0
 108 1549 124 1503 151 1465 c 1
 86 1436 l 1
 56 1483 38 1539 38 1599 c 0
 38 1764 171 1897 336 1897 c 1
 336 1827 l 1
147 1331 m 1
 117 1394 l 1
 241 1452 l 1
 187 1482 156 1539 156 1598 c 0
 156 1699 239 1765 323 1765 c 0
 424 1765 491 1682 491 1597 c 0
 491 1523 448 1471 394 1446 c 2
 147 1331 l 1
323 1500 m 0
 373 1500 421 1538 421 1597 c 0
 421 1646 382 1696 323 1696 c 0
 273 1696 226 1657 226 1597 c 0
 226 1548 264 1500 323 1500 c 0
EndSplineSet
Validated: 1
EndChar

StartChar: top-three-dots
Encoding: 1114120 -1 47
Width: 575
VWidth: 1600
Flags: HMW
LayerCount: 2
Fore
SplineSet
1069 701 m 1
 942 574 l 1
 815 701 l 1
 942 828 l 1
 1069 701 l 1
EndSplineSet
Refer: 48 -1 N 1 0 0 1 -10 18 2
Validated: 513
EndChar

StartChar: two-dots
Encoding: 1114121 -1 48
Width: 540
VWidth: 1600
Flags: HMW
LayerCount: 2
Fore
SplineSet
696 471 m 1
 823 598 l 1
 950 471 l 1
 823 344 l 1
 696 471 l 1
952 471 m 1
 1079 598 l 1
 1206 471 l 1
 1079 344 l 1
 952 471 l 1
EndSplineSet
Validated: 513
EndChar

StartChar: GAF-bar
Encoding: 1114122 -1 49
Width: 938
VWidth: 1600
Flags: HMW
LayerCount: 2
Fore
SplineSet
691 1607 m 1
 730 1549 l 1
 201 1194 l 1
 162 1252 l 1
 691 1607 l 1
EndSplineSet
Validated: 513
EndChar

StartChar: dotless-final-BEH
Encoding: 1114123 -1 50
Width: 1974
VWidth: 1600
Flags: HMW
AnchorPoint: "Anchor-5" 968 710 basechar 0
AnchorPoint: "Anchor-3" 950 -436 basechar 0
LayerCount: 2
Fore
SplineSet
1729 141 m 1
 1582 6 1309 0 1017 0 c 2
 885 0 l 2
 671 0 474 2 324 56 c 0
 163 113 90 206 90 346 c 0
 90 415 107 463 124 528 c 1
 248 495 l 1
 235 446 218 393 218 345 c 0
 218 253 278 209 365 179 c 0
 496 135 713 129 951 129 c 0
 1189 129 1407 135 1538 179 c 0
 1625 209 1684 253 1684 345 c 0
 1684 393 1667 446 1654 495 c 1
 1779 528 l 1
 1809 437 1815 327 1832 230 c 0
 1847 142 1911 128 1984 128 c 2
 1998 128 l 1
 1998 -1 l 1
 1984 -1 l 2
 1864 -1 1774 36 1729 141 c 1
EndSplineSet
Validated: 513
EndChar

StartChar: dotless-initial-FEH
Encoding: 1114124 -1 51
Width: 757
VWidth: 1600
Flags: HMW
AnchorPoint: "Anchor-5" 370 1196 basechar 0
AnchorPoint: "Anchor-3" 359 -246 basechar 0
LayerCount: 2
Fore
SplineSet
-14 130 m 1
 168 130 l 2
 310 130 425 155 488 227 c 1
 448 219 409 215 373 215 c 0
 183 215 58 324 58 493 c 0
 58 671 199 860 370 860 c 0
 568 860 667 550 667 379 c 0
 667 216 588 101 421 36 c 0
 345 7 258 1 165 1 c 2
 -14 1 l 1
 -14 130 l 1
370 731 m 0
 280 731 186 609 186 496 c 0
 186 384 272 345 377 345 c 0
 428 345 485 354 538 369 c 1
 538 372 538 375 538 379 c 0
 538 515 456 731 370 731 c 0
EndSplineSet
Validated: 513
EndChar

StartChar: dotless-final-FEH
Encoding: 1114125 -1 52
Width: 1837
VWidth: 1600
Flags: HMW
AnchorPoint: "Anchor-5" 1498 1190 basechar 0
AnchorPoint: "Anchor-3" 871 -264 basechar 0
LayerCount: 2
Fore
SplineSet
1847 0 m 2
 1692 0 1587 6 1483 19 c 1
 1379 6 1273 0 1118 0 c 2
 951 0 l 2
 931 0 912 0 892 0 c 0
 679 0 474 2 324 56 c 0
 163 113 90 206 90 346 c 0
 90 415 107 463 124 528 c 1
 248 495 l 1
 235 446 218 393 218 345 c 0
 218 253 278 209 365 179 c 0
 496 135 713 129 951 129 c 2
 1118 129 l 2
 1159 129 1188 130 1224 131 c 1
 1189 173 1171 223 1171 286 c 0
 1171 457 1305 645 1483 645 c 0
 1661 645 1795 457 1795 286 c 0
 1795 223 1777 173 1742 131 c 1
 1778 130 1806 129 1847 129 c 2
 1861 129 l 9
 1861 0 l 1
 1847 0 l 2
1483 516 m 0
 1399 516 1300 398 1300 287 c 0
 1300 177 1388 154 1483 148 c 1
 1578 154 1666 177 1666 287 c 0
 1666 398 1567 516 1483 516 c 0
EndSplineSet
Validated: 513
EndChar

StartChar: dotless-medial-FEH
Encoding: 1114126 -1 53
Width: 729
VWidth: 1600
Flags: HMW
AnchorPoint: "Anchor-5" 369 1146 basechar 0
AnchorPoint: "Anchor-3" 376 -319 basechar 0
LayerCount: 2
Fore
SplineSet
729 0 m 2
 574 0 469 6 365 19 c 1
 261 6 155 0 0 0 c 0
 -6 0 -14 18 -14 43 c 2
 -14 86 l 2
 -14 109 -6 129 0 129 c 3
 41 129 69 130 105 131 c 1
 70 173 52 223 52 286 c 0
 52 457 187 645 365 645 c 0
 543 645 677 457 677 286 c 0
 677 223 659 173 624 131 c 1
 660 130 688 129 729 129 c 2
 743 129 l 1
 743 0 l 1
 729 0 l 2
365 516 m 0
 281 516 181 398 181 287 c 0
 181 177 270 154 365 148 c 1
 460 154 548 177 548 287 c 0
 548 398 449 516 365 516 c 0
EndSplineSet
Validated: 513
EndChar

StartChar: dotless-final-QAF
Encoding: 1114127 -1 54
Width: 1454
VWidth: 1600
Flags: HMW
AnchorPoint: "Anchor-5" 1085 1114 basechar 0
AnchorPoint: "Anchor-3" 681 -857 basechar 0
LayerCount: 2
Fore
SplineSet
1464 129 m 1
 1478 129 l 1
 1478 0 l 1
 1449 0 1420 0 1391 0 c 1
 1337 -400 944 -580 686 -580 c 0
 393 -580 90 -412 90 -107 c 0
 90 110 260 344 623 508 c 1
 676 391 l 1
 340 239 219 47 219 -107 c 0
 219 -326 440 -451 686 -451 c 0
 913 -451 1242 -264 1262 0 c 1
 1095 0 l 2
 905 0 780 109 780 278 c 0
 780 456 921 645 1092 645 c 0
 1281 645 1387 362 1397 129 c 1
 1464 129 l 1
1092 516 m 0
 1002 516 908 394 908 281 c 0
 908 169 994 130 1099 130 c 2
 1263 130 l 1
 1263 141 1263 152 1263 163 c 0
 1263 300 1178 516 1092 516 c 0
EndSplineSet
Validated: 513
EndChar

StartChar: dotless-initial-NOON
Encoding: 1114128 -1 55
Width: 1572
VWidth: 1600
Flags: HMW
AnchorPoint: "Anchor-5" 800 706 basechar 0
AnchorPoint: "Anchor-3" 686 -664 basechar 0
LayerCount: 2
Fore
SplineSet
1403 52 m 1
 1396 -48 1370 -143 1324 -222 c 0
 1198 -441 931 -580 686 -580 c 0
 356 -580 90 -396 90 -107 c 0
 90 110 260 344 623 508 c 1
 676 391 l 1
 340 239 219 47 219 -107 c 0
 219 -307 405 -451 686 -451 c 0
 879 -451 1115 -326 1212 -158 c 0
 1253 -86 1275 9 1275 113 c 0
 1275 213 1255 321 1211 424 c 1
 1196 457 l 1
 1315 508 l 1
 1329 475 l 2
 1361 399 1384 291 1417 224 c 0
 1448 161 1475 129 1582 129 c 2
 1596 129 l 1
 1596 0 l 1
 1582 0 l 2
 1509 0 1450 21 1403 52 c 1
EndSplineSet
Validated: 513
EndChar

StartChar: uniFEFB
Encoding: 65275 65275 58
Width: 878
VWidth: 1600
Flags: HMW
AnchorPoint: "Anchor-4" 127 1364 baselig 1
AnchorPoint: "Anchor-4" 722 1390 baselig 0
AnchorPoint: "Anchor-2" 330 -190 baselig 1
AnchorPoint: "Anchor-2" 677 -195 baselig 0
LayerCount: 2
Fore
SplineSet
238 1234 m 1
 338 861 409 500 422 129 c 1
 462 129 l 2
 575 129 605 156 628 207 c 0
 651 258 659 347 659 449 c 2
 659 1217 l 1
 788 1217 l 1
 788 449 l 2
 788 341 787 245 746 154 c 0
 705 63 606 0 462 0 c 2
 90 0 l 1
 90 129 l 1
 293 129 l 1
 280 485 212 834 114 1200 c 1
 238 1234 l 1
EndSplineSet
Validated: 1
Ligature2: "'rlig' Required Ligatures in Arabic lookup 1 subtable" uniFEDF uniFE8E
EndChar

StartChar: uniFEFC
Encoding: 65276 65276 59
Width: 1035
VWidth: 1600
Flags: HMW
AnchorPoint: "Anchor-4" 130 1364 baselig 1
AnchorPoint: "Anchor-4" 713 1369 baselig 0
AnchorPoint: "Anchor-2" 334 -176 baselig 1
AnchorPoint: "Anchor-2" 727 -175 baselig 0
LayerCount: 2
Fore
SplineSet
1045 0 m 2
 902 0 795 50 737 136 c 1
 691 55 596 0 462 0 c 2
 90 0 l 1
 90 129 l 1
 293 129 l 1
 280 485 212 832 114 1198 c 1
 238 1232 l 1
 338 859 409 500 422 129 c 1
 462 129 l 2
 575 129 605 156 628 207 c 0
 651 258 659 345 659 447 c 2
 659 1215 l 1
 788 1215 l 1
 788 519 l 1
 790 280 809 129 1045 129 c 2
 1059 129 l 1
 1059 0 l 1
 1045 0 l 2
EndSplineSet
Validated: 1
Ligature2: "'rlig' Required Ligatures in Arabic lookup 1 subtable" uniFEE0 uniFE8E
EndChar

StartChar: uni060C
Encoding: 1548 1548 66
Width: 523
VWidth: 1600
Flags: HMW
LayerCount: 2
Fore
SplineSet
273 487 m 1
 330 447 l 1
 169 216 l 1
 427 216 l 1
 431 201 433 186 433 171 c 3
 433 82 360 0 262 0 c 3
 163 0 90 82 90 173 c 3
 90 211 101 240 121 271 c 2
 273 487 l 1
EndSplineSet
Validated: 1
EndChar

StartChar: uni0615
Encoding: 1557 1557 68
Width: 0
VWidth: 1600
Flags: HMW
AnchorPoint: "Anchor-5" 142 1042 mark 0
AnchorPoint: "Anchor-4" 142 1042 mark 0
AnchorPoint: "Anchor-1" 142 1042 mark 0
AnchorPoint: "Anchor-1" 124 1675 basemark 0
LayerCount: 2
Fore
SplineSet
458 1312 m 0
 458 1186 296 1147 176 1147 c 2
 20 1147 l 1
 20 1217 l 1
 96 1217 l 1
 92 1584 l 1
 162 1585 l 1
 165 1296 l 1
 201 1349 255 1425 343 1425 c 0
 407 1425 458 1376 458 1312 c 0
340 1355 m 0
 275 1348 225 1267 201 1218 c 1
 268 1222 388 1244 388 1313 c 0
 388 1338 366 1355 340 1355 c 0
EndSplineSet
Validated: 1
EndChar

StartChar: less
Encoding: 60 60 72
Width: 619
VWidth: 1600
Flags: HMW
LayerCount: 2
Fore
SplineSet
438 876 m 1
 529 785 l 1
 272 528 l 1
 529 272 l 1
 438 180 l 1
 90 528 l 1
 438 876 l 1
EndSplineSet
Validated: 1
EndChar

StartChar: equal
Encoding: 61 61 73
Width: 696
VWidth: 1600
Flags: HMW
LayerCount: 2
Fore
SplineSet
90 560 m 1
 606 560 l 1
 606 431 l 1
 90 431 l 1
 90 560 l 1
90 302 m 1
 606 302 l 1
 606 174 l 1
 90 174 l 1
 90 302 l 1
EndSplineSet
Validated: 1
EndChar

StartChar: underscore
Encoding: 95 95 75
Width: 696
VWidth: 1600
Flags: HMW
LayerCount: 2
Fore
SplineSet
698 0 m 1
 -2 0 l 1
 -2 129 l 1
 698 129 l 1
 698 0 l 1
EndSplineSet
Validated: 1
EndChar

StartChar: braceleft
Encoding: 123 123 76
Width: 449
VWidth: 1600
Flags: HMW
LayerCount: 2
Fore
SplineSet
90 637 m 1
 135 678 193 721 193 806 c 3
 193 879 161 963 161 1046 c 3
 161 1171 234 1256 324 1272 c 1
 359 1148 l 1
 324 1138 292 1122 292 1044 c 3
 292 965 322 884 322 799 c 3
 322 736 306 670 268 637 c 1
 306 604 322 538 322 475 c 3
 322 390 292 309 292 230 c 3
 292 152 324 136 359 126 c 1
 324 2 l 1
 234 18 161 103 161 228 c 3
 161 311 193 395 193 468 c 3
 193 553 135 596 90 637 c 1
EndSplineSet
Validated: 1
EndChar

StartChar: uni061F
Encoding: 1567 1567 80
Width: 930
VWidth: 1600
Flags: HMW
LayerCount: 2
Fore
SplineSet
463 1217 m 0
 686 1217 840 1039 840 841 c 1
 711 841 l 1
 711 971 610 1088 464 1088 c 0
 339 1088 219 990 219 841 c 0
 219 755 264 673 342 628 c 0
 458 561 529 436 529 302 c 1
 401 302 l 1
 401 390 353 472 277 516 c 0
 158 585 90 711 90 842 c 0
 90 1068 275 1216 463 1217 c 0
EndSplineSet
Refer: 0 46 N 1 0 0 1 295 0 2
Validated: 1
EndChar

StartChar: uni0621
Encoding: 1569 1569 81
Width: 668
VWidth: 1600
Flags: HMW
AnchorPoint: "Anchor-5" 321 865 basechar 0
AnchorPoint: "Anchor-3" 337 -88 basechar 0
LayerCount: 2
Fore
SplineSet
362 645 m 3
 388 645 414 641 443 634 c 1
 409 510 l 1
 392 515 375 517 360 517 c 3
 275 517 219 450 219 365 c 3
 219 314 260 296 338 296 c 3
 403 296 479 315 514 336 c 1
 578 224 l 1
 186 0 l 1
 122 112 l 1
 241 180 l 1
 162 204 90 268 90 365 c 3
 90 517 201 645 362 645 c 3
EndSplineSet
Validated: 1
EndChar

StartChar: uni0627
Encoding: 1575 1575 82
Width: 309
VWidth: 1600
Flags: HMW
AnchorPoint: "Anchor-5" 155 1354 basechar 0
AnchorPoint: "Anchor-3" 160 -130 basechar 0
LayerCount: 2
Fore
SplineSet
90 1217 m 1
 219 1217 l 1
 219 0 l 1
 90 0 l 1
 90 1217 l 1
EndSplineSet
Validated: 1
PairPos2: "'kern' Horizontal Kerning lookup 6 subtable 3" uni063A dx=-293 dy=0 dh=-293 dv=0 dx=0 dy=0 dh=0 dv=0
PairPos2: "'kern' Horizontal Kerning lookup 6 subtable 3" uni0639 dx=-293 dy=0 dh=-293 dv=0 dx=0 dy=0 dh=0 dv=0
Substitution2: "'medi' Medial Forms in Arabic lookup 1 subtable" uniFE8E
Substitution2: "'fina' Terminal Forms in Arabic lookup 1 subtable" uniFE8E
EndChar

StartChar: uni062D
Encoding: 1581 1581 83
Width: 1258
VWidth: 1600
Flags: HMW
AnchorPoint: "Anchor-5" 435 934 basechar 0
AnchorPoint: "Anchor-3" 647 -1229 basechar 0
LayerCount: 2
Fore
SplineSet
437 644 m 0
 637 644 895 545 1062 512 c 1
 1067 392 l 1
 794 270 218 6 218 -391 c 0
 218 -628 437 -741 656 -741 c 0
 826 -741 965 -673 1069 -542 c 1
 1168 -625 l 1
 1030 -789 879 -870 656 -870 c 0
 411 -870 90 -737 90 -394 c 0
 90 17 568 293 848 434 c 1
 728 459 574 515 437 515 c 0
 352 515 271 457 271 373 c 0
 271 334 295 291 319 256 c 1
 212 185 l 1
 173 244 150 294 144 373 c 1
 146 533 281 644 437 644 c 0
EndSplineSet
Validated: 1
Substitution2: "'init' Initial Forms in Arabic lookup 1 subtable" uniFEA3
Substitution2: "'medi' Medial Forms in Arabic lookup 1 subtable" uniFEA4
Substitution2: "'fina' Terminal Forms in Arabic lookup 1 subtable" uniFEA2
EndChar

StartChar: uni062F
Encoding: 1583 1583 84
Width: 844
VWidth: 1600
Flags: HMW
AnchorPoint: "Anchor-5" 403 1036 basechar 0
AnchorPoint: "Anchor-3" 430 -277 basechar 0
LayerCount: 2
Fore
SplineSet
412 818 m 1
 565 663 754 456 754 234 c 0
 754 46 548 -26 323 -26 c 0
 245 -26 165 -17 90 -2 c 1
 90 137 l 1
 158 116 243 106 324 106 c 0
 480 106 625 145 625 231 c 0
 625 400 455 590 320 728 c 1
 412 818 l 1
EndSplineSet
Validated: 1
PairPos2: "'kern' Horizontal Kerning lookup 6 subtable 3" uni063A dx=-457 dy=0 dh=-457 dv=0 dx=0 dy=0 dh=0 dv=0
PairPos2: "'kern' Horizontal Kerning lookup 6 subtable 3" uni0639 dx=-457 dy=0 dh=-457 dv=0 dx=0 dy=0 dh=0 dv=0
Substitution2: "'fina' Terminal Forms in Arabic lookup 1 subtable" uniFEAA
EndChar

StartChar: uni0631
Encoding: 1585 1585 85
Width: 481
VWidth: 1600
Flags: HMW
AnchorPoint: "Anchor-3" 139 -682 basechar 0
AnchorPoint: "Anchor-5" 254 694 basechar 0
LayerCount: 2
Fore
SplineSet
318 475 m 1
 360 377 391 253 391 134 c 0
 391 -175 187 -391 -124 -512 c 1
 -170 -391 l 1
 68 -297 263 -137 263 130 c 0
 263 229 238 326 200 424 c 1
 318 475 l 1
EndSplineSet
Validated: 1
PairPos2: "'kern' Horizontal Kerning lookup 6 subtable 1" uni062D dx=-281 dy=0 dh=-281 dv=0 dx=0 dy=0 dh=0 dv=0
PairPos2: "'kern' Horizontal Kerning lookup 6 subtable 1" uni063A dx=-280 dy=0 dh=-280 dv=0 dx=0 dy=0 dh=0 dv=0
PairPos2: "'kern' Horizontal Kerning lookup 6 subtable 1" uni0639 dx=-280 dy=0 dh=-280 dv=0 dx=0 dy=0 dh=0 dv=0
PairPos2: "'kern' Horizontal Kerning lookup 6 subtable 1" uni06CC dx=120 dy=0 dh=120 dv=0 dx=0 dy=0 dh=0 dv=0
PairPos2: "'kern' Horizontal Kerning lookup 6 subtable 1" uni0644 dx=120 dy=0 dh=120 dv=0 dx=0 dy=0 dh=0 dv=0
PairPos2: "'kern' Horizontal Kerning lookup 6 subtable 1" uni0649 dx=120 dy=0 dh=120 dv=0 dx=0 dy=0 dh=0 dv=0
Substitution2: "'fina' Terminal Forms in Arabic lookup 1 subtable" uniFEAE
EndChar

StartChar: uni0633
Encoding: 1587 1587 86
Width: 2500
VWidth: 1600
Flags: HMW
AnchorPoint: "Anchor-5" 1838 801 basechar 0
AnchorPoint: "Anchor-3" 681 -865 basechar 0
LayerCount: 2
Fore
SplineSet
1329 475 m 1
 1362 399 1383 291 1417 224 c 0
 1448 161 1475 129 1582 129 c 3
 1773 129 1774 249 1774 449 c 1
 1903 449 l 1
 1903 254 1903 129 2087 129 c 3
 2200 129 2282 203 2282 319 c 3
 2282 372 2272 416 2253 457 c 1
 2372 508 l 1
 2398 445 2410 386 2410 315 c 3
 2410 126 2264 0 2089 0 c 3
 1970 0 1888 41 1838 111 c 1
 1787 39 1704 0 1582 0 c 3
 1509 0 1449 21 1402 52 c 1
 1394 -48 1370 -142 1324 -222 c 0
 1198 -441 931 -580 686 -580 c 3
 356 -580 90 -396 90 -107 c 3
 90 110 260 344 623 508 c 1
 676 391 l 1
 340 239 219 47 219 -107 c 3
 219 -307 405 -451 686 -451 c 3
 879 -451 1115 -325 1212 -157 c 0
 1253 -85 1276 9 1276 113 c 3
 1276 213 1255 321 1211 424 c 1
 1329 475 l 1
EndSplineSet
Validated: 1
Substitution2: "'init' Initial Forms in Arabic lookup 1 subtable" uniFEB3
Substitution2: "'medi' Medial Forms in Arabic lookup 1 subtable" uniFEB4
Substitution2: "'fina' Terminal Forms in Arabic lookup 1 subtable" uniFEB2
EndChar

StartChar: uni0635
Encoding: 1589 1589 87
Width: 2327
VWidth: 1600
Flags: HMW
AnchorPoint: "Anchor-5" 1968 920 basechar 0
AnchorPoint: "Anchor-3" 679 -849 basechar 0
LayerCount: 2
Fore
SplineSet
1404 76 m 5
 1404 76 1403 64 1402 52 c 4
 1394 -48 1370 -142 1324 -222 c 4
 1198 -441 931 -580 686 -580 c 7
 356 -580 90 -396 90 -107 c 7
 90 110 260 344 623 508 c 5
 676 391 l 5
 340 239 219 47 219 -107 c 7
 219 -307 405 -451 686 -451 c 7
 879 -451 1115 -325 1212 -157 c 4
 1253 -85 1276 9 1276 113 c 7
 1276 213 1255 321 1211 424 c 5
 1329 475 l 5
 1364 393 1387 307 1398 224 c 5
 1423 209 1448 196 1473 184 c 5
 1568 386 1756 644 1973 644 c 7
 2128 644 2237 512 2237 378 c 7
 2237 142 1952 0 1698 0 c 7
 1591 0 1492 33 1404 76 c 5
1973 515 m 7
 1828 515 1658 279 1594 141 c 5
 1627 133 1665 129 1698 129 c 7
 1903 129 2108 237 2108 378 c 7
 2108 446 2057 515 1973 515 c 7
EndSplineSet
Validated: 1
Substitution2: "'init' Initial Forms in Arabic lookup 1 subtable" uniFEBB
Substitution2: "'medi' Medial Forms in Arabic lookup 1 subtable" uniFEBC
Substitution2: "'fina' Terminal Forms in Arabic lookup 1 subtable" uniFEBA
EndChar

StartChar: uni0637
Encoding: 1591 1591 88
Width: 1174
VWidth: 1600
Flags: HMW
AnchorPoint: "Anchor-5" 817 1043 basechar 0
AnchorPoint: "Anchor-3" 542 -237 basechar 0
LayerCount: 2
Fore
SplineSet
382 300 m 1
 469 445 627 645 820 645 c 0
 976 645 1084 514 1084 379 c 0
 1084 262 1010 165 910 101 c 0
 810 37 623 0 487 0 c 2
 90 0 l 1
 90 127 l 1
 253 127 l 1
 253 1217 l 1
 382 1217 l 1
 382 300 l 1
820 516 m 0
 753 516 665 458 588 368 c 0
 525 294 474 203 439 127 c 1
 609 127 735 141 841 209 c 4
 916 257 955 316 955 379 c 0
 955 447 904 516 820 516 c 0
EndSplineSet
Validated: 1
Substitution2: "'init' Initial Forms in Arabic lookup 1 subtable" uniFEC3
Substitution2: "'medi' Medial Forms in Arabic lookup 1 subtable" uniFEC4
Substitution2: "'fina' Terminal Forms in Arabic lookup 1 subtable" uniFEC2
EndChar

StartChar: uni0639
Encoding: 1593 1593 89
Width: 1258
VWidth: 1600
Flags: HMW
AnchorPoint: "Anchor-5" 567 1104 basechar 0
AnchorPoint: "Anchor-3" 659 -1065 basechar 0
LayerCount: 2
Fore
SplineSet
660 -870 m 0
 435 -870 90 -767 90 -338 c 0
 90 -84 226 157 423 310 c 1
 300 323 163 394 163 547 c 0
 163 732 366 912 572 912 c 0
 620 912 676 901 729 885 c 1
 698 760 l 1
 663 773 619 783 575 783 c 0
 419 783 291 647 291 539 c 0
 291 456 433 433 518 433 c 0
 619 433 705 452 799 482 c 1
 840 360 l 1
 792 346 739 329 683 312 c 0
 428 219 220 -59 220 -343 c 0
 220 -658 479 -742 660 -742 c 0
 815 -742 953 -691 1070 -543 c 1
 1168 -627 l 1
 1037 -783 888 -870 660 -870 c 0
EndSplineSet
Validated: 1
Substitution2: "'init' Initial Forms in Arabic lookup 1 subtable" uniFECB
Substitution2: "'medi' Medial Forms in Arabic lookup 1 subtable" uniFECC
Substitution2: "'fina' Terminal Forms in Arabic lookup 1 subtable" uniFECA
EndChar

StartChar: uni0640
Encoding: 1600 1600 90
Width: 488
VWidth: 1600
Flags: HMW
AnchorPoint: "Anchor-5" 115 1035 basechar 0
AnchorPoint: "Anchor-3" 109 -643 basechar 0
LayerCount: 2
Fore
SplineSet
502 0 m 1
 -14 0 l 1
 -14 129 l 1
 502 129 l 1
 502 0 l 1
EndSplineSet
Validated: 1
EndChar

StartChar: uni0644
Encoding: 1604 1604 91
Width: 1484
VWidth: 1600
Flags: HMW
AnchorPoint: "Anchor-5" 612 782 basechar 0
AnchorPoint: "Anchor-3" 686 -810 basechar 0
LayerCount: 2
Fore
SplineSet
1266 1217 m 1
 1394 1217 l 1
 1394 25 l 2
 1394 -329 1003 -580 686 -580 c 0
 393 -580 90 -412 90 -107 c 0
 90 110 260 344 623 508 c 1
 676 391 l 1
 340 239 219 47 219 -107 c 0
 219 -326 440 -451 686 -451 c 0
 920 -451 1266 -253 1266 25 c 2
 1266 1217 l 1
EndSplineSet
Validated: 1
Substitution2: "'init' Initial Forms in Arabic lookup 1 subtable" uniFEDF
Substitution2: "'medi' Medial Forms in Arabic lookup 1 subtable" uniFEE0
Substitution2: "'fina' Terminal Forms in Arabic lookup 1 subtable" uniFEDE
EndChar

StartChar: uni0645
Encoding: 1605 1605 92
Width: 1110
VWidth: 1600
Flags: HMW
AnchorPoint: "Anchor-5" 641 877 basechar 0
AnchorPoint: "Anchor-3" 619 -763 basechar 0
LayerCount: 2
Fore
SplineSet
642 645 m 3
 824 645 1020 457 1020 268 c 0
 1020 123 939 0 744 0 c 3
 628 0 511 17 421 17 c 0
 264 17 219 -46 219 -187 c 2
 219 -870 l 1
 90 -870 l 1
 90 -186 l 2
 90 -69 120 85 291 127 c 1
 348 283 l 2
 380 370 409 453 450 520 c 0
 491 587 556 645 642 645 c 3
744 129 m 3
 814 129 892 149 892 268 c 0
 889 395 743 517 642 517 c 3
 610 517 590 502 560 453 c 0
 530 404 502 325 469 238 c 2
 435 147 l 1
 538 147 648 129 744 129 c 3
EndSplineSet
Validated: 1
Substitution2: "'init' Initial Forms in Arabic lookup 1 subtable" uniFEE3
Substitution2: "'medi' Medial Forms in Arabic lookup 1 subtable" uniFEE4
Substitution2: "'fina' Terminal Forms in Arabic lookup 1 subtable" uniFEE2
EndChar

StartChar: uni0647
Encoding: 1607 1607 93
Width: 759
VWidth: 1600
Flags: HMW
AnchorPoint: "Anchor-5" 367 995 basechar 0
AnchorPoint: "Anchor-3" 377 -221 basechar 0
LayerCount: 2
Fore
SplineSet
277 758 m 1
 462 672 669 482 669 258 c 0
 669 93 551 0 379 0 c 0
 207 0 90 93 90 258 c 0
 90 388 166 529 266 618 c 1
 215 645 l 1
 277 758 l 1
379 543 m 1
 307 471 219 367 219 258 c 0
 219 177 273 129 379 129 c 0
 485 129 540 177 540 258 c 0
 540 367 451 471 379 543 c 1
EndSplineSet
Validated: 1
Substitution2: "'init' Initial Forms in Arabic lookup 1 subtable" uniFEEB
Substitution2: "'medi' Medial Forms in Arabic lookup 1 subtable" uniFEEC
Substitution2: "'fina' Terminal Forms in Arabic lookup 1 subtable" uniFEEA
EndChar

StartChar: uni0648
Encoding: 1608 1608 94
Width: 785
VWidth: 1600
Flags: HMW
AnchorPoint: "Anchor-5" 408 890 basechar 0
AnchorPoint: "Anchor-3" 378 -704 basechar 0
LayerCount: 2
Fore
SplineSet
403 645 m 0
 611 645 695 325 695 134 c 0
 695 -175 491 -391 180 -512 c 1
 134 -391 l 1
 338 -311 509 -182 555 20 c 1
 503 8 462 0 405 0 c 0
 215 0 90 109 90 278 c 0
 90 456 232 645 403 645 c 0
403 516 m 0
 313 516 219 394 219 281 c 0
 219 169 304 130 409 130 c 0
 459 130 514 139 566 153 c 1
 559 303 496 516 403 516 c 0
EndSplineSet
Validated: 1
PairPos2: "'kern' Horizontal Kerning lookup 6 subtable 3" uni063A dx=-299 dy=0 dh=-299 dv=0 dx=0 dy=0 dh=0 dv=0
PairPos2: "'kern' Horizontal Kerning lookup 6 subtable 3" uni0639 dx=-299 dy=0 dh=-299 dv=0 dx=0 dy=0 dh=0 dv=0
Substitution2: "'fina' Terminal Forms in Arabic lookup 1 subtable" uniFEEE
EndChar

StartChar: uni065A
Encoding: 1626 1626 96
Width: 0
VWidth: 1600
Flags: HMW
AnchorPoint: "Anchor-5" 242 1271 mark 0
AnchorPoint: "Anchor-4" 242 1271 mark 0
AnchorPoint: "Anchor-1" 242 1271 mark 0
AnchorPoint: "Anchor-1" 250 1637 basemark 0
LayerCount: 2
Fore
SplineSet
273 1309 m 1
 216 1309 l 1
 20 1589 l 1
 77 1629 l 1
 244 1390 l 1
 412 1629 l 1
 469 1589 l 1
 273 1309 l 1
EndSplineSet
Validated: 1
EndChar

StartChar: uni066A
Encoding: 1642 1642 97
Width: 1210
VWidth: 1600
Flags: HMW
LayerCount: 2
Fore
SplineSet
328 1260 m 0
 459 1260 566 1153 566 1022 c 0
 566 891 459 784 328 784 c 0
 197 784 90 891 90 1022 c 0
 90 1153 197 1260 328 1260 c 0
804 1242 m 1
 923 1192 l 1
 406 -25 l 1
 287 25 l 1
 804 1242 l 1
328 1131 m 0
 267 1131 219 1083 219 1022 c 0
 219 961 267 913 328 913 c 0
 389 913 437 961 437 1022 c 0
 437 1083 389 1131 328 1131 c 0
882 433 m 0
 1013 433 1120 326 1120 195 c 0
 1120 64 1013 -43 882 -43 c 0
 751 -43 644 64 644 195 c 0
 644 326 751 433 882 433 c 0
882 304 m 0
 821 304 773 256 773 195 c 0
 773 134 821 86 882 86 c 0
 943 86 991 134 991 195 c 0
 991 256 943 304 882 304 c 0
EndSplineSet
Validated: 1
EndChar

StartChar: uni066D
Encoding: 1645 1645 99
Width: 786
VWidth: 1600
Flags: HMW
LayerCount: 2
Fore
SplineSet
358 948 m 1
 428 948 l 1
 428 730 l 1
 583 884 l 1
 632 835 l 1
 478 680 l 1
 696 680 l 1
 696 610 l 1
 478 610 l 1
 632 456 l 1
 583 406 l 1
 428 561 l 1
 428 342 l 1
 358 342 l 1
 358 561 l 1
 204 406 l 1
 154 456 l 1
 309 610 l 1
 90 610 l 1
 90 680 l 1
 309 680 l 1
 154 835 l 1
 204 884 l 1
 358 730 l 1
 358 948 l 1
EndSplineSet
Validated: 1
EndChar

StartChar: uni066E
Encoding: 1646 1646 100
Width: 1903
VWidth: 1600
Flags: HMW
AnchorPoint: "Anchor-5" 956 742 basechar 0
AnchorPoint: "Anchor-3" 954 -416 basechar 0
LayerCount: 2
Fore
SplineSet
124 528 m 1
 248 495 l 1
 235 446 218 393 218 345 c 0
 218 253 278 209 365 179 c 0
 496 135 713 129 951 129 c 0
 1189 129 1407 135 1538 179 c 0
 1625 209 1684 253 1684 345 c 0
 1684 393 1667 446 1654 495 c 1
 1779 528 l 1
 1796 463 1813 415 1813 346 c 0
 1813 206 1740 113 1579 56 c 0
 1429 2 1231 0 1017 0 c 2
 885 0 l 2
 671 0 474 2 324 56 c 0
 163 113 90 206 90 346 c 0
 90 415 107 463 124 528 c 1
EndSplineSet
Validated: 1
Substitution2: "'fina' Terminal Forms in Arabic lookup 1 subtable" dotless-final-BEH
Substitution2: "'medi' Medial Forms in Arabic lookup 1 subtable" uniFBE9
Substitution2: "'init' Initial Forms in Arabic lookup 1 subtable" uniFBE8
EndChar

StartChar: uni066F
Encoding: 1647 1647 101
Width: 1488
VWidth: 1600
Flags: HMW
AnchorPoint: "Anchor-5" 1100 971 basechar 0
AnchorPoint: "Anchor-3" 682 -858 basechar 0
LayerCount: 2
Fore
SplineSet
1092 645 m 0
 1290 645 1398 333 1398 95 c 0
 1398 -372 964 -580 686 -580 c 0
 393 -580 90 -412 90 -107 c 0
 90 110 260 344 623 508 c 1
 676 391 l 1
 340 239 219 47 219 -107 c 0
 219 -326 440 -451 686 -451 c 0
 920 -451 1266 -253 1266 25 c 1
 1210 12 l 1
 1170 4 1131 0 1095 0 c 0
 905 0 780 109 780 278 c 0
 780 456 921 645 1092 645 c 0
1092 516 m 0
 1002 516 908 394 908 281 c 0
 908 169 994 130 1099 130 c 0
 1150 130 1207 139 1260 154 c 1
 1260 157 1260 161 1260 164 c 0
 1260 301 1178 516 1092 516 c 0
EndSplineSet
Validated: 1
Substitution2: "'init' Initial Forms in Arabic lookup 1 subtable" dotless-initial-FEH
Substitution2: "'medi' Medial Forms in Arabic lookup 1 subtable" dotless-medial-FEH
Substitution2: "'fina' Terminal Forms in Arabic lookup 1 subtable" dotless-final-QAF
EndChar

StartChar: uni0670
Encoding: 1648 1648 102
Width: 0
VWidth: 1600
Flags: HMW
AnchorPoint: "Anchor-5" 52 1235 mark 0
AnchorPoint: "Anchor-4" 52 1235 mark 0
AnchorPoint: "Anchor-1" 52 1235 mark 0
AnchorPoint: "Anchor-1" 54 1751 basemark 0
LayerCount: 2
Fore
SplineSet
20 1686 m 1
 90 1686 l 1
 90 1298 l 1
 20 1298 l 1
 20 1686 l 1
EndSplineSet
Validated: 1
EndChar

StartChar: uni06A1
Encoding: 1697 1697 103
Width: 1937
VWidth: 1600
Flags: HMW
AnchorPoint: "Anchor-5" 1550 1184 basechar 0
AnchorPoint: "Anchor-3" 951 -300 basechar 0
LayerCount: 2
Fore
SplineSet
1601 62 m 0
 1453 5 1259 0 1067 0 c 2
 885 0 l 2
 671 0 474 2 324 56 c 0
 163 113 90 206 90 346 c 0
 90 415 107 463 124 528 c 1
 248 495 l 1
 235 446 218 393 218 345 c 0
 218 253 278 209 365 179 c 0
 496 135 713 129 951 129 c 2
 976 129 l 2
 1197 129 1419 130 1556 182 c 0
 1606 201 1642 225 1668 255 c 1
 1628 247 1589 243 1553 243 c 0
 1363 243 1238 352 1238 521 c 0
 1238 699 1380 888 1551 888 c 0
 1749 888 1847 578 1847 407 c 0
 1847 244 1768 127 1601 62 c 0
1551 759 m 0
 1461 759 1367 637 1367 524 c 0
 1367 412 1452 373 1557 373 c 0
 1608 373 1665 382 1718 397 c 1
 1718 400 1718 404 1718 407 c 0
 1718 544 1637 759 1551 759 c 0
EndSplineSet
Validated: 1
Substitution2: "'init' Initial Forms in Arabic lookup 1 subtable" dotless-initial-FEH
Substitution2: "'medi' Medial Forms in Arabic lookup 1 subtable" dotless-medial-FEH
Substitution2: "'fina' Terminal Forms in Arabic lookup 1 subtable" dotless-final-FEH
EndChar

StartChar: uni06A9
Encoding: 1705 1705 104
Width: 1783
VWidth: 1600
Flags: HMW
AnchorPoint: "Anchor-5" 673 1192 basechar 0
AnchorPoint: "Anchor-3" 808 -364 basechar 0
LayerCount: 2
Fore
SplineSet
1408 359 m 0
 1408 412 1393 444 1335 494 c 0
 1277 544 1173 603 1017 678 c 0
 937 716 882 783 882 864 c 0
 882 939 930 1006 1005 1055 c 2
 1622 1463 l 1
 1693 1355 l 1
 1076 947 l 2
 1024 912 1010 881 1010 862 c 0
 1010 843 1022 818 1073 794 c 0
 1233 717 1343 657 1419 592 c 0
 1495 527 1537 446 1537 359 c 0
 1537 272 1511 181 1446 112 c 0
 1378 40 1290 0 885 0 c 0
 671 0 474 2 324 56 c 0
 163 113 90 206 90 346 c 0
 90 415 107 463 124 528 c 1
 248 495 l 1
 235 446 218 393 218 345 c 0
 218 253 278 209 365 179 c 0
 496 135 713 129 951 129 c 0
 1221 129 1314 159 1352 200 c 0
 1390 241 1408 297 1408 359 c 0
EndSplineSet
Validated: 1
Substitution2: "'init' Initial Forms in Arabic lookup 1 subtable" uniFB90
Substitution2: "'medi' Medial Forms in Arabic lookup 1 subtable" uniFB91
Substitution2: "'fina' Terminal Forms in Arabic lookup 1 subtable" uniFB8F
EndChar

StartChar: uni06BA
Encoding: 1722 1722 105
Width: 1496
VWidth: 1600
Flags: HMW
AnchorPoint: "Anchor-5" 786 745 basechar 0
AnchorPoint: "Anchor-3" 687 -831 basechar 0
LayerCount: 2
Fore
SplineSet
623 508 m 1
 676 391 l 1
 340 239 219 47 219 -107 c 0
 219 -307 405 -451 686 -451 c 0
 879 -451 1115 -326 1212 -158 c 0
 1253 -86 1275 9 1275 113 c 0
 1275 213 1255 321 1211 424 c 1
 1196 457 l 1
 1315 508 l 1
 1329 475 l 2
 1380 355 1406 230 1406 111 c 0
 1406 -11 1379 -127 1324 -222 c 0
 1198 -441 931 -580 686 -580 c 0
 356 -580 90 -396 90 -107 c 0
 90 110 260 344 623 508 c 1
EndSplineSet
Validated: 1
Substitution2: "'init' Initial Forms in Arabic lookup 1 subtable" uniFBE8
Substitution2: "'medi' Medial Forms in Arabic lookup 1 subtable" uniFBE9
Substitution2: "'fina' Terminal Forms in Arabic lookup 1 subtable" dotless-initial-NOON
EndChar

StartChar: uni06CC
Encoding: 1740 1740 106
Width: 1376
VWidth: 1600
Flags: HMW
AnchorPoint: "Anchor-5" 464 549 basechar 0
AnchorPoint: "Anchor-3" 681 -856 basechar 0
LayerCount: 2
Fore
SplineSet
382 209 m 1
 278 112 219 -19 219 -107 c 0
 219 -317 424 -451 686 -451 c 0
 852 -451 973 -407 1049 -343 c 0
 1122 -281 1158 -204 1158 -116 c 0
 1158 -53 1142 -25 1118 -5 c 0
 1095 14 1057 28 1007 37 c 0
 907 56 767 50 664 141 c 0
 623 178 605 230 605 282 c 0
 605 301 607 321 612 339 c 0
 629 406 671 469 725 524 c 0
 807 607 925 674 1051 677 c 0
 1120 677 1182 668 1241 634 c 1
 1198 513 l 1
 1152 539 1111 548 1056 548 c 0
 928 548 765 423 737 307 c 0
 734 294 732 285 732 276 c 0
 732 259 738 249 750 238 c 0
 800 193 913 186 1030 164 c 0
 1088 153 1149 137 1200 95 c 0
 1254 51 1286 -22 1286 -114 c 0
 1286 -239 1231 -358 1131 -442 c 0
 1027 -529 875 -580 686 -580 c 0
 398 -580 90 -417 90 -107 c 0
 90 19 154 178 295 302 c 1
 382 209 l 1
EndSplineSet
Validated: 1
Substitution2: "'init' Initial Forms in Arabic lookup 1 subtable" uniFEF3
Substitution2: "'medi' Medial Forms in Arabic lookup 1 subtable" uniFEF4
Substitution2: "'fina' Terminal Forms in Arabic lookup 1 subtable" uniFBFD
EndChar

StartChar: uniFBE8
Encoding: 64488 64488 110
Width: 473
VWidth: 1600
Flags: HMW
AnchorPoint: "Anchor-5" 202 864 basechar 0
AnchorPoint: "Anchor-3" 202 -225 basechar 0
LayerCount: 2
Fore
SplineSet
0 0 m 2
 -14 0 l 1
 -14 129 l 1
 0 129 l 2
 68 129 160 142 208 194 c 0
 234 222 254 267 254 338 c 0
 254 401 239 487 198 600 c 1
 319 644 l 1
 364 522 384 421 384 338 c 0
 384 237 352 160 303 107 c 0
 213 9 81 0 0 0 c 2
EndSplineSet
Validated: 1
EndChar

StartChar: uniFBE9
Encoding: 64489 64489 111
Width: 558
VWidth: 1600
Flags: HMW
AnchorPoint: "Anchor-5" 297 722 basechar 0
AnchorPoint: "Anchor-3" 274 -211 basechar 0
LayerCount: 2
Fore
SplineSet
363 450 m 1
 363 444 l 0
 363 249 364 129 558 129 c 2
 572 129 l 1
 572 0 l 1
 558 0 l 2
 437 0 349 47 299 115 c 1
 249 47 161 0 40 0 c 2
 -14 0 l 1
 -14 129 l 1
 40 129 l 2
 234 129 235 249 235 444 c 0
 235 450 l 1
 363 450 l 1
EndSplineSet
Validated: 1
EndChar

StartChar: uniFBFD
Encoding: 64509 64509 112
Width: 1510
VWidth: 1600
Flags: HMW
AnchorPoint: "Anchor-5" 928 628 basechar 0
AnchorPoint: "Anchor-3" 683 -858 basechar 0
LayerCount: 2
Fore
SplineSet
1534 0 m 1
 1445 0 1355 0 1266 0 c 1
 1299 -43 1319 -97 1319 -157 c 0
 1319 -437 964 -580 686 -580 c 0
 398 -580 90 -417 90 -107 c 0
 90 110 260 344 623 508 c 1
 676 391 l 1
 340 239 219 47 219 -107 c 0
 219 -317 424 -451 686 -451 c 0
 874 -451 1191 -365 1191 -157 c 0
 1191 -41 1051 0 942 0 c 1
 942 129 l 1
 1139 129 1337 129 1534 129 c 1
 1534 0 l 1
EndSplineSet
Validated: 1
EndChar

StartChar: uniFE71
Encoding: 65137 65137 113
Width: 856
VWidth: 1600
Flags: HMW
AnchorPoint: "Anchor-5" 370 1901 basechar 0
AnchorPoint: "Anchor-3" 430 -280 basechar 0
LayerCount: 2
Fore
SplineSet
-4 129 m 1
 861 129 l 1
 861 0 l 1
 -4 0 l 1
 -4 129 l 1
EndSplineSet
Refer: 33 1614 N 1 0 0 1 257 0 2
Refer: 33 1614 N 1 0 0 1 166 109 2
Validated: 1
Ligature2: "'liga' Standard Ligatures in Arabic lookup 5 subtable" uni0640 uni064B
EndChar

StartChar: uniFE77
Encoding: 65143 65143 114
Width: 856
VWidth: 1600
Flags: HMW
AnchorPoint: "Anchor-5" 370 1633 basechar 0
AnchorPoint: "Anchor-3" 426 -308 basechar 0
LayerCount: 2
Fore
SplineSet
-4 129 m 1
 861 129 l 1
 861 0 l 1
 -4 0 l 1
 -4 129 l 1
EndSplineSet
Refer: 33 1614 S 1 0 0 1 211 0 2
Validated: 1
Ligature2: "'liga' Standard Ligatures in Arabic lookup 5 subtable" uni0640 uni064E
EndChar

StartChar: uniFE79
Encoding: 65145 65145 115
Width: 856
VWidth: 1600
Flags: HMW
AnchorPoint: "Anchor-5" 424 1898 basechar 0
AnchorPoint: "Anchor-3" 405 -297 basechar 0
LayerCount: 2
Fore
SplineSet
-4 129 m 1
 861 129 l 1
 861 0 l 1
 -4 0 l 1
 -4 129 l 1
EndSplineSet
Refer: 34 1615 N 1 0 0 1 241 0 2
Validated: 1
Ligature2: "'liga' Standard Ligatures in Arabic lookup 5 subtable" uni0640 uni064F
EndChar

StartChar: uniFE7B
Encoding: 65147 65147 116
Width: 856
VWidth: 1600
Flags: HMW
AnchorPoint: "Anchor-5" 398 1336 basechar 0
AnchorPoint: "Anchor-3" 386 -714 basechar 0
LayerCount: 2
Fore
SplineSet
-4 129 m 1
 861 129 l 1
 861 0 l 1
 -4 0 l 1
 -4 129 l 1
EndSplineSet
Refer: 33 1614 N 1 0 0 1 212 -1877 2
Validated: 1
Ligature2: "'liga' Standard Ligatures in Arabic lookup 5 subtable" uni0640 uni0650
EndChar

StartChar: uniFE7D
Encoding: 65149 65149 117
Width: 856
VWidth: 1600
Flags: HMW
AnchorPoint: "Anchor-5" 426 1678 basechar 0
AnchorPoint: "Anchor-3" 405 -294 basechar 0
LayerCount: 2
Fore
SplineSet
-4 129 m 1
 861 129 l 1
 861 0 l 1
 -4 0 l 1
 -4 129 l 1
EndSplineSet
Refer: 32 1617 N 1 0 0 1 82 0 2
Validated: 1
Ligature2: "'liga' Standard Ligatures in Arabic lookup 5 subtable" uni0640 uni0651
EndChar

StartChar: uniFE7F
Encoding: 65151 65151 118
Width: 856
VWidth: 1600
Flags: HMW
AnchorPoint: "Anchor-5" 427 1770 basechar 0
AnchorPoint: "Anchor-3" 424 -272 basechar 0
LayerCount: 2
Fore
SplineSet
-4 129 m 1
 861 129 l 1
 861 0 l 1
 -4 0 l 1
 -4 129 l 1
EndSplineSet
Refer: 31 1618 N 1 0 0 1 241 0 2
Validated: 1
Ligature2: "'liga' Standard Ligatures in Arabic lookup 5 subtable" uni0640 uni0652
EndChar

StartChar: uniFE8E
Encoding: 65166 65166 119
Width: 405
VWidth: 1600
Flags: HMW
AnchorPoint: "Anchor-5" 154 1389 basechar 0
AnchorPoint: "Anchor-3" 318 -201 basechar 0
LayerCount: 2
Fore
SplineSet
415 129 m 2
 429 129 l 1
 429 0 l 1
 415 0 l 2
 271 0 172 63 131 154 c 0
 91 243 90 347 90 449 c 2
 90 1219 l 1
 219 1219 l 1
 219 449 l 2
 219 347 225 258 248 207 c 0
 271 156 302 129 415 129 c 2
EndSplineSet
Validated: 1
PairPos2: "'kern' Horizontal Kerning lookup 6 subtable 3" uni063A dx=-293 dy=0 dh=-293 dv=0 dx=0 dy=0 dh=0 dv=0
PairPos2: "'kern' Horizontal Kerning lookup 6 subtable 3" uni0639 dx=-293 dy=0 dh=-293 dv=0 dx=0 dy=0 dh=0 dv=0
PairPos2: "'kern' Horizontal Kerning lookup 6 subtable 2" uni0622 dx=277 dy=0 dh=277 dv=0 dx=0 dy=0 dh=0 dv=0
EndChar

StartChar: uniFEA2
Encoding: 65186 65186 120
Width: 1169
VWidth: 1600
Flags: HMW
AnchorPoint: "Anchor-5" 436 892 basechar 0
AnchorPoint: "Anchor-3" 658 -1147 basechar 0
LayerCount: 2
Fore
SplineSet
1179 0 m 0
 1006 0 856 104 769 242 c 1
 643 169 523 84 402 -28 c 1
 289 -142 218 -262 218 -391 c 0
 218 -628 437 -741 656 -741 c 0
 826 -741 965 -673 1069 -542 c 1
 1168 -625 l 1
 1030 -789 879 -870 656 -870 c 0
 411 -870 90 -737 90 -394 c 0
 90 -222 184 -65 310 63 c 0
 464 219 670 344 848 434 c 1
 728 459 574 515 437 515 c 0
 352 515 271 457 271 373 c 0
 271 334 295 291 319 256 c 1
 212 185 l 1
 173 244 150 294 144 373 c 1
 146 533 281 644 437 644 c 0
 637 644 895 545 1062 512 c 1
 1067 392 l 1
 1003 363 942 335 882 304 c 1
 949 203 1063 129 1179 129 c 3
 1185 129 1193 109 1193 86 c 6
 1193 43 l 6
 1193 18 1185 0 1179 0 c 0
EndSplineSet
Validated: 1
EndChar

StartChar: uniFEA3
Encoding: 65187 65187 121
Width: 1130
VWidth: 1600
Flags: HMW
AnchorPoint: "Anchor-5" 341 895 basechar 0
AnchorPoint: "Anchor-3" 296 -291 basechar 0
LayerCount: 2
Fore
SplineSet
-14 129 m 1
 47 129 107 129 168 129 c 0
 334 129 437 155 527 205 c 0
 609 249 681 313 779 392 c 1
 629 429 454 515 335 515 c 0
 263 515 201 470 180 371 c 1
 55 404 l 1
 95 552 172 644 335 644 c 0
 534 644 752 500 928 500 c 0
 954 500 977 503 999 510 c 1
 1040 388 l 1
 882 337 793 221 651 129 c 0
 541 57 399 0 168 0 c 0
 107 0 47 0 -14 0 c 1
 -14 129 l 1
EndSplineSet
Validated: 1
EndChar

StartChar: uniFEA4
Encoding: 65188 65188 122
Width: 1158
VWidth: 1600
Flags: HMW
AnchorPoint: "Anchor-5" 337 895 basechar 0
AnchorPoint: "Anchor-3" 536 -213 basechar 0
LayerCount: 2
Fore
SplineSet
55 404 m 1
 95 552 172 644 335 644 c 0
 534 644 752 500 928 500 c 0
 954 500 977 503 999 510 c 1
 1040 388 l 1
 973 367 919 333 867 295 c 1
 935 199 1045 129 1158 129 c 2
 1172 129 l 25
 1172 0 l 25
 1158 0 l 2
 997 0 855 91 766 215 c 1
 693 156 614 95 503 54 c 0
 416 21 308 0 168 0 c 0
 107 0 47 0 -14 0 c 1
 -14 129 l 17
 47 129 107 129 168 129 c 0
 501 129 586 237 779 392 c 1
 629 429 454 515 335 515 c 0
 263 515 201 469 180 370 c 1
 55 404 l 1
EndSplineSet
Validated: 1
EndChar

StartChar: uniFEAA
Encoding: 65194 65194 123
Width: 1026
VWidth: 1600
Flags: HMW
AnchorPoint: "Anchor-5" 452 967 basechar 0
AnchorPoint: "Anchor-3" 450 -218 basechar 0
LayerCount: 2
Fore
SplineSet
729 132 m 1
 668 20 502 -26 323 -26 c 0
 245 -26 165 -17 90 -2 c 1
 90 137 l 1
 158 116 243 106 324 106 c 0
 480 106 631 151 631 237 c 0
 631 321 468 586 359 745 c 1
 474 824 l 1
 784 323 l 2
 854 211 925 129 1026 129 c 2
 1040 129 l 1
 1040 0 l 1
 1026 0 l 2
 899 0 800 49 729 132 c 1
EndSplineSet
Validated: 1
PairPos2: "'kern' Horizontal Kerning lookup 6 subtable 3" uni063A dx=-457 dy=0 dh=-457 dv=0 dx=0 dy=0 dh=0 dv=0
PairPos2: "'kern' Horizontal Kerning lookup 6 subtable 3" uni0639 dx=-457 dy=0 dh=-457 dv=0 dx=0 dy=0 dh=0 dv=0
EndChar

StartChar: uniFEAE
Encoding: 65198 65198 124
Width: 607
VWidth: 1600
Flags: HMW
AnchorPoint: "Anchor-5" 262 754 basechar 0
AnchorPoint: "Anchor-3" 139 -682 basechar 0
LayerCount: 2
Fore
SplineSet
389 80 m 1
 367 -200 168 -398 -124 -512 c 1
 -170 -391 l 1
 68 -297 263 -137 263 130 c 0
 263 229 238 326 200 424 c 1
 318 475 l 17
 387 320 409 129 617 129 c 2
 631 129 l 1
 631 0 l 1
 617 0 l 2
 522 0 446 33 389 80 c 1
EndSplineSet
Validated: 1
PairPos2: "'kern' Horizontal Kerning lookup 6 subtable 1" uni063A dx=-280 dy=0 dh=-280 dv=0 dx=0 dy=0 dh=0 dv=0
PairPos2: "'kern' Horizontal Kerning lookup 6 subtable 1" uni0639 dx=-280 dy=0 dh=-280 dv=0 dx=0 dy=0 dh=0 dv=0
PairPos2: "'kern' Horizontal Kerning lookup 6 subtable 1" uni06CC dx=120 dy=0 dh=120 dv=0 dx=0 dy=0 dh=0 dv=0
PairPos2: "'kern' Horizontal Kerning lookup 6 subtable 1" uni0644 dx=120 dy=0 dh=120 dv=0 dx=0 dy=0 dh=0 dv=0
PairPos2: "'kern' Horizontal Kerning lookup 6 subtable 1" uni0649 dx=120 dy=0 dh=120 dv=0 dx=0 dy=0 dh=0 dv=0
EndChar

StartChar: uniFEB2
Encoding: 65202 65202 125
Width: 2658
VWidth: 1600
Flags: HMW
AnchorPoint: "Anchor-5" 1833 749 basechar 0
AnchorPoint: "Anchor-3" 688 -857 basechar 0
LayerCount: 2
Fore
SplineSet
2423 450 m 1
 2423 444 l 0
 2423 249 2424 129 2618 129 c 2
 2672 129 l 1
 2672 0 l 1
 2618 0 l 2
 2497 0 2409 47 2359 115 c 1
 2309 47 2221 0 2100 0 c 0
 1979 0 1891 47 1841 115 c 1
 1791 47 1703 0 1582 0 c 0
 1509 0 1450 21 1403 52 c 1
 1396 -48 1370 -143 1324 -222 c 0
 1198 -441 931 -580 686 -580 c 0
 356 -580 90 -396 90 -107 c 0
 90 110 260 344 623 508 c 1
 676 391 l 1
 340 239 219 47 219 -107 c 0
 219 -307 405 -451 686 -451 c 0
 879 -451 1115 -326 1212 -158 c 0
 1253 -86 1275 9 1275 113 c 0
 1275 213 1255 321 1211 424 c 1
 1196 457 l 1
 1315 508 l 1
 1329 475 l 2
 1361 399 1383 291 1417 224 c 0
 1448 161 1475 129 1582 129 c 0
 1776 129 1777 249 1777 444 c 0
 1777 450 l 1
 1905 450 l 1
 1905 444 l 0
 1905 249 1906 129 2100 129 c 0
 2294 129 2295 249 2295 444 c 0
 2295 450 l 1
 2423 450 l 1
EndSplineSet
Validated: 1
EndChar

StartChar: uniFEB3
Encoding: 65203 65203 126
Width: 1495
VWidth: 1600
Flags: HMW
AnchorPoint: "Anchor-5" 834 772 basechar 0
AnchorPoint: "Anchor-3" 823 -312 basechar 0
LayerCount: 2
Fore
SplineSet
889 450 m 1
 889 444 l 0
 889 250 890 129 1082 129 c 3
 1196 129 1277 202 1277 319 c 3
 1277 372 1267 416 1248 457 c 1
 1367 508 l 1
 1393 445 1405 386 1405 315 c 3
 1405 126 1259 0 1084 0 c 3
 963 0 875 47 825 115 c 1
 775 47 687 0 566 0 c 0
 445 0 357 47 307 115 c 1
 257 47 169 0 48 0 c 2
 -6 0 l 1
 -6 129 l 1
 48 129 l 2
 242 129 243 249 243 444 c 0
 243 450 l 1
 371 450 l 1
 371 444 l 0
 371 249 372 129 566 129 c 0
 760 129 761 249 761 444 c 0
 761 450 l 1
 889 450 l 1
EndSplineSet
Validated: 1
EndChar

StartChar: uniFEB4
Encoding: 65204 65204 127
Width: 1634
VWidth: 1600
Flags: HMW
AnchorPoint: "Anchor-5" 830 752 basechar 0
AnchorPoint: "Anchor-3" 826 -217 basechar 0
LayerCount: 2
Fore
SplineSet
40 129 m 2
 234 129 235 249 235 444 c 0
 235 450 l 1
 363 450 l 1
 363 444 l 0
 363 249 364 129 558 129 c 0
 752 129 753 249 753 444 c 0
 753 450 l 1
 881 450 l 1
 881 444 l 0
 881 249 882 129 1076 129 c 0
 1270 129 1271 249 1271 444 c 0
 1271 450 l 1
 1399 450 l 1
 1399 444 l 0
 1399 249 1400 129 1594 129 c 2
 1648 129 l 1
 1648 0 l 1
 1594 0 l 2
 1473 0 1385 47 1335 115 c 1
 1285 47 1197 0 1076 0 c 0
 955 0 867 47 817 115 c 1
 767 47 679 0 558 0 c 0
 437 0 349 47 299 115 c 1
 249 47 161 0 40 0 c 2
 -14 0 l 1
 -14 129 l 1
 40 129 l 2
EndSplineSet
Validated: 1
EndChar

StartChar: uniFEBA
Encoding: 65210 65210 128
Width: 2434
VWidth: 1600
Flags: HMW
AnchorPoint: "Anchor-5" 1975 893 basechar 0
AnchorPoint: "Anchor-3" 684 -857 basechar 0
LayerCount: 2
Fore
SplineSet
1973 515 m 3
 1828 515 1658 279 1594 141 c 1
 1627 133 1665 129 1698 129 c 3
 1903 129 2108 237 2108 378 c 3
 2108 446 2057 515 1973 515 c 3
2154 176 m 1
 2051 63 1868 0 1698 0 c 3
 1591 0 1492 33 1404 76 c 1
 1404 76 1403 64 1402 52 c 0
 1394 -48 1370 -142 1324 -222 c 0
 1198 -441 931 -580 686 -580 c 3
 356 -580 90 -396 90 -107 c 3
 90 110 260 344 623 508 c 1
 676 391 l 1
 340 239 219 47 219 -107 c 3
 219 -307 405 -451 686 -451 c 3
 879 -451 1115 -325 1212 -157 c 0
 1253 -85 1276 9 1276 113 c 3
 1276 213 1255 321 1211 424 c 1
 1329 475 l 1
 1364 393 1387 307 1398 224 c 1
 1423 209 1448 196 1473 184 c 1
 1568 386 1756 644 1973 644 c 3
 2128 644 2237 512 2237 378 c 0
 2237 249 2277 129 2444 129 c 2
 2458 129 l 1
 2458 0 l 1
 2444 0 l 2
 2297 0 2204 67 2154 176 c 1
2108 378 m 1024
EndSplineSet
Validated: 1
EndChar

StartChar: uniFEBB
Encoding: 65211 65211 129
Width: 1223
VWidth: 1600
Flags: HMW
AnchorPoint: "Anchor-5" 868 874 basechar 0
AnchorPoint: "Anchor-3" 598 -302 basechar 0
LayerCount: 2
Fore
SplineSet
0 129 m 3
 190 129 193 259 193 449 c 1
 321 455 l 1
 323 423 324 393 324 364 c 0
 324 285 317 220 317 185 c 0
 317 159 320 145 351 142 c 1
 390 238 455 353 539 451 c 0
 628 555 738 645 869 645 c 0
 1025 645 1133 514 1133 379 c 0
 1133 262 1059 165 959 101 c 0
 839 24 670 -1 473 -1 c 0
 388 -1 284 7 221 79 c 1
 169 32 96 0 0 0 c 0
 -6 0 -14 18 -14 43 c 2
 -14 86 l 2
 -14 109 -6 129 0 129 c 3
1004 379 m 0
 1004 447 953 516 869 516 c 0
 802 516 714 458 637 368 c 0
 574 294 523 203 488 127 c 1
 658 127 783 141 889 209 c 0
 964 257 1004 316 1004 379 c 0
EndSplineSet
Validated: 1
EndChar

StartChar: uniFEBC
Encoding: 65212 65212 130
Width: 1196
VWidth: 1600
Flags: HMW
AnchorPoint: "Anchor-5" 874 900 basechar 0
AnchorPoint: "Anchor-3" 566 -251 basechar 0
LayerCount: 2
Fore
SplineSet
1004 379 m 0
 1004 447 953 516 869 516 c 0
 802 516 714 458 637 368 c 0
 574 294 523 203 488 127 c 1
 658 127 783 141 889 209 c 0
 964 257 1004 316 1004 379 c 0
998 129 m 1
 1069 129 1139 129 1210 129 c 1
 1210 0 l 1
 985 0 760 0 535 0 c 1
 473 -1 l 2
 388 -1 284 7 221 79 c 1
 169 32 96 0 0 0 c 2
 -14 0 l 1
 -14 129 l 17
 0 129 l 2
 190 129 193 259 193 449 c 1
 321 455 l 1
 323 423 324 393 324 364 c 0
 324 285 317 220 317 185 c 0
 317 159 320 145 351 142 c 1
 390 238 455 353 539 451 c 0
 628 555 738 645 869 645 c 0
 1025 645 1133 514 1133 379 c 0
 1133 275 1081 192 998 129 c 1
EndSplineSet
Validated: 1
EndChar

StartChar: uniFEC2
Encoding: 65218 65218 131
Width: 1095
VWidth: 1600
Flags: HMW
AnchorPoint: "Anchor-5" 781 1031 basechar 0
AnchorPoint: "Anchor-3" 562 -217 basechar 0
LayerCount: 2
Fore
SplineSet
340 300 m 1
 426 445 587 645 779 645 c 0
 935 645 1042 514 1042 379 c 0
 1042 278 987 192 908 129 c 1
 978 129 1049 129 1119 129 c 1
 1119 0 l 1
 776 0 433 0 90 0 c 1
 90 127 l 1
 212 127 l 1
 212 1217 l 1
 340 1217 l 1
 340 300 l 1
778 516 m 0
 711 516 624 458 547 368 c 0
 484 295 434 205 399 129 c 1
 573 129 694 143 799 209 c 0
 874 257 914 316 914 379 c 0
 914 447 862 516 778 516 c 0
EndSplineSet
Validated: 1
EndChar

StartChar: uniFEC3
Encoding: 65219 65219 132
Width: 1107
VWidth: 1600
Flags: HMW
AnchorPoint: "Anchor-5" 757 963 basechar 0
AnchorPoint: "Anchor-3" 516 -243 basechar 0
LayerCount: 2
Fore
SplineSet
315 300 m 1
 402 445 560 645 753 645 c 0
 909 645 1017 514 1017 379 c 0
 1017 262 943 165 843 101 c 0
 743 37 556 0 420 0 c 0
 275 0 131 0 -14 0 c 1
 -14 129 l 1
 53 129 119 129 186 129 c 1
 186 1217 l 1
 315 1217 l 1
 315 300 l 1
753 516 m 0
 686 516 598 458 521 368 c 0
 458 294 408 203 373 127 c 1
 542 127 668 141 774 209 c 0
 849 257 888 316 888 379 c 0
 888 447 837 516 753 516 c 0
EndSplineSet
Validated: 1
EndChar

StartChar: uniFEC4
Encoding: 65220 65220 133
Width: 1080
VWidth: 1600
Flags: HMW
AnchorPoint: "Anchor-5" 745 1055 basechar 0
AnchorPoint: "Anchor-3" 510 -211 basechar 0
LayerCount: 2
Fore
SplineSet
315 300 m 1
 402 445 560 645 753 645 c 0
 909 645 1017 514 1017 379 c 0
 1017 278 962 192 883 129 c 1
 953 129 1024 129 1094 129 c 1
 1094 0 l 1
 725 0 355 0 -14 0 c 1
 -14 129 l 1
 53 129 119 129 186 129 c 1
 186 1217 l 1
 315 1217 l 1
 315 300 l 1
753 516 m 0
 686 516 598 458 521 368 c 0
 458 295 409 205 374 129 c 1
 548 129 669 143 774 209 c 0
 849 257 888 316 888 379 c 0
 888 447 837 516 753 516 c 0
EndSplineSet
Validated: 1
EndChar

StartChar: uniFECA
Encoding: 65226 65226 134
Width: 952
VWidth: 1600
Flags: HMW
AnchorPoint: "Anchor-5" 506 879 basechar 0
AnchorPoint: "Anchor-3" 585 -1087 basechar 0
LayerCount: 2
Fore
SplineSet
976 0 m 1
 887 0 798 0 709 0 c 0
 608 0 529 16 439 53 c 1
 319 -76 219 -227 219 -412 c 0
 219 -664 415 -741 585 -741 c 0
 748 -741 847 -679 933 -568 c 1
 1031 -651 l 1
 908 -797 788 -870 585 -870 c 0
 334 -870 90 -736 90 -411 c 0
 90 -227 177 -27 320 116 c 1
 223 175 127 276 127 412 c 0
 127 552 306 644 505 644 c 0
 643 644 883 572 883 412 c 0
 883 386 868 362 844 352 c 0
 822 343 686 273 545 153 c 1
 595 137 653 127 706 127 c 0
 707 127 708 127 709 127 c 2
 962 129 l 1
 976 129 l 1
 976 0 l 1
505 515 m 0
 371 515 256 457 256 412 c 0
 256 350 338 247 412 210 c 1
 538 328 659 401 730 439 c 1
 670 493 571 515 505 515 c 0
EndSplineSet
Validated: 1
EndChar

StartChar: uniFECB
Encoding: 65227 65227 135
Width: 722
VWidth: 1600
Flags: HMW
AnchorPoint: "Anchor-5" 399 893 basechar 0
AnchorPoint: "Anchor-3" 337 -252 basechar 0
LayerCount: 2
Fore
SplineSet
-14 129 m 1
 26 129 65 129 105 129 c 1
 71 169 52 218 52 279 c 0
 52 466 189 645 405 645 c 0
 459 645 524 634 582 612 c 1
 549 488 l 1
 497 507 458 516 405 516 c 0
 267 516 181 397 181 279 c 0
 181 139 403 126 551 126 c 1
 632 127 l 1
 632 0 l 1
 417 0 201 0 -14 0 c 1
 -14 129 l 1
EndSplineSet
Validated: 1
EndChar

StartChar: uniFECC
Encoding: 65228 65228 136
Width: 950
VWidth: 1600
Flags: HMW
AnchorPoint: "Anchor-5" 479 873 basechar 0
AnchorPoint: "Anchor-3" 467 -236 basechar 0
LayerCount: 2
Fore
SplineSet
475 627 m 0
 647 627 853 568 853 394 c 0
 853 273 773 189 675 137 c 1
 723 132 770 129 815 129 c 2
 964 129 l 1
 964 1 l 1
 774 1 l 2
 647 1 585 13 475 46 c 1
 365 13 303 1 176 1 c 2
 -14 1 l 1
 -14 129 l 1
 135 129 l 2
 180 129 227 132 275 137 c 1
 177 189 97 273 97 394 c 0
 97 568 303 627 475 627 c 0
475 185 m 1
 571 224 724 282 724 394 c 0
 724 453 618 498 475 498 c 0
 332 498 226 453 226 394 c 0
 226 282 379 224 475 185 c 1
EndSplineSet
Validated: 1
EndChar

StartChar: uniFEDB
Encoding: 65243 65243 137
Width: 954
VWidth: 1600
Flags: HMW
AnchorPoint: "Anchor-5" 272 1446 basechar 0
AnchorPoint: "Anchor-3" 357 -242 basechar 0
LayerCount: 2
Fore
SplineSet
708 359 m 0
 708 143 553 0 320 0 c 0
 209 0 97 0 -14 0 c 1
 -14 129 l 1
 97 129 209 129 320 129 c 0
 425 129 485 159 523 200 c 0
 561 241 579 297 579 359 c 0
 579 412 564 444 506 494 c 0
 448 544 345 603 189 678 c 0
 109 716 53 783 53 864 c 0
 53 939 101 1006 176 1055 c 2
 793 1463 l 1
 864 1355 l 1
 247 947 l 2
 195 912 182 881 182 862 c 0
 182 843 193 818 244 794 c 0
 404 717 514 657 590 592 c 0
 666 527 708 446 708 359 c 0
EndSplineSet
Validated: 1
EndChar

StartChar: uniFEDC
Encoding: 65244 65244 138
Width: 909
VWidth: 1600
Flags: HMW
AnchorPoint: "Anchor-5" 270 1446 basechar 0
AnchorPoint: "Anchor-3" 325 -202 basechar 0
LayerCount: 2
Fore
SplineSet
656 163 m 1
 595 63 480 0 320 0 c 0
 209 0 97 0 -14 0 c 1
 -14 129 l 1
 97 129 209 129 320 129 c 0
 425 129 485 159 523 200 c 0
 561 241 579 297 579 359 c 0
 579 412 564 444 506 494 c 0
 448 544 345 603 189 678 c 0
 109 716 53 783 53 864 c 0
 53 939 101 1006 176 1055 c 2
 793 1463 l 1
 864 1355 l 1
 247 947 l 2
 195 912 182 881 182 862 c 0
 182 843 193 818 244 794 c 0
 384 727 486 672 560 616 c 1
 697 522 729 368 757 269 c 0
 771 219 785 183 804 163 c 0
 823 143 846 129 909 129 c 2
 923 129 l 1
 923 0 l 1
 909 0 l 2
 774 0 694 66 656 163 c 1
EndSplineSet
Validated: 1
EndChar

StartChar: uniFEDE
Encoding: 65246 65246 139
Width: 1642
VWidth: 1600
Flags: HMW
AnchorPoint: "Anchor-5" 709 885 basechar 0
AnchorPoint: "Anchor-3" 682 -815 basechar 0
LayerCount: 2
Fore
SplineSet
1652 0 m 2
 1541 0 1457 28 1395 79 c 1
 1394 25 l 1
 1394 -329 1003 -580 686 -580 c 0
 393 -580 90 -412 90 -107 c 0
 90 110 260 344 623 508 c 1
 676 391 l 1
 340 239 219 47 219 -107 c 0
 219 -326 440 -451 686 -451 c 0
 920 -451 1266 -253 1266 25 c 2
 1266 1217 l 1
 1394 1217 l 1
 1394 577 l 2
 1394 311 1395 129 1652 129 c 2
 1666 129 l 1
 1666 0 l 1
 1652 0 l 2
EndSplineSet
Validated: 1
EndChar

StartChar: uniFEDF
Encoding: 65247 65247 140
Width: 415
VWidth: 1600
Flags: HMW
AnchorPoint: "Anchor-5" 262 1380 basechar 0
AnchorPoint: "Anchor-3" 197 -168 basechar 0
LayerCount: 2
Fore
SplineSet
0 129 m 2
 113 129 144 156 167 207 c 0
 190 258 196 347 196 449 c 2
 196 1219 l 1
 325 1219 l 1
 325 449 l 2
 325 347 324 243 284 154 c 0
 243 63 144 0 0 0 c 2
 -14 0 l 1
 -14 129 l 1
 0 129 l 2
EndSplineSet
Validated: 1
EndChar

StartChar: uniFEE0
Encoding: 65248 65248 141
Width: 644
VWidth: 1600
Flags: HMW
AnchorPoint: "Anchor-5" 323 1420 basechar 0
AnchorPoint: "Anchor-3" 322 -205 basechar 0
LayerCount: 2
Fore
SplineSet
644 0 m 2
 556 0 483 17 425 51 c 0
 378 79 346 119 322 163 c 1
 298 119 266 79 219 51 c 0
 161 17 88 0 0 0 c 2
 -14 0 l 1
 -14 129 l 1
 0 129 l 2
 126 129 188 163 222 245 c 0
 254 320 258 442 258 577 c 2
 257 1217 l 1
 386 1217 l 1
 386 577 l 2
 386 571 l 0
 386 307 387 129 644 129 c 2
 658 129 l 1
 658 0 l 1
 644 0 l 2
EndSplineSet
Validated: 1
EndChar

StartChar: uniFEE2
Encoding: 65250 65250 142
Width: 1144
VWidth: 1600
Flags: HMW
AnchorPoint: "Anchor-5" 641 871 basechar 0
AnchorPoint: "Anchor-3" 671 -763 basechar 0
LayerCount: 2
Fore
SplineSet
1154 0 m 2
 1073 0 1004 22 954 81 c 1
 909 34 841 3 744 0 c 0
 628 0 511 17 421 17 c 0
 264 17 219 -46 219 -187 c 2
 219 -870 l 1
 90 -870 l 1
 90 -186 l 2
 90 -69 120 85 291 127 c 1
 348 283 l 2
 380 370 409 453 450 520 c 0
 491 587 556 645 642 645 c 0
 824 645 1020 457 1020 268 c 0
 1020 168 1061 129 1154 129 c 2
 1168 129 l 1
 1168 0 l 1
 1154 0 l 2
642 517 m 0
 610 517 590 502 560 453 c 0
 530 404 502 325 469 238 c 2
 435 147 l 1
 538 147 648 129 744 129 c 0
 814 130 892 149 892 268 c 0
 889 395 743 517 642 517 c 0
EndSplineSet
Validated: 1
EndChar

StartChar: uniFEE3
Encoding: 65251 65251 143
Width: 942
VWidth: 1600
Flags: HMW
AnchorPoint: "Anchor-5" 477 931 basechar 0
AnchorPoint: "Anchor-3" 570 -266 basechar 0
LayerCount: 2
Fore
SplineSet
0 129 m 2
 99 129 142 184 179 283 c 0
 211 370 241 452 282 519 c 0
 323 586 388 645 474 645 c 0
 655 645 852 455 852 267 c 0
 852 101 739 0 575 0 c 0
 434 0 324 55 251 138 c 1
 201 50 112 0 0 0 c 2
 -14 0 l 1
 -14 129 l 1
 0 129 l 2
474 516 m 0
 441 516 422 501 392 452 c 0
 366 409 340 342 312 269 c 1
 362 181 434 129 575 129 c 0
 678 129 723 179 723 267 c 0
 723 389 575 516 474 516 c 0
EndSplineSet
Validated: 1
EndChar

StartChar: uniFEE4
Encoding: 65252 65252 144
Width: 985
VWidth: 1600
Flags: HMW
AnchorPoint: "Anchor-5" 473 918 basechar 0
AnchorPoint: "Anchor-3" 538 -274 basechar 0
LayerCount: 2
Fore
SplineSet
985 0 m 2
 895 0 835 23 785 82 c 1
 736 30 663 0 575 0 c 0
 434 0 324 55 251 138 c 1
 201 50 112 0 0 0 c 2
 -14 0 l 9
 -14 129 l 17
 0 129 l 2
 99 129 142 184 179 283 c 0
 211 370 241 452 282 519 c 0
 323 586 388 645 474 645 c 0
 655 645 852 455 852 267 c 0
 853 208 866 183 887 162 c 0
 908 141 940 129 985 129 c 2
 999 129 l 9
 999 0 l 17
 985 0 l 2
575 129 m 0
 678 129 723 179 723 267 c 0
 723 389 575 516 474 516 c 0
 441 516 422 501 392 452 c 0
 366 409 340 342 312 269 c 1
 362 181 434 129 575 129 c 0
EndSplineSet
Validated: 1
EndChar

StartChar: uniFEEA
Encoding: 65258 65258 145
Width: 955
VWidth: 1600
Flags: HMW
AnchorPoint: "Anchor-5" 461 863 basechar 0
AnchorPoint: "Anchor-3" 450 -286 basechar 0
LayerCount: 2
Fore
SplineSet
965 0 m 2
 639 0 612 515 457 515 c 0
 353 515 219 404 219 282 c 0
 219 171 354 129 457 129 c 1
 457 0 l 1
 266 0 90 111 90 282 c 0
 90 465 267 644 457 644 c 0
 738 644 725 129 965 129 c 2
 979 129 l 1
 979 0 l 1
 965 0 l 2
EndSplineSet
Validated: 1
EndChar

StartChar: uniFEEB
Encoding: 65259 65259 146
Width: 1235
VWidth: 1600
Flags: HMW
AnchorPoint: "Anchor-5" 469 1059 basechar 0
AnchorPoint: "Anchor-3" 490 -257 basechar 0
LayerCount: 2
Fore
SplineSet
25 281 m 0
 25 431 177 590 273 644 c 1
 244 673 217 715 197 757 c 1
 309 822 l 1
 384 678 533 656 677 640 c 0
 875 618 1145 575 1145 310 c 0
 1145 108 915 0 727 0 c 0
 679 0 629 9 580 22 c 1
 525 5 462 0 395 0 c 0
 259 0 122 0 -14 0 c 1
 -14 129 l 1
 17 129 49 129 80 129 c 1
 47 169 25 217 25 281 c 0
630 243 m 0
 630 356 529 554 411 554 c 0
 299 554 154 383 154 280 c 0
 154 166 314 132 410 132 c 0
 453 132 630 135 630 243 c 0
670 511 m 1
 721 428 751 349 759 244 c 0
 759 205 747 164 729 133 c 1
 840 133 1017 190 1017 313 c 0
 1017 476 801 496 670 511 c 1
EndSplineSet
Validated: 1
EndChar

StartChar: uniFEEC
Encoding: 65260 65260 147
Width: 837
VWidth: 1600
Flags: HMW
AnchorPoint: "Anchor-5" 451 956 basechar 0
AnchorPoint: "Anchor-3" 454 -759 basechar 0
LayerCount: 2
Fore
SplineSet
837 129 m 2
 851 129 l 1
 851 0 l 1
 837 0 l 2
 716 0 647 -61 647 -160 c 0
 647 -204 665 -246 665 -293 c 0
 665 -412 580 -515 455 -515 c 0
 257 -515 127 -308 110 0 c 1
 -14 0 l 1
 -14 129 l 1
 111 129 l 1
 132 423 253 644 455 644 c 0
 595 644 702 531 702 368 c 0
 702 158 460 3 241 3 c 1
 251 -149 297 -386 455 -386 c 0
 499 -386 537 -354 537 -294 c 0
 537 -249 518 -223 518 -161 c 0
 518 19 656 129 837 129 c 2
455 515 m 0
 302 515 256 264 243 131 c 1
 361 131 573 217 573 369 c 0
 573 474 507 515 455 515 c 0
EndSplineSet
Validated: 1
EndChar

StartChar: zero
Encoding: 48 48 149
Width: 1066
VWidth: 1691
Flags: W
LayerCount: 2
Fore
SplineSet
827 246 m 0
 861 324.967741935 878 438.967741935 878 588 c 0
 878 738.791666667 860 854.125 824 934 c 0
 778.289043599 1037.21828865 696.955710265 1088.21828865 580 1087 c 0
 468.398148148 1087 390.064814815 1034.66666667 345 930 c 0
 307 840.516129032 288 722.516129032 288 576 c 0
 288 414.470588235 308.666666667 294.803921569 350 217 c 0
 397.09611897 127.089227421 474.762785637 82.7558940878 583 84 c 0
 700.03286385 84 781.366197183 138 827 246 c 0
240 1001 m 0
 304 1129 418.333333333 1193 583 1193 c 0
 794.971014493 1193 925.304347826 1081 974 857 c 0
 991.333333333 778.422222222 1000 692.444444444 1000 599.066666667 c 0
 1000 404.162962963 973.666666667 258.140740741 921 161 c 0
 853.679615744 38.0671244015 741.179615744 -23.0995422652 583.5 -22.5 c 0
 356.612356469 -21.6373093402 222.779023136 104.529357326 182 356 c 0
 170.666666667 429.333333333 165 505 165 583 c 0
 165 765.075757576 190 904.409090909 240 1001 c 0
EndSplineSet
EndChar

StartChar: one
Encoding: 49 49 150
Width: 1040
VWidth: 1694
Flags: W
LayerCount: 2
Fore
SplineSet
597 4 m 1
 597 882 l 1
 290 882 l 1
 290 965 l 1
 419 979 l 1
 491.894736842 989.799220273 545.228070175 1021.46588694 579 1074 c 0
 597.756302521 1103.87114846 611.422969188 1144.53781513 620 1196 c 1
 720 1196 l 1
 720 4 l 1
 597 4 l 1
EndSplineSet
EndChar

StartChar: two
Encoding: 50 50 151
Width: 1067
VWidth: 1694
Flags: W
LayerCount: 2
Fore
SplineSet
217 791 m 1
 217 798 l 2
 217 916.245954693 252.833333333 1012.24595469 324.5 1086 c 0
 395.757861635 1159.33333333 494.257861635 1196 620 1196 c 0
 739.545454545 1196 834.212121212 1163.33333333 904 1098 c 0
 968 1038.08510638 1000 959.751773047 1000 863 c 0
 1000 725.584795321 934.333333333 614.251461988 803 529 c 0
 755.983870968 497.370967742 695.563172043 462.463709677 621.737903226 424.278225806 c 128
 547.912634409 386.092741935 498.5 357.833333333 473.5 339.5 c 0
 392.732804233 280.270723104 343.566137566 225.770723104 326 176 c 0
 318.666666667 156 314 134 312 110 c 1
 989 110 l 1
 989 4 l 1
 182 4 l 1
 182 11 l 1
 183.333333333 67.6666666667 189.666666667 119.333333333 201 166 c 128
 212.333333333 212.666666667 238.333333333 259 279 305 c 0
 345.969015708 380.751837441 434.302349041 450.085170774 544 513 c 0
 588.666666667 539 630.833333333 562.833333333 670.5 584.5 c 0
 755.763436914 631.072465541 813.263436914 682.905798875 843 740 c 0
 859 771.333333333 867 807.666666667 867 849 c 128
 867 890.333333333 860.5 925.5 847.5 954.5 c 128
 834.5 983.5 816.5 1008.16666667 793.5 1028.5 c 0
 748.714788733 1068.09272301 686.214788733 1088.59272301 606 1090 c 0
 528.564102564 1090 464.564102564 1061 414 1003 c 0
 360.066452305 941.135048231 338.066452305 870.468381565 348 791 c 1
 217 791 l 1
EndSplineSet
EndChar

StartChar: three
Encoding: 51 51 152
Width: 1064
VWidth: 1691
Flags: W
LayerCount: 2
Fore
SplineSet
950 895 m 0
 950 772.306666667 898 685.306666667 794 634 c 1
 926.666666667 587.320987654 993 490.320987654 993 343 c 0
 993 240.313531353 958.833333333 155.48019802 890.5 88.5 c 0
 816.646726222 16.1091672871 718.480059555 -20.7241660463 596 -22 c 0
 447.939393939 -22 341.606060606 5.33333333333 277 60 c 0
 210.789976133 116.023866349 170.4566428 213.690533015 156 353 c 1
 156 361 l 1
 279 361 l 1
 279 354 l 2
 279 264.666666667 305.666666667 197.333333333 359 152 c 128
 412.333333333 106.666666667 484 84 574 84 c 0
 662.96713615 84 735.46713615 109.833333333 791.5 161.5 c 0
 846.613894455 212.319305277 872.780561122 272.485971944 870 342 c 0
 862.813891363 509.67586821 733.813891363 585.67586821 483 570 c 1
 475 570 l 1
 475 671 l 1
 483 671 l 2
 599.4 671 683.4 685.333333333 735 714 c 0
 796.333333333 748.848484849 827 806.848484849 827 888 c 0
 827 1020.66666667 742.666666667 1087 574 1087 c 0
 497.458333333 1087 435.458333333 1064.66666667 388 1020 c 0
 342 974 319 916 319 846 c 2
 319 839 l 1
 197 839 l 1
 197 846 l 2
 197 953.060109287 236 1042.39344262 314 1114 c 0
 352.666666667 1148 396.5 1169.66666667 445.5 1179 c 128
 494.5 1188.33333333 544.5 1193 595.5 1193 c 128
 646.5 1193 693.5 1187 736.5 1175 c 128
 779.5 1163 816.666666667 1144.83333333 848 1120.5 c 0
 916 1067.69148936 950 992.524822693 950 895 c 0
EndSplineSet
EndChar

StartChar: four
Encoding: 52 52 153
Width: 1066
VWidth: 1692
Flags: W
LayerCount: 2
Fore
SplineSet
717 997 m 1
 288 396 l 1
 717 396 l 1
 717 997 l 1
717 3 m 1
 717 290 l 1
 161 290 l 1
 161 391 l 1
 729 1180 l 1
 731 1183 l 1
 841 1183 l 1
 841 396 l 1
 1007 396 l 1
 1007 290 l 1
 841 290 l 1
 841 3 l 1
 717 3 l 1
EndSplineSet
EndChar

StartChar: five
Encoding: 53 53 154
Width: 1063
VWidth: 1690
Flags: W
LayerCount: 2
Fore
SplineSet
278 324 m 1
 305.015384615 161.907692308 403.348717949 81.5743589743 573 83 c 0
 663.333333333 83 734 111.333333333 785 168 c 0
 833.666666667 222.074074074 858 291.407407407 858 376 c 0
 858 462.225225225 832 532.391891892 780 586.5 c 0
 728.424242424 640.166666667 656.090909091 667 563 667 c 0
 452.225806451 667 365.225806451 627 302 547 c 1
 300 544 l 1
 207 556 l 1
 200 557 l 1
 297 1174 l 1
 298 1180 l 1
 916 1180 l 1
 916 1074 l 1
 401 1074 l 1
 331 703 l 1
 396.446693657 742.735492577 457.113360324 765.068825911 513 770 c 0
 535.666666667 772 568.666666667 773 612 773 c 128
 655.333333333 773 701 763.833333333 749 745.5 c 0
 848.255291577 707.589992801 916.255291577 639.423326134 953 541 c 0
 971.666666667 491.666666667 981 436 981 374 c 128
 981 312 970.5 256.333333333 949.5 207 c 0
 907.541228779 108.430188243 838.041228779 40.4301882435 741 3 c 0
 652.434518474 -29.7570959068 546.767851807 -32.7570959068 424 -6 c 0
 320.596238681 17.1297887161 245.596238681 71.6297887161 199 157.5 c 0
 175.666666667 200.5 161.666666667 253.666666667 157 317 c 1
 156 324 l 1
 278 324 l 1
EndSplineSet
EndChar

StartChar: six
Encoding: 54 54 155
Width: 1066
VWidth: 1691
Flags: W
LayerCount: 2
Fore
SplineSet
874 372 m 0
 874 556.727272727 783 649.727272727 601 651 c 0
 517.735042735 651 451.401709402 622.666666667 402 566 c 0
 355.333333333 512.470588235 332 445.470588235 332 365 c 0
 332 242.333333333 380 157 476 109 c 0
 510 91.6666666667 552.666666667 83.1666666667 604 83.5 c 0
 741.146428571 84.3905612245 826.479761905 145.890561224 860 268 c 0
 869.333333333 302.666666667 874 337.333333333 874 372 c 0
601 -22 m 0
 313 -22 169 168 169 548 c 0
 169 831.411764706 242.333333333 1025.74509804 389 1131 c 0
 447.666666667 1172.33333333 525.333333333 1193 622 1193 c 128
 718.666666667 1193 799.333333333 1167.66666667 864 1117 c 0
 927.742857143 1067.05714286 966.076190476 990.390476193 979 887 c 1
 854 887 l 1
 852 892 l 1
 824.247191011 1022 749.580524345 1087 628 1087 c 0
 446.086956522 1087 340.086956522 971.666666667 310 741 c 0
 303.333333333 687 297.666666667 635.666666667 293 587 c 1
 305.666666667 603 320 620.833333333 336 640.5 c 128
 352 660.166666667 372.166666667 678.833333333 396.5 696.5 c 0
 451.135220126 736.166666667 520.635220126 756 605 756 c 0
 731.666666667 756 828.666666667 721.5 896 652.5 c 128
 963.333333333 583.5 997 488.5 997 367.5 c 128
 997 246.5 963 151.333333333 895 82 c 128
 827 12.6666666667 729 -22 601 -22 c 0
EndSplineSet
EndChar

StartChar: seven
Encoding: 55 55 156
Width: 1068
VWidth: 1692
Flags: W
LayerCount: 2
Fore
SplineSet
201 1183 m 1
 988 1183 l 1
 988 1073 l 1
 986 1071 l 1
 833.243017924 900.341809087 710.243017924 704.675142421 617 484 c 0
 543.220224719 309.387865169 502.220224719 151.387865169 494 10 c 1
 493 3 l 1
 358 3 l 1
 358 11 l 1
 368.287234043 175.595744681 422.787234043 360.262411347 521.5 565 c 0
 604.390547264 736.921135065 709.223880597 901.921135065 836 1060 c 1
 201 1060 l 1
 201 1183 l 1
EndSplineSet
EndChar

StartChar: eight
Encoding: 56 56 157
Width: 1066
VWidth: 1691
Flags: W
LayerCount: 2
Fore
SplineSet
822 907 m 0
 820.604651163 1027 739.937984496 1087 580 1087 c 0
 466.354978355 1087 391.688311688 1048.83333333 356 972.5 c 0
 344 946.833333333 338 916.833333333 338 882.5 c 0
 338 787.268115942 390.666666667 724.768115942 496 695 c 0
 526.666666667 687 558.833333333 683 592.5 683 c 0
 699.957831325 683 770.624497992 723.166666667 804.5 803.5 c 0
 816.166666667 831.166666667 822 865.666666667 822 907 c 0
849.5 444.5 m 0
 806.5 533.5 718.333333333 578 585 578 c 0
 449.043478261 578 359.876811594 532.666666667 317.5 442 c 0
 303.166666667 411.333333333 296 376.5 296 337.5 c 128
 296 298.5 302.833333333 264 316.5 234 c 0
 344.263518967 173.055690073 394.430185633 129.389023406 467 103 c 0
 504.333333333 90.3333333333 544.833333333 84 588.5 84 c 128
 632.166666667 84 671 90.1666666667 705 102.5 c 128
 739 114.833333333 768.333333333 132.333333333 793 155 c 0
 845 202.783783784 871 264.450450451 871 340 c 0
 871 380 863.833333333 414.833333333 849.5 444.5 c 0
944 899 m 0
 944 777.973684211 893.666666667 690.307017544 793 636 c 1
 853 612 901.5 574.666666667 938.5 524 c 128
 975.5 473.333333333 994 415.833333333 994 351.5 c 128
 994 287.166666667 983.833333333 232.166666667 963.5 186.5 c 0
 901.609489051 47.5 766.776155718 -22 559 -22 c 0
 456.925093633 -22 369.758426966 7.5 297.5 66.5 c 0
 213.930706194 134.735478429 172.764039527 223.235478429 174 332 c 0
 174 403.333333333 191.5 466.333333333 226.5 521 c 128
 261.5 575.666666667 310.333333333 616.333333333 373 643 c 1
 317.186440678 677.694915254 280.233050847 707.535310734 262.139830508 732.521186441 c 0
 231.379943503 774.999125639 216 823.698412698 216 878.619047619 c 128
 216 933.53968254 225.333333333 979.166666667 244 1015.5 c 0
 282.920082816 1091.25516119 344.253416149 1143.75516119 428 1173 c 0
 512 1201 606 1202 710 1176 c 0
 804.757417103 1152.31064573 872.424083769 1104.14397906 913 1031.5 c 0
 933.666666667 994.5 944 950.333333333 944 899 c 0
EndSplineSet
EndChar

StartChar: nine
Encoding: 57 57 158
Width: 1066
VWidth: 1691
Flags: W
LayerCount: 2
Fore
SplineSet
765 1012 m 0
 717.666666667 1064.66666667 651.333333333 1092 566 1094 c 1
 473.333333333 1092 404.333333333 1064.83333333 359 1012.5 c 128
 313.666666667 960.166666667 291 888.666666667 291 798 c 128
 291 707.333333333 314.333333333 637.333333333 361 588 c 128
 407.666666667 538.666666667 476 514 566 514 c 0
 648.5 514 714.833333333 542.666666667 765 600 c 0
 810.333333333 652 833.166666667 720.333333333 833.5 805 c 128
 833.833333333 889.666666667 811 958.666666667 765 1012 c 0
875 581 m 1
 800.466666667 466.333333333 692.133333333 409 550 409 c 0
 431.935275081 409 339.101941747 444.166666667 271.5 514.5 c 0
 203.166666667 585.594276094 169 679.427609427 169 796 c 0
 169 914.034364261 201.166666667 1008.53436426 265.5 1079.5 c 0
 334.095015576 1155.16666667 434.261682243 1193 566 1193 c 0
 723.283950617 1193 837.617283951 1134 909 1016 c 0
 967.487947079 919.315842583 997.487947079 777.98250925 999 592 c 0
 999 398.505747127 957.666666667 246.172413793 875 135 c 0
 795.829059829 30.3333333333 686.829059829 -22 548 -22 c 0
 390.582582583 -22 283.082582583 32.1666666667 225.5 140.5 c 0
 208.666204986 172.170360111 196.499538319 218.003693444 189 278 c 1
 312 278 l 1
 333.555555555 148.666666667 410.555555555 84 543 84 c 0
 721.029962547 84 826.696629213 198 860 426 c 0
 867.333333333 480 872.333333333 531.666666667 875 581 c 1
EndSplineSet
EndChar

StartChar: uni0622
Encoding: 1570 1570 159
Width: 309
VWidth: 1600
Flags: HMW
AnchorPoint: "Anchor-5" 162 1430 basechar 0
AnchorPoint: "Anchor-3" 153 -149 basechar 0
LayerCount: 2
Fore
SplineSet
465 1267 m 1
 547 1167 l 1
 467 1083 386 1040 254 1040 c 0
 105 1040 81 1088 18 1088 c 0
 -33 1088 -84 1024 -129 979 c 1
 -220 1070 l 1
 -156 1134 -89 1216 15 1216 c 0
 89 1216 154 1168 252 1168 c 0
 350 1168 407 1209 465 1267 c 1
90 946 m 1
 218 946 l 1
 218 0 l 1
 90 0 l 1
 90 946 l 1
EndSplineSet
Validated: 1
PairPos2: "'kern' Horizontal Kerning lookup 6 subtable 3" uni063A dx=-211 dy=0 dh=-211 dv=0 dx=0 dy=0 dh=0 dv=0
PairPos2: "'kern' Horizontal Kerning lookup 6 subtable 3" uni0639 dx=-211 dy=0 dh=-211 dv=0 dx=0 dy=0 dh=0 dv=0
PairPos2: "'kern' Horizontal Kerning lookup 6 subtable 2" uniFEFB dx=240 dy=0 dh=240 dv=0 dx=0 dy=0 dh=0 dv=0
PairPos2: "'kern' Horizontal Kerning lookup 6 subtable 2" uniFEF9 dx=240 dy=0 dh=240 dv=0 dx=0 dy=0 dh=0 dv=0
PairPos2: "'kern' Horizontal Kerning lookup 6 subtable 2" uniFEF7 dx=240 dy=0 dh=240 dv=0 dx=0 dy=0 dh=0 dv=0
PairPos2: "'kern' Horizontal Kerning lookup 6 subtable 2" uniFEF5 dx=240 dy=0 dh=240 dv=0 dx=0 dy=0 dh=0 dv=0
PairPos2: "'kern' Horizontal Kerning lookup 6 subtable 2" uniFEDF dx=222 dy=0 dh=222 dv=0 dx=0 dy=0 dh=0 dv=0
PairPos2: "'kern' Horizontal Kerning lookup 6 subtable 2" uni0644 dx=242 dy=0 dh=242 dv=0 dx=0 dy=0 dh=0 dv=0
PairPos2: "'kern' Horizontal Kerning lookup 6 subtable 2" uni0625 dx=163 dy=0 dh=163 dv=0 dx=0 dy=0 dh=0 dv=0
PairPos2: "'kern' Horizontal Kerning lookup 6 subtable 2" uni0623 dx=132 dy=0 dh=132 dv=0 dx=0 dy=0 dh=0 dv=0
PairPos2: "'kern' Horizontal Kerning lookup 6 subtable 2" uni0622 dx=475 dy=0 dh=475 dv=0 dx=0 dy=0 dh=0 dv=0
LCarets2: 1 0
Ligature2: "'liga' Standard Ligatures in Arabic lookup 5 subtable" uni0627 uni0653
Substitution2: "'fina' Terminal Forms in Arabic lookup 1 subtable" uniFE82
EndChar

StartChar: uni0643
Encoding: 1603 1603 178
Width: 1627
VWidth: 1600
Flags: HMW
AnchorPoint: "Anchor-5" 673 1192 basechar 0
AnchorPoint: "Anchor-3" 774 -356 basechar 0
LayerCount: 2
Fore
SplineSet
1408 359 m 0
 1408 647 1359 814 1243 1015 c 1
 1355 1080 l 1
 1479 865 1537 663 1537 359 c 0
 1537 272 1511 181 1446 112 c 0
 1378 40 1290 0 885 0 c 0
 671 0 474 2 324 56 c 0
 163 113 90 206 90 346 c 0
 90 415 107 463 124 528 c 1
 248 495 l 1
 235 446 218 393 218 345 c 0
 218 253 278 209 365 179 c 0
 496 135 713 129 951 129 c 0
 1221 129 1314 159 1352 200 c 0
 1390 241 1408 297 1408 359 c 0
EndSplineSet
Refer: 28 1620 N 1 0 0 1 600 -769 2
Validated: 1
Substitution2: "'init' Initial Forms in Arabic lookup 1 subtable" uniFEDB
Substitution2: "'medi' Medial Forms in Arabic lookup 1 subtable" uniFEDC
Substitution2: "'fina' Terminal Forms in Arabic lookup 1 subtable" uniFEDA
EndChar

StartChar: uniFEEE
Encoding: 65262 65262 205
Width: 854
VWidth: 1600
Flags: HMW
AnchorPoint: "Anchor-5" 398 836 basechar 0
AnchorPoint: "Anchor-3" 395 -738 basechar 0
LayerCount: 2
Fore
SplineSet
707 129 m 1
 764 129 821 129 878 129 c 1
 878 0 l 21
 813 0 747 0 682 0 c 1
 632 -238 444 -409 180 -512 c 1
 134 -391 l 1
 331 -313 498 -190 550 0 c 1
 405 0 l 2
 215 0 90 109 90 278 c 0
 90 456 232 645 403 645 c 0
 592 645 697 362 707 129 c 1
403 516 m 0
 313 516 219 394 219 281 c 0
 219 169 304 130 409 130 c 2
 573 130 l 1
 573 141 573 152 573 163 c 0
 573 300 489 516 403 516 c 0
EndSplineSet
Validated: 1
PairPos2: "'kern' Horizontal Kerning lookup 6 subtable 3" uni063A dx=-299 dy=0 dh=-299 dv=0 dx=0 dy=0 dh=0 dv=0
PairPos2: "'kern' Horizontal Kerning lookup 6 subtable 3" uni0639 dx=-299 dy=0 dh=-299 dv=0 dx=0 dy=0 dh=0 dv=0
EndChar

StartChar: uniFEDA
Encoding: 65242 65242 243
Width: 1729
VWidth: 1600
Flags: HMW
AnchorPoint: "Anchor-5" 806 1249 basechar 0
AnchorPoint: "Anchor-5" 1064 1836 basechar 0
AnchorPoint: "Anchor-3" 822 -267 basechar 0
AnchorPoint: "Anchor-3" 848 189 basechar 0
LayerCount: 2
Fore
SplineSet
1485 163 m 1
 1424 63 1309 0 1149 0 c 2
 829 0 l 2
 637 0 460 8 324 56 c 0
 163 113 90 206 90 346 c 0
 90 415 107 463 124 528 c 1
 248 495 l 1
 235 446 218 393 218 345 c 0
 218 253 278 209 365 179 c 0
 473 142 640 129 829 129 c 2
 1149 129 l 2
 1254 129 1314 159 1352 200 c 0
 1390 241 1408 297 1408 359 c 0
 1408 647 1359 814 1243 1015 c 1
 1355 1080 l 1
 1479 865 1548 663 1548 360 c 0
 1548 259 1598 129 1737 129 c 0
 1738 129 1738 129 1739 129 c 2
 1753 129 l 1
 1753 0 l 1
 1739 0 l 2
 1604 0 1523 66 1485 163 c 1
EndSplineSet
Refer: 28 1620 N 1 0 0 1 600 -769 2
Validated: 1
EndChar

StartChar: uniFB8F
Encoding: 64399 64399 250
Width: 1729
VWidth: 1600
Flags: HMW
AnchorPoint: "Anchor-5" 1070 1639 basechar 0
AnchorPoint: "Anchor-3" 821 -374 basechar 0
LayerCount: 2
Fore
SplineSet
1352 200 m 0
 1390 241 1408 297 1408 359 c 0
 1408 412 1394 444 1336 494 c 0
 1278 544 1174 603 1018 678 c 0
 938 716 882 783 882 864 c 0
 882 939 930 1006 1005 1055 c 2
 1622 1463 l 1
 1693 1355 l 1
 1076 947 l 2
 1024 912 1011 881 1011 862 c 0
 1011 843 1023 818 1074 794 c 0
 1214 727 1316 672 1390 616 c 0
 1527 522 1558 368 1586 269 c 0
 1600 219 1615 183 1634 163 c 0
 1653 143 1676 129 1739 129 c 3
 1745 129 1753 109 1753 86 c 2
 1753 43 l 2
 1753 18 1745 0 1739 0 c 0
 1652 0 1583 28 1539 75 c 0
 1514 102 1497 132 1485 163 c 1
 1474 145 1461 128 1446 112 c 0
 1378 40 1290 0 885 -0 c 0
 671 0 474 2 324 56 c 0
 163 113 90 206 90 346 c 0
 90 415 107 463 124 528 c 1
 248 495 l 1
 235 446 218 393 218 345 c 0
 218 253 278 209 365 179 c 0
 496 135 713 129 951 129 c 0
 1221 129 1314 159 1352 200 c 0
EndSplineSet
Validated: 1
EndChar

StartChar: uniFB90
Encoding: 64400 64400 251
Width: 954
VWidth: 1600
Flags: HMW
AnchorPoint: "Anchor-5" 272 1446 basechar 0
AnchorPoint: "Anchor-3" 357 -242 basechar 0
LayerCount: 2
Fore
SplineSet
708 359 m 0
 708 143 553 0 320 0 c 0
 209 0 97 0 -14 0 c 1
 -14 129 l 1
 97 129 209 129 320 129 c 0
 425 129 485 159 523 200 c 0
 561 241 579 297 579 359 c 0
 579 412 564 444 506 494 c 0
 448 544 345 603 189 678 c 0
 109 716 53 783 53 864 c 0
 53 939 101 1006 176 1055 c 2
 793 1463 l 1
 864 1355 l 1
 247 947 l 2
 195 912 182 881 182 862 c 0
 182 843 193 818 244 794 c 0
 404 717 514 657 590 592 c 0
 666 527 708 446 708 359 c 0
EndSplineSet
Validated: 1
EndChar

StartChar: uniFB91
Encoding: 64401 64401 252
Width: 909
VWidth: 1600
Flags: HMW
AnchorPoint: "Anchor-5" 270 1446 basechar 0
AnchorPoint: "Anchor-3" 325 -202 basechar 0
LayerCount: 2
Fore
SplineSet
656 163 m 1
 595 63 480 0 320 0 c 0
 209 0 97 0 -14 0 c 1
 -14 129 l 1
 97 129 209 129 320 129 c 0
 425 129 485 159 523 200 c 0
 561 241 579 297 579 359 c 0
 579 412 564 444 506 494 c 0
 448 544 345 603 189 678 c 0
 109 716 53 783 53 864 c 0
 53 939 101 1006 176 1055 c 2
 793 1463 l 1
 864 1355 l 1
 247 947 l 2
 195 912 182 881 182 862 c 0
 182 843 193 818 244 794 c 0
 384 727 486 672 560 616 c 1
 697 522 729 368 757 269 c 0
 771 219 785 183 804 163 c 0
 823 143 846 129 909 129 c 2
 923 129 l 1
 923 0 l 1
 909 0 l 2
 774 0 694 66 656 163 c 1
EndSplineSet
Validated: 1
EndChar

StartChar: dollar
Encoding: 36 36 258
Width: 1066
VWidth: 1687
Flags: W
LayerCount: 2
Fore
SplineSet
536 673 m 1
 536 1091 l 1
 473.989637306 1089.59067357 422.656303973 1070.59067357 382 1034 c 0
 338.666666667 995 317 946 317 887 c 0
 317 794.285714286 362.666666667 731.619047619 454 699 c 0
 480 689.666666667 507.333333333 681 536 673 c 1
633 533 m 1
 633 65 l 1
 701.171999551 66.3912652969 759.338666217 88.7245986303 807.5 132 c 0
 857.166666667 176.628019324 882 233.628019324 882 303 c 0
 882 406.405797101 831 474.739130435 729 508 c 0
 699.666666667 517.333333333 667.666666667 525.666666667 633 533 c 1
633 -163 m 1
 538 -163 l 1
 538 -35 l 1
 332.94336343 -21.0505689408 210.610030097 77.2827643925 171 260 c 1
 162 351 l 1
 287 351 l 1
 287 344 l 2
 287 268.149253731 310.166666667 204.982587065 356.5 154.5 c 0
 403.145098584 103.677728409 462.978431917 75.5110617421 536 70 c 1
 536 554 l 1
 426.544069641 579.018498368 346.210736307 611.685165035 295 652 c 0
 228.333333333 704.482269503 195 780.14893617 195 879 c 0
 195 972.298245613 229.166666667 1048.79824561 297.5 1108.5 c 0
 360.451807229 1163.5 440.618473895 1191 538 1191 c 1
 538 1293 l 1
 633 1293 l 1
 633 1190 l 1
 785.399283337 1187.79131473 887.399283337 1130.12464807 939 1017 c 0
 956.333333333 979 966.333333333 936.333333333 969 889 c 1
 969 881 l 1
 845 881 l 1
 845 888 l 2
 845 944.333333333 824 992 782 1031 c 0
 744.223449969 1064.86863106 694.556783303 1083.20196439 633 1086 c 1
 633 653 l 1
 688.333333333 639.666666667 738.833333333 625.5 784.5 610.5 c 128
 830.166666667 595.5 869.166666667 574.666666667 901.5 548 c 0
 969.833333333 491.642611684 1004 404.309278351 1004 286 c 0
 1004 192.114285714 964.5 113.947619047 885.5 51.5 c 0
 816.234265734 -3.25291375293 732.067599067 -32.0862470863 633 -35 c 1
 633 -163 l 1
EndSplineSet
EndChar

StartChar: ampersand
Encoding: 38 38 259
Width: 1249
VWidth: 1693
Flags: W
LayerCount: 2
Fore
SplineSet
584 765 m 1
 616 784.333333333 648.333333333 805.5 681 828.5 c 128
 713.666666667 851.5 736.5 877.666666667 749.5 907 c 0
 773.917311752 962.095472672 772.750645085 1010.76213934 746 1053 c 256
 718.4 1099 675.733333333 1122 618 1122 c 0
 578.370370371 1122 546.796296297 1112.66666667 523.277777778 1094 c 0
 482.425925926 1061.57585302 462 1024.90918635 462 984 c 0
 462 934.583333333 502.666666667 861.583333333 584 765 c 1
542 628 m 1
 437.555555555 576.888888889 367.555555555 506.888888889 332 418 c 0
 320 388 314 355 314 319 c 0
 314 245.444444445 339.333333333 185.444444445 390 139 c 256
 438.787878788 93 498.818181818 70 570.090909091 70 c 128
 641.363636364 70 701.166666667 84.3333333333 749.5 113 c 128
 797.833333333 141.666666667 841.666666667 179 881 225 c 1
 542 628 l 1
1105 554 m 1
 1100.27143669 423.176414916 1072.60477002 317.843081583 1022 238 c 1
 1226 -4 l 1
 1071 -4 l 1
 956 136 l 1
 904 75.3333333333 847.5 31.5 786.5 4.5 c 128
 725.5 -22.5 661 -36 593 -36 c 0
 470 -36 371.666666667 -2 298 66 c 256
 222.666666667 134.226415095 185 223.226415095 185 333 c 0
 185 495.533333333 280.333333333 621.866666667 471 712 c 1
 440.333333333 748.666666667 411.833333333 788.833333333 385.5 832.5 c 128
 359.166666667 876.166666667 346 921.833333333 346 969.5 c 0
 346 1095.67948718 403.666666667 1176.51282051 519 1212 c 0
 553 1222.66666667 588.833333333 1228 626.5 1228 c 0
 704.166666667 1228 767 1204 815 1156 c 256
 864.333333333 1108.11764706 889 1051.11764706 889 985 c 0
 889 883.222222222 838.333333333 798.555555555 737 731 c 0
 709.666666667 713 681.666666667 695.333333333 653 678 c 1
 946 330 l 1
 976 385.555555555 991 460.555555555 991 555 c 2
 991 562 l 1
 1105 562 l 1
 1105 554 l 1
EndSplineSet
EndChar

StartChar: quoteright
Encoding: 8217 8217 260
Width: 416
VWidth: 1785
Flags: W
LayerCount: 2
Fore
SplineSet
307 1113 m 2
 307 1061.66666667 295 1020.33333333 271 989 c 256
 244.196581197 954.006647673 210.52991453 932.006647673 170 923 c 1
 170 999 l 1
 185.6875 1009.45833333 199.109375 1021.90625 210.265625 1036.34375 c 128
 221.421875 1050.78125 227 1074 227 1106 c 2
 227 1156 l 1
 170 1156 l 1
 170 1320 l 1
 307 1320 l 1
 307 1113 l 2
EndSplineSet
EndChar

StartChar: plus
Encoding: 43 43 261
Width: 1232
VWidth: 1657
Flags: W
LayerCount: 2
Fore
SplineSet
618 820 m 1
 733 820 l 1
 733 447 l 1
 1106 447 l 1
 1106 333 l 1
 733 333 l 1
 733 -40 l 1
 618 -40 l 1
 618 333 l 1
 246 333 l 1
 246 447 l 1
 618 447 l 1
 618 820 l 1
EndSplineSet
EndChar

StartChar: comma
Encoding: 44 44 262
Width: 519
VWidth: 1558
Flags: W
LayerCount: 2
Fore
SplineSet
352 -181 m 2
 352 -232.333333333 340 -273.666666667 316 -305 c 256
 292 -336.333333333 261.333333333 -357.666666667 224 -369 c 1
 215 -373 l 1
 215 -296 l 1
 230.696969697 -285.535353535 244.287878788 -272.919191919 255.772727273 -258.151515152 c 128
 267.257575758 -243.383838384 273 -220.333333333 273 -189 c 2
 273 -138 l 1
 215 -138 l 1
 215 25 l 1
 352 25 l 1
 352 -181 l 2
EndSplineSet
EndChar

StartChar: semicolon
Encoding: 59 59 263
Width: 519
VWidth: 1631
Flags: W
LayerCount: 2
Fore
SplineSet
215 617 m 1
 215 780 l 1
 352 780 l 1
 352 617 l 1
 215 617 l 1
352 -109 m 2
 352 -160.333333333 340 -201.333333333 316 -232 c 256
 292.457142857 -262.736507937 258.790476191 -285.403174603 215 -300 c 1
 215 -224 l 1
 230.696969697 -213.535353535 244.287878788 -200.919191919 255.772727273 -186.151515152 c 128
 267.257575758 -171.383838384 273 -148 273 -116 c 2
 273 -66 l 1
 215 -66 l 1
 215 97 l 1
 352 97 l 1
 352 -109 l 2
EndSplineSet
EndChar

StartChar: question
Encoding: 63 63 264
Width: 936
VWidth: 1700
Flags: W
LayerCount: 2
Fore
SplineSet
439 3 m 1
 439 166 l 1
 577 166 l 1
 577 3 l 1
 439 3 l 1
449 318 m 1
 447.666666667 380.666666667 452 437.833333333 462 489.5 c 128
 472 541.166666667 499.333333333 590.333333333 544 637 c 0
 568.666666667 663 594.5 688.5 621.5 713.5 c 0
 683.359405941 770.777227723 724.240924092 816.846534653 744.144554455 851.707920792 c 128
 764.048184818 886.569306931 774 919 774 949 c 0
 774 1009.74747475 751.666666667 1059.74747475 707 1099 c 256
 659.965517241 1140.33333333 596.632183908 1161 517 1161 c 128
 437.358974359 1161 374.692307692 1134 329 1080 c 256
 284.345553293 1026.97284453 263.345553293 961.306177867 266 883 c 1
 266 875 l 1
 149 875 l 1
 141.121693122 930.148148148 147.121693122 984.481481481 167 1038 c 256
 201.96004328 1133.46781049 268.293376613 1200.46781049 366 1239 c 256
 413.333333333 1257 465.333333333 1266 522 1266 c 0
 637.054263566 1266 728.387596899 1236.33333333 796 1177 c 256
 862.666666667 1118.66666667 896 1040 896 941 c 0
 896 890.333333333 884.833333333 846.833333333 862.5 810.5 c 128
 840.166666667 774.166666667 813.166666667 740.833333333 781.5 710.5 c 128
 749.833333333 680.166666667 717 649.5 683 618.5 c 0
 607.983482587 550.102587065 568.650149254 484.269253731 565 421 c 0
 563 385.666666667 561.666666667 351.333333333 561 318 c 1
 561 311 l 1
 449 311 l 1
 449 318 l 1
EndSplineSet
EndChar

StartChar: at
Encoding: 64 64 265
Width: 1494
VWidth: 1696
Flags: W
LayerCount: 2
Fore
SplineSet
668 749 m 0
 614.666666667 661.072072072 588 575.572072072 588 492.5 c 0
 588 454.166666667 598.666666667 420 620 390 c 128
 641.333333333 360 671.333333333 345 710 345 c 128
 748.666666667 345 784.333333333 360.333333333 817 391 c 0
 884.69122807 454.546867168 933.357894737 538.546867168 963 643 c 256
 992.652173913 742.739130435 989.652173913 813.405797101 954 855 c 0
 934 878.333333333 905 890 867 890 c 128
 829 890 792.5 876.666666667 757.5 850 c 128
 722.5 823.333333333 692.666666667 789.666666667 668 749 c 0
885 304 m 1
 826.960784314 250.666666667 760.960784314 224 687 224 c 256
 613.126126126 224 554.126126126 250.333333333 510 303 c 256
 436.951848084 387.830111903 425.618514751 507.496778569 476 662 c 256
 520.364795919 792.232142857 593.698129252 889.898809524 696 955 c 0
 748 987.666666667 800.5 1004 853.5 1004 c 0
 951.106060606 1004 1019.60606061 970.666666667 1059 904 c 1
 1080 965 l 1
 1081 970 l 1
 1209 970 l 1
 1035 451 l 2
 1013.11965812 387.547008547 1010.11965812 347.880341881 1026 332 c 0
 1032 326 1046.83333333 323 1070.5 323 c 128
 1094.16666667 323 1122 335.666666667 1154 361 c 0
 1220.8263119 413.904163587 1268.49297857 489.904163587 1297 589 c 256
 1311.66666667 637 1319 688.833333333 1319 744.5 c 128
 1319 800.166666667 1306.33333333 855 1281 909 c 256
 1230.08314529 1016.05595093 1145.74981195 1091.05595093 1028 1134 c 256
 971.333333333 1154 908 1164 838 1164 c 128
 768 1164 700.333333333 1149.33333333 635 1120 c 256
 504.900268883 1061.58787583 412.900268883 962.587875827 359 823 c 256
 333 755.666666667 320 684 320 608 c 256
 320 456.083333333 371 328.416666667 473 225 c 256
 577.547945205 119 703.547945205 66 851 66 c 0
 983.6984127 66 1102.03174603 109.666666667 1206 197 c 256
 1238.66666667 225 1267.66666667 257 1293 293 c 1
 1296 296 l 1
 1411 296 l 1
 1373.16260163 232.937669377 1337.49593496 184.937669377 1304 152 c 256
 1179.25423729 29.3333333333 1028.25423729 -32 851 -32 c 0
 669.569288389 -32 515.902621723 31.6666666667 390 159 c 256
 332 218.333333333 286.333333333 287.666666667 253 367 c 256
 219.666666667 446.333333333 203.333333333 530.666666667 204 620 c 0
 204 709.333333333 221 793 255 871 c 256
 324.116675739 1029.56178552 438.450009073 1143.22845219 598 1212 c 256
 675.333333333 1245.33333333 756.333333333 1262 841 1262 c 0
 1010.48148148 1262 1150.81481481 1211.33333333 1262 1110 c 256
 1376.66666667 1006.8 1434 877.133333333 1434 721 c 0
 1434 590.321637427 1390.33333333 473.65497076 1303 371 c 256
 1265 325.666666667 1222.16666667 289.333333333 1174.5 262 c 128
 1126.83333333 234.666666667 1084 221 1046 221 c 0
 964.308943089 221 910.642276423 248.666666667 885 304 c 1
EndSplineSet
EndChar

StartChar: A
Encoding: 65 65 266
Width: 1274
VWidth: 1696
Flags: W
LayerCount: 2
Fore
SplineSet
701 1105 m 1
 468 494 l 1
 935 494 l 1
 701 1105 l 1
145 -0 m 1
 634 1224 l 1
 777 1224 l 1
 1251 10 l 1
 1254 -0 l 1
 1121 -0 l 1
 980 382 l 1
 423 382 l 1
 280 4 l 1
 278 -0 l 1
 145 -0 l 1
EndSplineSet
EndChar

StartChar: B
Encoding: 66 66 267
Width: 1278
VWidth: 1696
Flags: W
LayerCount: 2
Fore
SplineSet
390 1111 m 1
 390 693 l 1
 679 693 l 2
 848.066666667 693 949.4 735 983 819 c 0
 993 846.333333333 998 878.166666667 998 914.5 c 0
 998 986.67948718 973 1037.51282051 923 1067 c 0
 868.405516432 1097.62617371 778.405516432 1112.29284037 653 1111 c 1
 390 1111 l 1
390 582 m 1
 390 112 l 1
 680 112 l 2
 820.266666667 112 915.6 126 966 154 c 0
 1024.66666667 187.333333333 1054 252.666666667 1054 350 c 0
 1054 442.637681159 1022.66666667 505.304347826 960 538 c 0
 907.669625247 565.83530572 819.336291913 580.501972387 695 582 c 1
 390 582 l 1
1183 343 m 0
 1183 109.666666667 1046.33333333 -7 773 -7 c 2
 261 -7 l 1
 261 1224 l 1
 714 1224 l 2
 924.631578947 1224 1054.96491228 1162 1105 1038 c 0
 1120.33333333 999.333333333 1128 957.5 1128 912.5 c 128
 1128 867.5 1122.16666667 829 1110.5 797 c 0
 1081.84384718 718.400266548 1029.01051385 668.733599881 952 648 c 1
 1026 632.666666667 1083 598.666666667 1123 546 c 128
 1163 493.333333333 1183 425.666666667 1183 343 c 0
EndSplineSet
EndChar

StartChar: C
Encoding: 67 67 268
Width: 1376
VWidth: 1696
Flags: W
LayerCount: 2
Fore
SplineSet
1144 856 m 1
 1143 862 l 1
 1119.66666667 963.333333333 1076.66666667 1035.66666667 1014 1079 c 0
 949.333333333 1122.33333333 872.333333333 1144 783 1144 c 128
 693.666666667 1144 622.5 1129.5 569.5 1100.5 c 0
 415.833333333 1016.41823899 339 853.251572327 339 611 c 0
 339 366.248995984 413 202.415662651 561 119.5 c 0
 616.333333333 88.5 678 73 746 73 c 0
 914.527777778 73 1034.36111111 138.666666667 1105.5 270 c 0
 1127.16666667 310 1143.66666667 354 1155 402 c 1
 1157 407 l 1
 1291 407 l 1
 1225.30035336 111.351590106 1044.30035336 -37.648409894 748 -40 c 0
 565.123595505 -40 426.456928839 24.6666666667 332 154 c 0
 251.466731463 265.99157656 210.466731463 417.324909893 209 608 c 0
 209 828.857142857 264 995.357142857 374 1107.5 c 0
 471.856741573 1207.26304173 610.856741573 1256.4297084 791 1255 c 0
 995.904109587 1255 1138.90410959 1181 1220 1033 c 0
 1251.21951219 976.024390244 1270.21951219 917.024390244 1277 856 c 1
 1144 856 l 1
EndSplineSet
EndChar

StartChar: D
Encoding: 68 68 269
Width: 1381
VWidth: 1696
Flags: W
LayerCount: 2
Fore
SplineSet
400 1111 m 1
 400 105 l 1
 673 105 l 2
 725.666666667 105 775.166666667 108 821.5 114 c 128
 867.833333333 120 913.166666667 134.166666667 957.5 156.5 c 128
 1001.83333333 178.833333333 1037 206.666666667 1063 240 c 0
 1130.33333333 332.140350877 1164 455.473684211 1164 610 c 0
 1164 713.942028985 1153.5 793.760869565 1132.5 849.456521739 c 128
 1111.5 905.152173913 1087.66666667 949.666666667 1061 983 c 0
 1006.84070796 1050.69911505 928.507374631 1090.69911505 826 1103 c 0
 775.333333333 1109 724.333333333 1111.66666667 673 1111 c 1
 400 1111 l 1
271 -7 m 1
 271 1224 l 1
 699 1224 l 2
 828.50877193 1224 928.342105263 1209.66666667 998.5 1181 c 0
 1118.52591944 1131.9571512 1202.85925277 1033.9571512 1251.5 887 c 0
 1279.16666667 803.411347518 1293 710.911347518 1293 609.5 c 0
 1293 404.717054263 1243.66666667 249.550387597 1145 144 c 1
 1051.91511792 40.0912944245 903.248451253 -10.2420389088 699 -7 c 1
 271 -7 l 1
EndSplineSet
EndChar

StartChar: E
Encoding: 69 69 270
Width: 1176
VWidth: 1696
Flags: W
LayerCount: 2
Fore
SplineSet
254 -0 m 1
 254 1224 l 1
 1092 1224 l 1
 1092 1111 l 1
 383 1111 l 1
 383 693 l 1
 1024 693 l 1
 1024 582 l 1
 383 582 l 1
 383 112 l 1
 1108 112 l 1
 1108 -0 l 1
 254 -0 l 1
EndSplineSet
EndChar

StartChar: F
Encoding: 70 70 271
Width: 1076
VWidth: 1696
Flags: W
LayerCount: 2
Fore
SplineSet
235 -0 m 1
 235 1224 l 1
 1048 1224 l 1
 1048 1111 l 1
 364 1111 l 1
 364 693 l 1
 986 693 l 1
 986 582 l 1
 364 582 l 1
 364 -0 l 1
 235 -0 l 1
EndSplineSet
EndChar

StartChar: G
Encoding: 71 71 272
Width: 1476
VWidth: 1696
Flags: W
LayerCount: 2
Fore
SplineSet
796 530 m 1
 796 643 l 1
 1337 643 l 1
 1337 -0 l 1
 1225 -0 l 1
 1225 190 l 1
 1154.24464154 81.3399852181 1057.91130821 13.0066518847 936 -15 c 0
 887.333333333 -26.3333333333 827.666666667 -32 757 -32 c 128
 686.333333333 -32 617 -18.3333333333 549 9 c 128
 481 36.3333333333 423.166666667 77.1666666667 375.5 131.5 c 0
 274.5 246.625874126 224 410.125874126 224 622 c 0
 224 810.741784037 270.333333333 960.908450704 363 1072.5 c 0
 464.033138401 1194.16666667 610.033138401 1255 801 1255 c 0
 1012.75342466 1255 1164.42009133 1182.33333333 1256 1037 c 0
 1285.63681592 989.967661691 1308.63681592 929.634328358 1325 856 c 1
 1193 856 l 1
 1191 862 l 1
 1170.91507431 950.373673036 1125.24840764 1019.70700637 1054 1070 c 0
 984.111111111 1119.33333333 905.805555556 1144 819.083333333 1144 c 0
 508.361111111 1144 353 954.666666667 353 576 c 0
 353 436.285714286 391 320.285714286 467 228 c 0
 549.705882353 129.333333333 658.705882353 80 794 80 c 0
 911.783333333 80 1010.45 117 1090 191 c 0
 1166.62490566 263.976100629 1207.29157233 376.976100629 1212 530 c 1
 796 530 l 1
EndSplineSet
EndChar

StartChar: H
Encoding: 72 72 273
Width: 1376
VWidth: 1696
Flags: W
LayerCount: 2
Fore
SplineSet
265 -0 m 1
 265 1224 l 1
 394 1224 l 1
 394 709 l 1
 1114 709 l 1
 1114 1224 l 1
 1243 1224 l 1
 1243 -0 l 1
 1114 -0 l 1
 1114 596 l 1
 394 596 l 1
 394 -0 l 1
 265 -0 l 1
EndSplineSet
EndChar

StartChar: I
Encoding: 73 73 274
Width: 533
VWidth: 1696
Flags: W
LayerCount: 2
Fore
SplineSet
227 -7 m 1
 227 1224 l 1
 356 1224 l 1
 356 -7 l 1
 227 -7 l 1
EndSplineSet
EndChar

StartChar: J
Encoding: 74 74 275
Width: 951
VWidth: 1693
Flags: W
LayerCount: 2
Fore
SplineSet
244 389 m 1
 244 382 l 2
 244 283.238095238 252.333333333 216.214285714 269 180.928571429 c 128
 285.666666667 145.642857143 308.5 119.333333333 337.5 102 c 128
 366.5 84.6666666667 415.166666667 76 483.5 76 c 128
 551.833333333 76 601.5 97.8333333333 632.5 141.5 c 128
 663.5 185.166666667 679 249 679 333 c 2
 679 1221 l 1
 808 1221 l 1
 808 329 l 2
 808 209 779.833333333 117 723.5 53 c 128
 667.166666667 -11 576 -43 450 -43 c 0
 264.718614719 -43 157.051948052 46 127 224 c 0
 119 274.666666667 115 327.333333333 115 382 c 2
 115 389 l 1
 244 389 l 1
EndSplineSet
EndChar

StartChar: K
Encoding: 75 75 276
Width: 1286
VWidth: 1696
Flags: W
LayerCount: 2
Fore
SplineSet
275 -7 m 1
 275 1224 l 1
 404 1224 l 1
 404 604 l 1
 1032 1224 l 1
 1182 1224 l 1
 685 731 l 1
 1264 -7 l 1
 1106 -7 l 1
 590 650 l 1
 404 466 l 1
 404 -7 l 1
 275 -7 l 1
EndSplineSet
EndChar

StartChar: L
Encoding: 76 76 277
Width: 1077
VWidth: 1696
Flags: W
LayerCount: 2
Fore
SplineSet
247 -7 m 1
 247 1224 l 1
 376 1224 l 1
 376 105 l 1
 1043 105 l 1
 1043 -7 l 1
 247 -7 l 1
EndSplineSet
EndChar

StartChar: M
Encoding: 77 77 278
Width: 1583
VWidth: 1696
Flags: W
LayerCount: 2
Fore
SplineSet
281 -7 m 1
 281 1224 l 1
 469 1224 l 1
 871 160 l 1
 1265 1219 l 1
 1267 1224 l 1
 1453 1224 l 1
 1453 -7 l 1
 1324 -7 l 1
 1324 1054 l 1
 931 -3 l 1
 929 -7 l 1
 807 -7 l 1
 410 1054 l 1
 410 -7 l 1
 281 -7 l 1
EndSplineSet
EndChar

StartChar: N
Encoding: 78 78 279
Width: 1376
VWidth: 1696
Flags: W
LayerCount: 2
Fore
SplineSet
1098 -7 m 1
 392 1042 l 1
 392 -7 l 1
 263 -7 l 1
 263 1224 l 1
 403 1224 l 1
 1114 171 l 1
 1114 1224 l 1
 1243 1224 l 1
 1243 -7 l 1
 1098 -7 l 1
EndSplineSet
EndChar

StartChar: O
Encoding: 79 79 280
Width: 1481
VWidth: 1696
Flags: W
LayerCount: 2
Fore
SplineSet
1142 1001 m 0
 1060.28571429 1096.33333333 948.952380953 1144 808 1144 c 0
 658.450450451 1144 543.783783784 1089.33333333 464 980 c 0
 393.333333333 883.160493827 358 758.493827161 358 606 c 128
 358 453.506172839 395.269406393 326.549382716 469.808219178 225.12962963 c 128
 544.347031963 123.709876543 657.40333827 73 808.977138097 73 c 128
 960.550937926 73 1073.9481982 124.043209877 1149.16891892 226.12962963 c 128
 1224.38963964 328.216049383 1262 458.744785015 1262 617.715836526 c 128
 1262 776.686888037 1222 904.448275862 1142 1001 c 0
809.5 -39.5 m 128
 621.562265247 -40.1458341401 477.827831558 21.1291875113 378.296698935 144.325064954 c 128
 278.765566312 267.520942397 229 421.91958042 229 607.520979021 c 128
 229 793.122377622 278.979166667 947.435897435 378.9375 1070.46153846 c 128
 478.895833333 1193.48717949 622.575682674 1255 809.977048023 1255 c 128
 997.378413374 1255 1141.41203022 1193.55910794 1242.07789857 1070.67732382 c 128
 1342.74376692 947.795539694 1392.73058424 793.583734137 1392.03835055 608.041907149 c 128
 1391.34611685 422.500080161 1341.06638047 268.352425993 1241.19914141 145.598944644 c 128
 1141.33190234 22.8454632955 997.43218854 -38.8541849191 809.5 -39.5 c 128
EndSplineSet
EndChar

StartChar: P
Encoding: 80 80 281
Width: 1177
VWidth: 1696
Flags: W
LayerCount: 2
Fore
SplineSet
378 649 m 1
 640 649 l 2
 758.435897436 649 844.769230769 664.666666667 899 696 c 0
 959.666666667 732.682170543 990 792.352713178 990 875.011627907 c 128
 990 957.670542636 965.5 1017.83333333 916.5 1055.5 c 128
 867.5 1093.16666667 787 1111.66666667 675 1111 c 1
 378 1111 l 1
 378 649 l 1
249 -0 m 1
 249 1224 l 1
 708 1224 l 2
 929.23809524 1224 1060.23809524 1152.66666667 1101 1010 c 0
 1113 968.666666667 1119 919.666666667 1119 863 c 128
 1119 806.333333333 1104.83333333 755.666666667 1076.5 711 c 0
 1002.91791045 595 856.084577115 537 636 537 c 2
 378 537 l 1
 378 -0 l 1
 249 -0 l 1
EndSplineSet
EndChar

StartChar: Q
Encoding: 81 81 282
Width: 1479
VWidth: 1690
Flags: W
LayerCount: 2
Fore
SplineSet
937 310 m 1
 1106 184 l 1
 1203.33333333 278.702702703 1252 417.369369369 1252 600 c 0
 1252 771.866666667 1209 906.533333333 1123 1004 c 0
 1042.92899168 1091.9468452 934.262325013 1136.61351187 797 1138 c 0
 647.533333333 1138 533.2 1083 454 973 c 0
 383.333333333 874.851851852 348 750.518518519 348 600 c 0
 348 447.506172839 383.333333333 322.839506173 454 226 c 0
 533.863013699 120 649.196347032 67 800 67 c 0
 876.571428571 67 944.571428571 83 1004 115 c 1
 872 214 l 1
 867 219 l 1
 933 304 l 1
 937 310 l 1
1381 600 m 128
 1381 394.712121212 1321.33333333 231.045454545 1202 109 c 1
 1358 -10 l 1
 1364 -15 l 1
 1295 -98 l 1
 1290 -103 l 1
 1109 36 l 1
 1018.05263158 -18 919.48245614 -45 813.289473684 -45 c 128
 707.096491228 -45 617.166666667 -28 543.5 6 c 128
 469.833333333 40 409.166666667 86.5 361.5 145.5 c 0
 265.833333333 263.912587413 218 415.412587413 218 600 c 0
 218 781.333333333 264.666666667 932 358 1052 c 0
 460.148148148 1183.33333333 605.148148148 1249 793 1249 c 0
 975.464646467 1249 1118.13131313 1193.16666667 1221 1081.5 c 0
 1327.66666667 965.710526316 1381 805.210526316 1381 600 c 128
EndSplineSet
EndChar

StartChar: R
Encoding: 82 82 283
Width: 1278
VWidth: 1696
Flags: W
LayerCount: 2
Fore
SplineSet
388 664 m 1
 747 664 l 2
 888.409961686 664 981.409961686 706.166666667 1026 790.5 c 0
 1041.33333333 819.5 1049 855 1049 897 c 0
 1049 1039.66666667 950.666666667 1111 754 1111 c 2
 388 1111 l 1
 388 664 l 1
1186 22 m 1
 1186 -0 l 1
 1049 -0 l 1
 1028.83647799 30.2452830189 1016.29559748 81.6399371069 1011.37735849 154.183962264 c 128
 1006.4591195 226.727987421 1003 281.5 1001 318.5 c 128
 999 355.5 995.333333333 387.666666667 990 415 c 128
 984.666666667 442.333333333 974.833333333 465.666666667 960.5 485 c 0
 926.890804598 530.333333333 857.057471265 553 751 553 c 2
 388 553 l 1
 388 -0 l 1
 259 -0 l 1
 259 1224 l 1
 751 1224 l 2
 891 1224 997.166666667 1198.5 1069.5 1147.5 c 128
 1141.83333333 1096.5 1178 1014 1178 900 c 0
 1178 822.666666667 1162.66666667 762.166666667 1132 718.5 c 128
 1101.33333333 674.833333333 1054.66666667 637.666666667 992 607 c 1
 1077.19053877 571.030661411 1123.19053877 494.030661411 1130 376 c 0
 1132.66666667 342 1134.66666667 305.666666667 1136 267 c 0
 1140.09785933 148.162079511 1150.09785933 74.8287461774 1166 47 c 0
 1170.44444445 39.2222222222 1177.11111111 30.8888888889 1186 22 c 1
EndSplineSet
EndChar

StartChar: S
Encoding: 83 83 284
Width: 1169
VWidth: 1696
Flags: W
LayerCount: 2
Fore
SplineSet
307 370 m 1
 308 363 l 1
 315.491778774 264.358246139 351.825112107 189.691579472 417 139 c 0
 476.085714286 95 556.419047619 73 658 73 c 0
 811.484848485 73 908.818181818 123.333333333 950 224 c 0
 961.333333333 254 967 288.5 967 327.5 c 0
 967 432.229468599 889.333333333 503.729468599 734 542 c 0
 688 553.333333333 640.666666667 564.333333333 592 575 c 0
 470.208032956 601.694129763 387.260041195 631.034328871 343.156024717 663.020597322 c 128
 299.052008239 695.006865774 266 731 244 771 c 128
 222 811 211 856.833333333 211 908.5 c 128
 211 960.166666667 219.833333333 1006.16666667 237.5 1046.5 c 0
 275.234149594 1132.64777549 345.734149594 1193.14777549 449 1228 c 0
 503.666666667 1246 566.833333333 1255 638.5 1255 c 128
 710.166666667 1255 772.5 1245.33333333 825.5 1226 c 128
 878.5 1206.66666667 922.333333333 1180 957 1146 c 0
 1027.05212757 1077.29502873 1061.38546091 990.295028727 1060 885 c 1
 1060 878 l 1
 936 878 l 1
 936 885 l 2
 936 1011.59393939 874 1092.92727273 750 1129 c 0
 713.333333333 1139 670.666666667 1144 622 1144 c 128
 573.333333333 1144 528.5 1135.83333333 487.5 1119.5 c 128
 446.5 1103.16666667 414.666666667 1082.5 392 1057.5 c 0
 345.725318761 1006.46174863 328.391985428 948.295081967 340 883 c 0
 351.663167717 816.519944017 396.99650105 767.186610683 476 735 c 0
 512.666666667 720.333333333 553.333333333 708.333333333 598 699 c 0
 715.92 674.36 801.733333333 653.033333333 855.44 635.02 c 128
 909.146666667 617.006666667 952.5 595.333333333 985.5 570 c 0
 1059.16666667 513.447811448 1096 429.143097643 1096 317.085858586 c 128
 1096 205.028619529 1056.5 117.666666667 977.5 55 c 128
 898.5 -7.66666666667 785.333333333 -39.3333333333 638 -40 c 0
 424.232662193 -40 283.399328859 35.5 215.5 186.5 c 0
 193.166666667 236.166666667 182 295 182 363 c 2
 182 370 l 1
 307 370 l 1
EndSplineSet
EndChar

StartChar: T
Encoding: 84 84 285
Width: 1066
VWidth: 1696
Flags: W
LayerCount: 2
Fore
SplineSet
127 1224 m 1
 1041 1224 l 1
 1041 1111 l 1
 651 1111 l 1
 651 -7 l 1
 517 -7 l 1
 517 1111 l 1
 127 1111 l 1
 127 1224 l 1
EndSplineSet
EndChar

StartChar: U
Encoding: 85 85 286
Width: 1376
VWidth: 1693
Flags: W
LayerCount: 2
Fore
SplineSet
1240 454 m 2
 1240 122.666666667 1077.66666667 -43 753 -43 c 0
 587 -43 464.666666667 0.5 386 87.5 c 128
 307.333333333 174.5 268 296.666666667 268 454 c 2
 268 1221 l 1
 397 1221 l 1
 397 488 l 2
 397 339.333333333 424.666666667 232.333333333 480 167 c 0
 536 102.333333333 627 70 753 70 c 0
 886.692307692 70 979.692307692 104 1032 172 c 0
 1082.63129565 236.215301807 1108.63129565 341.54863514 1110 488 c 1
 1110 1221 l 1
 1240 1221 l 1
 1240 454 l 2
EndSplineSet
EndChar

StartChar: V
Encoding: 86 86 287
Width: 1169
VWidth: 1696
Flags: W
LayerCount: 2
Fore
SplineSet
140 1224 m 1
 275 1224 l 1
 644 157 l 1
 1009 1219 l 1
 1011 1224 l 1
 1145 1224 l 1
 715 -2 l 1
 713 -7 l 1
 573 -7 l 1
 143 1214 l 1
 140 1224 l 1
EndSplineSet
EndChar

StartChar: W
Encoding: 87 87 288
Width: 1688
VWidth: 1696
Flags: W
LayerCount: 2
Fore
SplineSet
997 1224 m 1
 1274 185 l 1
 1536 1219 l 1
 1538 1224 l 1
 1671 1224 l 1
 1348 -2 l 1
 1346 -7 l 1
 1206 -7 l 1
 924 1053 l 1
 643 -2 l 1
 642 -7 l 1
 502 -7 l 1
 186 1215 l 1
 183 1224 l 1
 313 1224 l 1
 573 185 l 1
 853 1219 l 1
 855 1224 l 1
 997 1224 l 1
EndSplineSet
EndChar

StartChar: X
Encoding: 88 88 289
Width: 1169
VWidth: 1696
Flags: W
LayerCount: 2
Fore
SplineSet
1002 -7 m 1
 644 524 l 1
 290 -4 l 1
 287 -7 l 1
 140 -7 l 1
 569 625 l 1
 164 1213 l 1
 156 1224 l 1
 307 1224 l 1
 644 718 l 1
 981 1224 l 1
 1132 1224 l 1
 724 625 l 1
 1143 4 l 1
 1150 -7 l 1
 1002 -7 l 1
EndSplineSet
EndChar

StartChar: Y
Encoding: 89 89 290
Width: 1169
VWidth: 1696
Flags: W
LayerCount: 2
Fore
SplineSet
278 1224 m 1
 639 644 l 1
 1010 1224 l 1
 1160 1224 l 1
 708 528 l 1
 708 -7 l 1
 575 -7 l 1
 575 520 l 1
 130 1224 l 1
 278 1224 l 1
EndSplineSet
EndChar

StartChar: Z
Encoding: 90 90 291
Width: 1169
VWidth: 1696
Flags: W
LayerCount: 2
Fore
SplineSet
161 -7 m 1
 161 99 l 1
 948 1111 l 1
 227 1111 l 1
 227 1224 l 1
 1111 1224 l 1
 1111 1118 l 1
 326 105 l 1
 1116 105 l 1
 1116 -7 l 1
 161 -7 l 1
EndSplineSet
EndChar

StartChar: bracketleft
Encoding: 91 91 292
Width: 628
VWidth: 1665
Flags: W
LayerCount: 2
Fore
SplineSet
213 -354 m 1
 213 1232 l 1
 551 1232 l 1
 551 1133 l 1
 336 1133 l 1
 336 -255 l 1
 547 -255 l 1
 547 -354 l 1
 213 -354 l 1
EndSplineSet
EndChar

StartChar: backslash
Encoding: 92 92 293
Width: 518
VWidth: 1683
Flags: W
LayerCount: 2
Fore
SplineSet
23 1250 m 1
 132 1250 l 1
 530 -156 l 1
 532 -165 l 1
 423 -165 l 1
 25 1241 l 1
 23 1250 l 1
EndSplineSet
EndChar

StartChar: bracketright
Encoding: 93 93 294
Width: 614
VWidth: 1665
Flags: W
LayerCount: 2
Fore
SplineSet
469 -354 m 1
 131 -354 l 1
 131 -255 l 1
 346 -255 l 1
 346 1133 l 1
 135 1133 l 1
 135 1232 l 1
 469 1232 l 1
 469 -354 l 1
EndSplineSet
EndChar

StartChar: asciicircum
Encoding: 94 94 295
Width: 1232
VWidth: 1736
Flags: W
LayerCount: 2
Fore
SplineSet
230 454 m 1
 626 1234 l 1
 722 1234 l 1
 1120 454 l 1
 1007 454 l 1
 673 1108 l 1
 344 454 l 1
 230 454 l 1
EndSplineSet
EndChar

StartChar: quoteleft
Encoding: 8216 8216 296
Width: 412
VWidth: 1785
Flags: W
LayerCount: 2
Fore
SplineSet
147 1131 m 2
 147 1182.33333333 159 1223.66666667 183 1255 c 256
 210.282051282 1290.61823362 244.282051282 1312.95156695 285 1322 c 1
 285 1246 l 1
 269.303030303 1235.53535353 255.712121212 1222.91919192 244.227272727 1208.15151515 c 128
 232.742424242 1193.38383838 227 1170.33333333 227 1139 c 2
 227 1088 l 1
 285 1088 l 1
 285 925 l 1
 147 925 l 1
 147 1131 l 2
EndSplineSet
EndChar

StartChar: a
Encoding: 97 97 297
Width: 1070
VWidth: 1660
Flags: W
LayerCount: 2
Fore
SplineSet
813 293 m 2
 813 420 l 1
 758.185735513 398.781575037 680.648836057 384.643635463 580.389301634 377.586181278 c 128
 480.129767211 370.528727093 409 352.666666667 367 324 c 128
 325 295.333333333 304 252.333333333 304 195 c 0
 304 147.235294117 322.5 109.568627451 359.5 82 c 0
 416.477770293 39.5459750758 499.977770293 32.5459750758 610 61 c 0
 692.212778259 82.261925412 751.212778259 122.928592079 787 183 c 0
 804.333333333 213.666666667 813 250.333333333 813 293 c 2
815 73 m 1
 724.903225807 -15.6666666667 614.569892473 -60 484 -60 c 0
 348.666666667 -60 256 -12 206 84 c 0
 189.333333333 116 181 153.333333333 181 196 c 0
 181.666666667 347.333333333 287 437 497 465 c 1
 643 483 l 1
 704.825396825 489.182539683 750.492063492 498.515873016 780 511 c 0
 802 520.565217391 813 549.289855072 813 597.173913043 c 128
 813 645.057971014 796.666666667 685 764 717 c 0
 730.666666667 748.333333333 674.333333333 764 595 764 c 0
 516.454545455 764 457.787878788 750.666666667 419 724 c 0
 374.418803419 693.350427351 347.752136752 643.017094017 339 573 c 1
 339 566 l 1
 221 566 l 1
 222 574 l 1
 228.285559469 673.31183961 267.285559469 749.31183961 339 802 c 0
 402.466666667 847.333333333 488.133333333 870 596 870 c 0
 753.481481481 870 855.814814815 821 903 723 c 0
 920.333333333 687 929 643.333333333 929 592 c 2
 929 119 l 2
 929 82.3333333333 935 59.6666666667 947 51 c 0
 958.578947369 42.6374269006 987.912280702 46.3040935673 1035 62 c 1
 1035 -32 l 1
 995 -43 l 2
 979 -47.6666666667 963.166666667 -50 947.5 -50 c 128
 931.833333333 -50 915.5 -48.5 898.5 -45.5 c 128
 881.5 -42.5 867.666666667 -36.5 857 -27.5 c 0
 832.296912114 -6.6567695962 818.296912114 26.8432304038 815 73 c 1
EndSplineSet
EndChar

StartChar: b
Encoding: 98 98 298
Width: 1173
VWidth: 1694
Flags: W
LayerCount: 2
Fore
SplineSet
958 412 m 1
 964.573481117 589.483990148 910.90681445 708.150656815 797 768 c 0
 757.666666667 788 713 798 663 798 c 0
 568.805555555 798 495.256944444 763.684684685 442.354166667 695.054054054 c 128
 389.451388889 626.423423423 363 540.13963964 363 436.202702703 c 128
 363 332.265765766 388.5 246.747747748 439.5 179.648648649 c 128
 490.5 112.54954955 562.184313725 79 654.552941176 79 c 128
 746.921568627 79 820.588235294 108.569620253 875.552941176 167.708860759 c 128
 930.517647059 226.848101266 958 308.278481013 958 412 c 1
363 -3 m 1
 247 -3 l 1
 247 1221 l 1
 363 1221 l 1
 363 757 l 1
 395 802.333333333 438.666666667 838 494 864 c 128
 549.333333333 890 611.166666667 903.166666667 679.5 903.5 c 0
 810.603685703 904.139530174 911.770352369 856.972863507 983 762 c 0
 1047.66666667 677.537414966 1080 568.870748299 1080 436 c 0
 1080 220.49122807 1007 78.1578947367 861 9 c 0
 809 -15 756.666666667 -27 704 -27 c 0
 580.121212121 -27 482.121212121 7 410 75 c 0
 392 92.3333333333 376.333333333 112.333333333 363 135 c 1
 363 -3 l 1
EndSplineSet
EndChar

StartChar: c
Encoding: 99 99 299
Width: 1066
VWidth: 1660
Flags: W
LayerCount: 2
Fore
SplineSet
596 46 m 0
 749.222222222 46 838.888888889 124.333333333 865 281 c 1
 987 281 l 1
 981.724505327 233.520547945 967.905631659 187.650684932 945.543378995 143.390410959 c 0
 877.035477123 7.796803653 760.521017458 -60 596 -60 c 0
 453.935483871 -60 347.602150537 -15.3333333333 277 74 c 0
 211.666666667 155.013333333 179 264.68 179 403 c 0
 179 532.080906149 213.833333333 640.247572815 283.5 727.5 c 0
 359.352713178 822.5 463.519379845 870 596 870 c 0
 816.051282051 870 941.717948718 768.333333333 973 565 c 1
 974 556 l 1
 857 556 l 1
 856 562 l 1
 818.125 696.666666667 731.458333333 764 596 764 c 0
 496.366013072 764 420.699346405 726.333333333 369 651 c 0
 323.666666667 583.647619047 301 500.980952381 301 403 c 0
 301 241.071428571 353.333333333 132.071428571 458 76 c 0
 496 56 542 46 596 46 c 0
EndSplineSet
EndChar

StartChar: d
Encoding: 100 100 300
Width: 1165
VWidth: 1694
Flags: W
LayerCount: 2
Fore
SplineSet
750 107 m 0
 859.812636165 161.906318083 915.812636165 273.572984749 918 442 c 0
 918 542.177777778 892.166666667 625.677777778 840.5 692.5 c 0
 786.118556701 762.833333333 713.285223368 798 622 798 c 0
 519.257861635 798 441.591194969 760.333333333 389 685 c 0
 339.540332907 613.558258643 317.540332907 522.558258643 323 412 c 1
 323 307.561181435 350.833333333 225.394514768 406.5 165.5 c 0
 460.096078431 107.833333333 531.929411765 79 622 79 c 0
 670 79 712.666666667 88.3333333333 750 107 c 0
918 1221 m 1
 1033 1221 l 1
 1033 -3 l 1
 918 -3 l 1
 918 135 l 1
 875.329376855 62.4599406528 802.996043521 12.6266073195 701 -14.5 c 0
 669.666666667 -22.8333333333 627.666666667 -27 575 -27 c 128
 522.333333333 -27 470.5 -15 419.5 9 c 0
 273.166666667 77.862745098 200 220.196078431 200 436 c 0
 200 568.870748299 232.333333333 677.537414966 297 762 c 0
 369.479166667 856.666666667 471.8125 904 604 904 c 0
 670 904 730.666666667 890.666666667 786 864 c 128
 841.333333333 837.333333333 885.333333333 801.333333333 918 756 c 1
 918 1221 l 1
EndSplineSet
EndChar

StartChar: e
Encoding: 101 101 301
Width: 1066
VWidth: 1660
Flags: W
LayerCount: 2
Fore
SplineSet
299 476 m 1
 869 476 l 1
 866.719567881 608.265062925 815.386234547 696.598396258 715 741 c 0
 679.666666667 756.333333333 639 764 593 764 c 0
 465.364779874 764 376.364779874 703.333333333 326 582 c 0
 312.666666667 548.666666667 303.666666667 513.333333333 299 476 c 1
992 378 m 1
 298 378 l 1
 300.312717537 225.36064257 354.979384203 123.693975903 462 73 c 0
 500 55 548.333333333 46 607 46 c 128
 665.666666667 46 718.666666667 63 766 97 c 0
 817.809523809 135.857142857 848.809523809 185.857142857 859 247 c 1
 987 247 l 1
 968.904761905 192.714285714 950.547619048 148.976190476 931.928571429 115.785714286 c 0
 865.172738718 -3.21381358927 752.196548242 -61.8090516846 593 -60 c 0
 450.935483871 -60 344.602150537 -15.3333333333 274 74 c 0
 208.666666667 155.013333333 176 264.013333333 176 401 c 0
 176 533.488888889 212.166666667 643.822222222 284.5 732 c 0
 359.96875 824 462.0859375 870 590.8515625 870 c 128
 719.6171875 870 819 828.333333333 889 745 c 128
 959 661.666666667 993.333333333 541.666666667 992 385 c 1
 992 378 l 1
EndSplineSet
EndChar

StartChar: f
Encoding: 102 102 302
Width: 533
VWidth: 1699
Flags: W
LayerCount: 2
Fore
SplineSet
498 1133 m 1
 476 1140.33333333 453 1144 429 1144 c 0
 385.424242424 1144 357.090909091 1128 344 1096 c 0
 334.666666667 1072.14814815 330 1035.48148148 330 986 c 2
 330 885 l 1
 498 885 l 1
 498 786 l 1
 330 786 l 1
 330 -5 l 1
 214 -5 l 1
 214 786 l 1
 83 786 l 1
 83 885 l 1
 214 885 l 1
 214 1016 l 2
 214 1087.33333333 228.5 1144.16666667 257.5 1186.5 c 128
 286.5 1228.83333333 336.333333333 1250 407 1250 c 0
 435.666666667 1250 466 1247.33333333 498 1242 c 1
 498 1133 l 1
EndSplineSet
EndChar

StartChar: g
Encoding: 103 103 303
Width: 1165
VWidth: 1625
Flags: W
LayerCount: 2
Fore
SplineSet
323 396 m 1
 316.45105406 219.178459612 369.784387393 100.511792945 483 40 c 0
 521.666666667 20 566.166666667 10 616.5 10 c 0
 710.307017544 10 784.00877193 43.9444444443 837.605263158 111.833333333 c 128
 891.201754386 179.722222222 918 265.555555556 918 369.333333333 c 128
 918 473.111111111 892.138888889 559 840.416666667 627 c 128
 788.694444444 695 716.843464052 729 624.86372549 729 c 128
 532.883986928 729 459.578431373 699.609704641 404.947058824 640.829113924 c 128
 350.315686275 582.048523207 323 500.438818565 323 396 c 1
918 811 m 1
 1033 811 l 1
 1033 19 l 2
 1033 -115.985507247 1005.66666667 -220.31884058 951 -294 c 0
 882.268817204 -384.666666667 767.935483871 -430 608 -430 c 0
 483.035087719 -430 386.201754386 -400.666666667 317.5 -342 c 0
 257.564340863 -290.818987704 226.064340863 -233.818987704 223 -171 c 1
 223 -164 l 1
 344 -164 l 1
 346 -169 l 1
 365.653635117 -252.974622771 422.653635117 -302.641289437 517 -318 c 0
 546.333333333 -322.666666667 586.5 -325 637.5 -325 c 128
 688.5 -325 734.666666667 -313.5 776 -290.5 c 0
 852.442036837 -247.963705309 897.108703503 -175.130371975 910 -72 c 0
 915.333333333 -32 918 9 918 51 c 1
 886 5.66666666667 842 -30.1666666667 786 -56.5 c 128
 730 -82.8333333333 668 -96 600 -96 c 128
 532 -96 472.666666667 -83.1666666667 422 -57.5 c 128
 371.333333333 -31.8333333333 329.666666667 2.5 297 45.5 c 0
 232.333333333 130.622448979 200 239.122448979 200 371 c 0
 200 587.175438597 273 729.842105263 419 799 c 0
 471 823 523.166666667 835 575.5 835 c 0
 734.257575757 835 848.424242424 780.333333333 918 671 c 1
 918 811 l 1
EndSplineSet
EndChar

StartChar: h
Encoding: 104 104 304
Width: 1066
VWidth: 1696
Flags: W
LayerCount: 2
Fore
SplineSet
221 -0 m 1
 221 1224 l 1
 336 1224 l 1
 336 771 l 1
 373.333333333 809 413.666666667 841 457 867 c 128
 500.333333333 893 553 906 615 906 c 0
 746.276190476 906 840.942857143 863.666666667 899 779 c 0
 921 747 934 714 938 680 c 128
 942 646 944 611 944 575 c 2
 944 -0 l 1
 828 -0 l 1
 828 573 l 2
 828 649 811.333333333 705.833333333 778 743.5 c 128
 744.666666667 781.166666667 686.333333333 800 603 800 c 0
 511.802259887 800 441.302259887 765.833333333 391.5 697.5 c 0
 361.288835507 656.047471975 344.12216884 609.214138641 340 557 c 0
 337.333333333 531.666666667 336 504 336 474 c 2
 336 -0 l 1
 221 -0 l 1
EndSplineSet
EndChar

StartChar: i
Encoding: 105 105 305
Width: 428
VWidth: 1696
Flags: W
LayerCount: 2
Fore
SplineSet
172 1059 m 1
 172 1224 l 1
 298 1224 l 1
 298 1059 l 1
 172 1059 l 1
177 -0 m 1
 177 882 l 1
 293 882 l 1
 293 -0 l 1
 177 -0 l 1
EndSplineSet
EndChar

StartChar: j
Encoding: 106 106 306
Width: 416
VWidth: 1660
Flags: W
LayerCount: 2
Fore
SplineSet
297 1022 m 1
 171 1022 l 1
 171 1187 l 1
 297 1187 l 1
 297 1022 l 1
287 -252 m 0
 276.621212121 -343.333333333 223.621212121 -389 128 -389 c 0
 98.6666666667 -389 68 -386.333333333 36 -381 c 1
 36 -277 l 1
 95.2592592593 -284.407407407 133.925925926 -279.074074074 152 -261 c 0
 169.372549019 -243.627450981 177.372549019 -212.294117647 176 -167 c 1
 176 846 l 1
 292 846 l 1
 292 -153 l 2
 292 -191 290.333333333 -224 287 -252 c 0
EndSplineSet
EndChar

StartChar: k
Encoding: 107 107 307
Width: 972
VWidth: 1696
Flags: W
LayerCount: 2
Fore
SplineSet
214 -0 m 1
 214 1224 l 1
 330 1224 l 1
 330 476 l 1
 761 880 l 1
 763 882 l 1
 922 882 l 1
 579 561 l 1
 949 11 l 1
 957 -0 l 1
 827 -0 l 1
 489 484 l 1
 330 335 l 1
 330 -0 l 1
 214 -0 l 1
EndSplineSet
EndChar

StartChar: l
Encoding: 108 108 308
Width: 428
VWidth: 1696
Flags: W
LayerCount: 2
Fore
SplineSet
177 -0 m 1
 177 1224 l 1
 293 1224 l 1
 293 -0 l 1
 177 -0 l 1
EndSplineSet
EndChar

StartChar: m
Encoding: 109 109 309
Width: 1583
VWidth: 1663
Flags: W
LayerCount: 2
Fore
SplineSet
905 713 m 1
 966.538461539 819.666666667 1063.20512821 873 1195 873 c 0
 1352.22916667 873 1442.5625 798 1466 648 c 0
 1472.66666667 606 1476 563 1476 519 c 2
 1476 -41 l 1
 1360 -41 l 1
 1360 571 l 2
 1360 633 1347.33333333 681.166666667 1322 715.5 c 128
 1296.66666667 749.833333333 1249 767 1179 767 c 0
 1098.10666667 767 1032.44 734.666666667 982 670 c 0
 944 620.125 925 542.458333333 925 437 c 2
 925 -41 l 1
 808 -41 l 1
 808 571 l 2
 808 633 794.833333333 681.166666667 768.5 715.5 c 128
 742.166666667 749.833333333 693.666666667 767 623 767 c 0
 543.816326531 767 479.149659864 734.666666667 429 670 c 0
 391.666666667 621 373 543.333333333 373 437 c 2
 373 -41 l 1
 257 -41 l 1
 257 849 l 1
 373 849 l 1
 373 731 l 1
 399 774.333333333 435.333333333 808.833333333 482 834.5 c 128
 528.666666667 860.166666667 582 873 642 873 c 0
 773.195402299 873 860.862068965 819.666666667 905 713 c 1
EndSplineSet
EndChar

StartChar: n
Encoding: 110 110 310
Width: 1066
VWidth: 1663
Flags: W
LayerCount: 2
Fore
SplineSet
336 -41 m 1
 221 -41 l 1
 221 849 l 1
 336 849 l 1
 336 737 l 1
 373.333333333 775 413.666666667 807.166666667 457 833.5 c 128
 500.333333333 859.833333333 553 873 615 873 c 0
 746.192488263 873 840.859154929 830 899 744 c 0
 921 712 934 679 938 645 c 128
 942 611 944 575.666666667 944 539 c 2
 944 -41 l 1
 828 -41 l 1
 828 537 l 2
 828 613.666666667 811.333333333 671.166666667 778 709.5 c 128
 744.666666667 747.833333333 686.333333333 767 603 767 c 0
 512.288135593 767 441.788135593 732.5 391.5 663.5 c 0
 361.347860901 622.128460307 344.181194235 574.96179364 340 522 c 0
 337.333333333 496.666666667 336 468.333333333 336 437 c 2
 336 -41 l 1
EndSplineSet
EndChar

StartChar: o
Encoding: 111 111 311
Width: 1066
VWidth: 1660
Flags: W
LayerCount: 2
Fore
SplineSet
881 405 m 0
 881 574.880952381 828.333333333 685.214285714 723 736 c 0
 685.666666667 754.666666667 639.5 764 584.5 764 c 0
 480.7 764 403.866666667 727.333333333 354 654 c 0
 308.666666667 589.238095238 286 506.238095238 286 405 c 0
 286 236.011904762 341.666666667 124.678571429 453 71 c 0
 491 53.6666666667 535.666666667 45.1666666667 587 45.5 c 0
 688.019392991 46.1559700843 762.623901374 81.760419756 810.813525151 152.313349015 c 128
 859.003148928 222.866278274 882.398640544 307.095161935 881 405 c 0
583 -60 m 1
 389.450601515 -55.6505753149 260.617268182 31.8494246851 196.5 202.5 c 0
 174.833333333 260.166666667 164 324.333333333 164 395 c 0
 164 535.744336569 198.166666667 648.244336569 266.5 732.5 c 0
 340.843832021 824.166666667 446.343832021 870 583 870 c 0
 721.410666667 870 827.744 824.5 902 733.5 c 0
 970 650.166666667 1004 540.333333333 1004 404 c 0
 1004 266.493827161 966.586021505 154.783950617 891.758064516 68.8703703704 c 128
 816.930107527 -17.0432098765 714.010752688 -60 583 -60 c 1
EndSplineSet
EndChar

StartChar: p
Encoding: 112 112 312
Width: 1173
VWidth: 1626
Flags: W
LayerCount: 2
Fore
SplineSet
438 626 m 1
 388 562.486486487 363 476.153153153 363 367 c 0
 363 266.927927928 388.666666667 183.594594595 440 117 c 0
 494.953586498 45.7088607595 567.620253165 10.7088607595 658 12 c 0
 762.307692308 12 840.307692308 49.3333333333 892 124 c 0
 941.459667093 195.441741357 963.459667093 286.441741357 958 397 c 1
 958 500.721518987 929.833333333 582.888185654 873.5 643.5 c 0
 819.903921569 701.166666667 748.070588235 730 658 730 c 0
 561.888888889 730 488.555555555 695.333333333 438 626 c 1
363 -415 m 1
 247 -415 l 1
 247 812 l 1
 363 812 l 1
 363 672 l 1
 393.500352361 722.325581395 429.292107118 758.073643411 470.375264271 779.244186047 c 0
 543.801441518 817.081395349 614.262108452 836 681.757265071 836 c 0
 813.983604486 836 915.397849463 791.333333333 986 702 c 0
 1050.08527132 619.604651163 1081.41860465 509.604651163 1080 372 c 0
 1080 239.795918367 1047.66666667 131.462585034 983 47 c 0
 911.03125 -47 808.697916667 -94 676 -94 c 0
 610 -94 549.333333333 -80.8333333333 494 -54.5 c 128
 438.666666667 -28.1666666667 395 7.33333333333 363 52 c 1
 363 -415 l 1
EndSplineSet
EndChar

StartChar: q
Encoding: 113 113 313
Width: 1165
VWidth: 1626
Flags: W
LayerCount: 2
Fore
SplineSet
750 39 m 0
 859.832258065 93.916129032 915.832258065 205.916129032 918 375 c 0
 918 475.533333333 892.166666667 558.866666667 840.5 625 c 0
 784.808314937 696.28535688 711.974981604 731.28535688 622 730 c 0
 519.794871795 730 442.128205128 692.666666667 389 618 c 0
 339.509603073 546.513871105 317.509603073 455.180537772 323 344 c 1
 323 240.599156118 350.833333333 158.599156118 406.5 98 c 0
 459.166666667 40.6666666667 531 12 622 12 c 0
 670 12 712.666666667 21 750 39 c 0
918 812 m 1
 1033 812 l 1
 1033 -415 l 1
 918 -415 l 1
 918 52 l 1
 886 7.33333333333 842 -28.1666666667 786 -54.5 c 128
 730 -80.8333333333 668 -94 600 -94 c 128
 532 -94 472.666666667 -81.3333333333 422 -56 c 128
 371.333333333 -30.6666666667 329.666666667 3.5 297 46.5 c 0
 232.333333333 131.622448979 200 240.122448979 200 372 c 0
 200 588.175438597 273 730.842105263 419 800 c 0
 471 824 523.166666667 836 575.5 836 c 0
 736.303921569 836 850.470588235 781.333333333 918 672 c 1
 918 812 l 1
EndSplineSet
EndChar

StartChar: r
Encoding: 114 114 314
Width: 644
VWidth: 1663
Flags: W
LayerCount: 2
Fore
SplineSet
593 748 m 1
 404.333333333 752.492063492 310 634.825396825 310 395 c 2
 310 -41 l 1
 195 -41 l 1
 195 849 l 1
 310 849 l 1
 310 703 l 1
 337.333333333 762.333333333 372.666666667 805.5 416 832.5 c 128
 459.333333333 859.5 518.333333333 873 593 873 c 2
 600 873 l 1
 600 748 l 1
 593 748 l 1
EndSplineSet
EndChar

StartChar: s
Encoding: 115 115 315
Width: 962
VWidth: 1660
Flags: W
LayerCount: 2
Fore
SplineSet
284 252 m 1
 296.444444445 177.333333333 323.722222222 124.333333333 365.833333333 93 c 128
 407.944444444 61.6666666667 469 46 549 46 c 0
 653.703703704 46 720.870370371 78 750.5 142 c 0
 758.833333333 160 763 184.166666667 763 214.5 c 0
 763 268.209677419 716 308.709677419 622 336 c 0
 578 347.333333333 530.333333333 357.333333333 479 366 c 0
 363.013176071 385.582191053 280.346509404 422.915524387 231 478 c 0
 202.333333333 510.666666667 188 560.166666667 188 626.5 c 128
 188 692.833333333 215.5 750 270.5 798 c 128
 325.5 846 404.333333333 870 507 870 c 128
 609.666666667 870 691.333333333 848.333333333 752 805 c 128
 812.666666667 761.666666667 849.666666667 686.666666667 863 580 c 1
 745 580 l 1
 745 586 l 1
 736.333333333 651.333333333 711.666666667 697.333333333 671 724 c 0
 628.333333333 750.666666667 573.5 764 506.5 764 c 128
 439.5 764 390 751 358 725 c 128
 326 699 310.166666667 666.166666667 310.5 626.5 c 128
 310.833333333 586.833333333 324 557.166666667 350 537.5 c 0
 390.815297955 506.626890009 473.148631288 479.126890009 597 455 c 0
 710.521537442 432.594433399 792.188204109 392.927766733 842 336 c 0
 870.666666667 303.333333333 885.166666667 261.833333333 885.5 211.5 c 0
 886.098313599 121.154646573 851.264980265 52.3213132401 781 5 c 0
 717.96969697 -38.3333333333 628.96969697 -60 514 -60 c 0
 356.606060606 -60 250.439393939 1.66666666667 195.5 125 c 0
 179.166666667 161.666666667 170 201.333333333 168 244 c 1
 167 252 l 1
 284 252 l 1
EndSplineSet
EndChar

StartChar: t
Encoding: 116 116 316
Width: 532
VWidth: 1683
Flags: W
LayerCount: 2
Fore
SplineSet
322 183 m 2
 322 135.965686275 325.987179487 105.207107843 333.961538462 90.7242647059 c 0
 349.524546035 62.459096539 402.204033215 59.5510083037 492 82 c 1
 492 -15 l 1
 474.56 -17.9066666667 456.033333333 -22.3 436.42 -28.18 c 128
 416.806666667 -34.06 387.5 -37 348.5 -37 c 128
 309.5 -37 276 -23.8333333333 248 2.5 c 128
 220 28.8333333333 206 75.6666666667 206 143 c 2
 206 770 l 1
 83 770 l 1
 83 869 l 1
 206 869 l 1
 206 1113 l 1
 322 1113 l 1
 322 869 l 1
 486 869 l 1
 486 770 l 1
 322 770 l 1
 322 183 l 2
EndSplineSet
EndChar

StartChar: u
Encoding: 117 117 317
Width: 1066
VWidth: 1658
Flags: W
LayerCount: 2
Fore
SplineSet
828 844 m 1
 944 844 l 1
 944 -39 l 1
 828 -39 l 1
 828 70 l 1
 791.282051282 30.9871794872 760.935897436 3.90064102567 736.961538462 -11.2596153846 c 0
 682.413536077 -45.7532051282 620.949612403 -63 552.569767442 -63 c 128
 484.189922481 -63 429.666666667 -54.6666666667 389 -38 c 128
 348.333333333 -21.3333333333 315.5 2 290.5 32 c 0
 244.166666667 87.6 221 164.933333333 221 264 c 2
 221 844 l 1
 336 844 l 1
 336 267 l 2
 336 194.333333333 352.833333333 138.833333333 386.5 100.5 c 128
 420.166666667 62.1666666667 478 43 560 43 c 0
 687.819209039 43 771.152542373 106.666666667 810 234 c 0
 822 273.333333333 828 316.666666667 828 364 c 2
 828 844 l 1
EndSplineSet
EndChar

StartChar: v
Encoding: 118 118 318
Width: 962
VWidth: 1660
Flags: W
LayerCount: 2
Fore
SplineSet
118 846 m 1
 244 846 l 1
 530 109 l 1
 814 842 l 1
 816 846 l 1
 941 846 l 1
 593 -39 l 1
 592 -44 l 1
 462 -44 l 1
 118 846 l 1
EndSplineSet
EndChar

StartChar: w
Encoding: 119 119 319
Width: 1376
VWidth: 1660
Flags: W
LayerCount: 2
Fore
SplineSet
822 846 m 1
 1013 125 l 1
 1238 841 l 1
 1240 846 l 1
 1358 846 l 1
 1070 -39 l 1
 1069 -44 l 1
 947 -44 l 1
 756 677 l 1
 563 -38 l 1
 562 -44 l 1
 426 -44 l 1
 158 837 l 1
 155 846 l 1
 271 846 l 1
 494 118 l 1
 694 841 l 1
 696 846 l 1
 822 846 l 1
EndSplineSet
EndChar

StartChar: x
Encoding: 120 120 320
Width: 962
VWidth: 1660
Flags: W
LayerCount: 2
Fore
SplineSet
806 -44 m 1
 537 330 l 1
 263 -41 l 1
 261 -44 l 1
 120 -44 l 1
 465 417 l 1
 156 835 l 1
 147 846 l 1
 290 846 l 1
 535 503 l 1
 785 843 l 1
 787 846 l 1
 933 846 l 1
 608 417 l 1
 945 -44 l 1
 806 -44 l 1
EndSplineSet
EndChar

StartChar: y
Encoding: 121 121 321
Width: 962
VWidth: 1624
Flags: W
LayerCount: 2
Fore
SplineSet
482 -326 m 0
 435.659574468 -392 382.159574468 -425 321.5 -425 c 0
 292.5 -425 254.666666667 -420.333333333 208 -411 c 1
 208 -303 l 1
 266.666666667 -310.333333333 297.333333333 -314 300 -314 c 0
 356.7 -314 403.033333333 -258.666666667 439 -148 c 0
 447 -121.333333333 456.333333333 -98.3333333333 467 -79 c 1
 120 810 l 1
 249 810 l 1
 531 71 l 1
 814 810 l 1
 939 810 l 1
 606 -64 l 2
 557.711711712 -189.247747748 516.378378379 -276.581081081 482 -326 c 0
EndSplineSet
EndChar

StartChar: z
Encoding: 122 122 322
Width: 962
VWidth: 1660
Flags: W
LayerCount: 2
Fore
SplineSet
146 -36 m 1
 146 62 l 1
 147 64 l 1
 733 747 l 1
 184 747 l 1
 184 846 l 1
 886 846 l 1
 886 747 l 1
 298 62 l 1
 907 62 l 1
 907 -36 l 1
 146 -36 l 1
EndSplineSet
EndChar

StartChar: bar
Encoding: 124 124 323
Width: 414
VWidth: 1657
Flags: W
LayerCount: 2
Fore
SplineSet
285 1242 m 1
 285 -462 l 1
 170 -462 l 1
 170 1242 l 1
 285 1242 l 1
EndSplineSet
EndChar

StartChar: asciitilde
Encoding: 126 126 324
Width: 1232
VWidth: 1659
Flags: W
LayerCount: 2
Fore
SplineSet
863 403 m 0
 922.666666667 403 977.666666667 453.333333333 1028 554 c 1
 1108 487 l 1
 1086.625 451.375 1069.94791667 424.802083333 1057.96875 407.28125 c 0
 1029.34811869 365.42046577 996.698169192 335.908394712 960.018901517 318.745036827 c 128
 923.339633839 301.581678942 893.666666667 293.166666667 871 293.5 c 0
 820.995316159 294.235362997 757.995316159 311.068696331 682 344 c 0
 662 352.666666667 642.833333333 360.5 624.5 367.5 c 128
 606.166666667 374.5 585.333333333 384.333333333 562 397 c 128
 538.666666667 409.666666667 515.833333333 416 493.5 416 c 0
 440.642857143 416 392.142857143 381.666666667 348 313 c 0
 336 294.333333333 323 273.333333333 309 250 c 1
 248 340 l 1
 245 344 l 1
 290 405 l 2
 349.35483871 485 416.688172043 525 492 525 c 0
 537.275362319 525 590.260869565 510.666666667 650.956521739 482 c 128
 711.652173913 453.333333333 756.833333333 433 786.5 421 c 128
 816.166666667 409 841.666666667 403 863 403 c 0
EndSplineSet
EndChar

StartChar: exclamdown
Encoding: 161 161 325
Width: 621
VWidth: 1629
Flags: W
LayerCount: 2
Fore
SplineSet
272 684 m 1
 272 846 l 1
 410 846 l 1
 410 684 l 1
 272 684 l 1
386 535 m 1
 410 3 l 1
 410 -383 l 1
 272 -383 l 1
 272 3 l 1
 296 535 l 1
 296 542 l 1
 386 542 l 1
 386 535 l 1
EndSplineSet
EndChar

StartChar: cent
Encoding: 162 162 326
Width: 1037
VWidth: 1658
Flags: W
LayerCount: 2
Fore
SplineSet
637 763 m 1
 615.268656717 768.014925373 595.268656717 770.014925373 577 769 c 0
 480.692307692 769 407.692307692 731 358 655 c 0
 311.178571429 587.369047619 288.511904762 503.702380953 290 404 c 0
 290 340.666666667 300.333333333 281 321 225 c 128
 341.666666667 169 373.666666667 125.666666667 417 95 c 1
 637 763 l 1
577 875 m 0
 586.333333333 875 617.666666667 872.333333333 671 867 c 1
 737 1064 l 1
 739 1069 l 1
 835 1069 l 1
 760 840 l 1
 864.666666667 793.333333333 927 703 947 569 c 1
 949 561 l 1
 832 561 l 1
 830 567 l 1
 811.333333333 639 775.666666667 692.666666667 723 728 c 1
 500 53 l 1
 523.383966245 47.4978902953 549.050632911 44.164556962 577 43 c 0
 650.333333333 43 709.333333333 63.3333333333 754 104 c 0
 797.880742913 143.951124145 826.214076247 202.284457478 839 279 c 1
 962 279 l 1
 956.857142857 232.714285714 943.190476191 187.380952381 921 143 c 256
 881.776978417 60.4964028777 817.443645084 0.829736211 728 -36 c 256
 648.288455587 -68.1225626741 560.955122253 -72.7892293407 466 -50 c 1
 393 -272 l 1
 391 -277 l 1
 297 -277 l 1
 380 -20 l 1
 239.455979195 51.5496833187 168.455979195 192.883016652 167 404 c 0
 167 550.909090909 206 666.909090909 284 752 c 256
 357.934426229 834 455.601092896 875 577 875 c 0
EndSplineSet
EndChar

StartChar: sterling
Encoding: 163 163 327
Width: 1038
VWidth: 1691
Flags: W
LayerCount: 2
Fore
SplineSet
314 128 m 1
 366.363636363 152 411.287878788 164 448.772727273 164 c 0
 501.590909091 164 548.666666667 155.833333333 590 139.5 c 128
 631.333333333 123.166666667 662.333333333 111.333333333 683 104 c 128
 703.666666667 96.6666666667 730.333333333 93 763 93 c 128
 795.666666667 93 825.833333333 102.5 853.5 121.5 c 128
 881.166666667 140.5 909.666666667 164.666666667 939 194 c 1
 1001 101 l 1
 1004 95 l 1
 930 34 l 1
 874 -8 797.666666667 -29 701 -29 c 0
 679.666666667 -29 657.833333333 -25 635.5 -17 c 0
 569.645299145 6.58974358973 522.098290598 22.8205128205 492.858974359 31.6923076923 c 128
 463.61965812 40.5641025641 433.333333333 45 402 45 c 128
 370.666666667 45 340.833333333 38.8333333333 312.5 26.5 c 0
 258.012820513 2.78205128205 227.846153846 -10.0512820513 222 -12 c 1
 159 91 l 1
 156 97 l 1
 212.434108527 142.147286822 256.709302326 188.434108527 288.825581395 235.860465116 c 128
 320.941860465 283.286821705 337 334.5 337 389.5 c 128
 337 444.5 326 495 304 541 c 1
 134 541 l 1
 134 626 l 1
 267 626 l 1
 261 638.666666667 253.333333333 652.5 244 667.5 c 0
 202.666666667 733.928571429 182 806.095238095 182 884 c 0
 182 1027.72769953 254.333333333 1125.06103287 399 1176 c 0
 446.333333333 1192 500 1200 560 1200 c 0
 679.111111111 1200 774.777777778 1166.66666667 847 1100 c 256
 922.328176479 1031.77825526 958.661509813 940.444921931 956 826 c 1
 956 819 l 1
 831 819 l 1
 831 826 l 1
 827.666666667 913.333333333 802.666666667 980 756 1026 c 256
 709.333333333 1072 646.333333333 1094.66666667 567 1094 c 0
 494.086419753 1094 433.419753087 1076.33333333 385 1041 c 0
 330.380952381 1001.14285714 303.714285714 947.142857143 305 879 c 0
 305 823.666666667 329.666666667 759 379 685 c 0
 391.666666667 665.666666667 403.666666667 646 415 626 c 1
 698 626 l 1
 698 541 l 1
 446 541 l 1
 456 506.714285714 461 471.976190476 461 436.785714286 c 0
 461 347.461904762 426.333333333 261.2 357 178 c 0
 343 161.333333333 328.666666667 144.666666667 314 128 c 1
EndSplineSet
EndChar

StartChar: fraction
Encoding: 8260 8260 328
AltUni2: 002215.ffffffff.0
Width: 312
VWidth: 1691
Flags: W
LayerCount: 2
Fore
SplineSet
-260 -29 m 1
 494 1194 l 1
 497 1197 l 1
 499 1200 l 1
 602 1200 l 1
 595 1189 l 1
 -154 -25 l 1
 -155 -26 l 1
 -157 -29 l 1
 -260 -29 l 1
EndSplineSet
EndChar

StartChar: yen
Encoding: 165 165 329
Width: 1038
VWidth: 1696
Flags: W
LayerCount: 2
Fore
SplineSet
567 652 m 1
 903 1228 l 1
 905 1231 l 1
 1044 1231 l 1
 756 748 l 1
 938 748 l 1
 938 642 l 1
 692 642 l 1
 631 536 l 1
 631 474 l 1
 938 474 l 1
 938 368 l 1
 631 368 l 1
 631 -0 l 1
 508 -0 l 1
 508 368 l 1
 200 368 l 1
 200 474 l 1
 508 474 l 1
 508 536 l 1
 447 642 l 1
 200 642 l 1
 200 748 l 1
 382 748 l 1
 100 1220 l 1
 94 1231 l 1
 239 1231 l 1
 567 652 l 1
EndSplineSet
EndChar

StartChar: florin
Encoding: 402 402 330
Width: 1065
VWidth: 1664
Flags: W
LayerCount: 2
Fore
SplineSet
158 -238 m 1
 187.549549549 -256.468468469 218.103603603 -265.418918919 249.662162162 -264.851351351 c 128
 281.220720721 -264.283783784 308.333333333 -250.166666667 331 -222.5 c 0
 377.464952093 -165.785426122 417.464952093 -58.285426122 451 100 c 0
 468.333333333 178.666666667 486 268.666666667 504 370 c 1
 554 636 l 1
 357 636 l 1
 357 732 l 1
 570 732 l 1
 581.333333333 778 593.5 828.333333333 606.5 883 c 0
 637.261723701 1012.35699197 687.428390367 1106.02365864 757 1164 c 0
 797.666666667 1198 850.333333333 1214.66666667 915 1214 c 0
 956.333333333 1214 997 1202.66666667 1037 1180 c 1
 1042 1176 l 1
 1003 1081 l 1
 970.333333333 1099.66666667 943.833333333 1109 923.5 1109 c 128
 903.166666667 1109 885.666666667 1107.33333333 871 1104 c 1
 870 1104 l 1
 818.566723453 1095.05508234 779.566723453 1048.38841567 753 964 c 0
 741.666666667 927.333333333 732.333333333 888.166666667 725 846.5 c 128
 717.666666667 804.833333333 709 766.666666667 699 732 c 1
 895 732 l 1
 895 636 l 1
 682 636 l 1
 571 74 l 1
 538.737991267 -71.1790393013 506.005822417 -169.473799127 472.80349345 -220.884279476 c 128
 439.601164483 -272.294759825 403.666666667 -310.166666667 365 -334.5 c 128
 326.333333333 -358.833333333 279 -371 223 -371 c 0
 190.629629629 -371 158.962962963 -364.666666667 128 -352 c 1
 121 -350 l 1
 156 -247 l 1
 158 -238 l 1
EndSplineSet
EndChar

StartChar: section
Encoding: 167 167 331
Width: 1038
VWidth: 1667
Flags: W
LayerCount: 2
Fore
SplineSet
717 184 m 1
 812.333333333 237.386666667 860 298.053333333 860 366 c 0
 860 420.666666667 827 470 761 514 c 0
 743 526 725.666666667 537.333333333 709 548 c 2
 420 725 l 1
 327.189926548 684.395592865 280.189926548 628.395592865 279 557 c 0
 279 507.833333333 309 459.5 369 412 c 0
 385.666666667 399.333333333 402.333333333 387.333333333 419 376 c 2
 717 184 l 1
368 -20 m 2
 368 -159.333333333 436.666666667 -229 574 -229 c 0
 651.904761905 -229 707.238095238 -200.333333333 740 -143 c 0
 750 -124.333333333 755 -102.333333333 755 -77 c 0
 755 -14.25 714.333333333 45.0833333333 633 101 c 0
 611 116.333333333 590 130.666666667 570 144 c 2
 349 283 l 2
 294.333333333 317 251.5 354.166666667 220.5 394.5 c 128
 189.5 434.833333333 173.666666667 484.666666667 173 544 c 256
 173 602.666666667 190.333333333 652.833333333 225 694.5 c 128
 259.666666667 736.166666667 301 768 349 790 c 1
 325.666666667 817.333333333 305.833333333 845.5 289.5 874.5 c 128
 273.166666667 903.5 265 937 265 975 c 0
 265 1051 291.666666667 1112.33333333 345 1159 c 256
 402.828153565 1209.59963437 480.285191956 1234.58287629 577.371115174 1233.94972578 c 128
 674.457038391 1233.31657526 749 1205.33333333 801 1150 c 256
 853 1094.66666667 878.333333333 1019.33333333 877 924 c 1
 877 917 l 1
 772 917 l 1
 771 924 l 1
 769 993.333333333 752.333333333 1044.66666667 721 1078 c 128
 689.666666667 1111.33333333 643.333333333 1128 582 1128 c 0
 452 1128 387 1075.66666667 387 971 c 0
 387 934.333333333 400.833333333 901.333333333 428.5 872 c 0
 471.317460317 826.603174603 535.10515873 781.087301587 619.863095238 735.452380952 c 128
 704.621031746 689.817460317 768.666666667 651.666666667 812 621 c 0
 912.844895423 549.632843239 963.844895423 470.632843239 965 384 c 0
 965 296.438095238 925.666666667 223.438095238 847 165 c 0
 827 149.666666667 805.666666667 134.333333333 783 119 c 1
 788.333333333 113.666666667 795.666666667 106.5 805 97.5 c 0
 853 51.2142857143 877 1.39285714283 877 -51.9642857143 c 0
 877 -190.788095238 814.666666667 -279.466666667 690 -318 c 0
 653.333333333 -329.333333333 614 -335 572 -335 c 0
 474 -335 397.333333333 -306.666666667 342 -250 c 256
 286 -193.333333333 256 -117 252 -21 c 1
 251 -13 l 1
 368 -13 l 1
 368 -20 l 2
EndSplineSet
EndChar

StartChar: currency
Encoding: 164 164 332
Width: 1038
VWidth: 1675
Flags: W
LayerCount: 2
Fore
SplineSet
576 792 m 1
 488.591378263 794.689496053 416.25804493 766.689496053 359 708 c 256
 299.751955589 647.270754479 271.418622256 575.604087812 274 493 c 1
 274 492 l 1
 271.355191257 413.978142077 299.68852459 345.31147541 359 286 c 256
 416.235772358 227.333333333 485.235772358 198 566 198 c 0
 648.566666667 198 719.233333333 226.666666667 778 284 c 256
 837.979166667 343.979166667 867.3125 415.3125 866 498 c 0
 866 577.233333333 837.333333333 646.233333333 780 705 c 256
 720.893690809 765.58396692 653.227024143 794.58396692 577 792 c 1
 576 792 l 1
822 146 m 1
 745.333333333 91.3333333333 662.189189189 63.8333333333 572.567567568 63.5 c 128
 482.945945946 63.1666666667 397.756756757 90.6666666667 317 146 c 1
 241 72 l 1
 144 172 l 1
 217 244 l 1
 164.333333333 322.324786325 138 407.096459096 138 498.315018315 c 128
 138 589.533577534 164.333333333 672.761904762 217 748 c 1
 144 821 l 1
 241 920 l 1
 316 847 l 1
 389.285714286 901 470.940476191 928 560.964285714 928 c 128
 650.988095238 928 738 901 822 847 c 1
 897 920 l 1
 995 821 l 1
 922 748 l 1
 974 672.476190476 1000 589.345238095 1000 498.607142857 c 128
 1000 407.869047619 973.666666667 323 921 244 c 1
 995 172 l 1
 902 78 l 1
 897 72 l 1
 822 146 l 1
EndSplineSet
EndChar

StartChar: quotesingle
Encoding: 39 39 333
Width: 414
VWidth: 1785
Flags: W
LayerCount: 2
Fore
SplineSet
176 1320 m 1
 279 1320 l 1
 279 923 l 1
 176 923 l 1
 176 1320 l 1
EndSplineSet
EndChar

StartChar: quotedblleft
Encoding: 8220 8220 334
Width: 727
VWidth: 1785
Flags: W
LayerCount: 2
Fore
SplineSet
209 1131 m 2
 209 1182.33333333 221 1223.66666667 245 1255 c 256
 272.282051282 1290.61823362 306.282051282 1312.95156695 347 1322 c 1
 347 1246 l 1
 331.303030303 1235.53535353 317.712121212 1222.91919192 306.227272727 1208.15151515 c 128
 294.742424242 1193.38383838 289 1170.33333333 289 1139 c 2
 289 1088 l 1
 347 1088 l 1
 347 925 l 1
 209 925 l 1
 209 1131 l 2
464 1131 m 2
 464 1182.33333333 476 1223.66666667 500 1255 c 256
 527.282051282 1290.61823362 561.282051282 1312.95156695 602 1322 c 1
 602 1246 l 1
 586.303030303 1235.53535353 572.712121212 1222.91919192 561.227272727 1208.15151515 c 128
 549.742424242 1193.38383838 544 1170.33333333 544 1139 c 2
 544 1088 l 1
 602 1088 l 1
 602 925 l 1
 464 925 l 1
 464 1131 l 2
EndSplineSet
EndChar

StartChar: guilsinglleft
Encoding: 8249 8249 335
Width: 726
VWidth: 1661
Flags: W
LayerCount: 2
Fore
SplineSet
267 467 m 1
 528 668 l 1
 528 544 l 1
 357 409 l 1
 525 280 l 1
 528 278 l 1
 528 155 l 1
 270 351 l 1
 267 353 l 1
 267 467 l 1
EndSplineSet
EndChar

StartChar: guilsinglright
Encoding: 8250 8250 336
Width: 726
VWidth: 1661
Flags: W
LayerCount: 2
Fore
SplineSet
530 356 m 1
 269 155 l 1
 269 279 l 1
 440 414 l 1
 272 543 l 1
 269 545 l 1
 269 668 l 1
 527 472 l 1
 530 470 l 1
 530 356 l 1
EndSplineSet
EndChar

StartChar: fi
Encoding: 64257 64257 337
Width: 953
VWidth: 1699
Flags: W
LayerCount: 2
Fore
SplineSet
844 1061 m 1
 718 1061 l 1
 718 1226 l 1
 844 1226 l 1
 844 1061 l 1
723 -5 m 1
 723 885 l 1
 839 885 l 1
 839 -5 l 1
 723 -5 l 1
531 1133 m 1
 506.555555555 1140.33333333 481.777777778 1144 456.666666667 1144 c 0
 411.434343434 1144 381.545454545 1128 367 1096 c 0
 356.333333333 1071.46666667 351 1034.8 351 986 c 2
 351 885 l 1
 527 885 l 1
 527 786 l 1
 351 786 l 1
 351 -5 l 1
 235 -5 l 1
 235 786 l 1
 103 786 l 1
 103 885 l 1
 235 885 l 1
 235 1016 l 2
 235 1087.33333333 249.833333333 1144.16666667 279.5 1186.5 c 128
 309.166666667 1228.83333333 360.666666667 1250 434 1250 c 0
 461.333333333 1250 493.666666667 1247.33333333 531 1242 c 1
 531 1133 l 1
EndSplineSet
EndChar

StartChar: fl
Encoding: 64258 64258 338
Width: 952
VWidth: 1699
Flags: W
LayerCount: 2
Fore
SplineSet
723 -5 m 1
 723 1226 l 1
 839 1226 l 1
 839 -5 l 1
 723 -5 l 1
530 1133 m 1
 508 1140.33333333 484 1144 458 1144 c 0
 412.666666667 1144 382 1128 366 1096 c 0
 354.441692467 1069.41589267 349.441692467 1032.74922601 351 986 c 1
 351 885 l 1
 527 885 l 1
 527 786 l 1
 351 786 l 1
 351 -5 l 1
 235 -5 l 1
 235 786 l 1
 102 786 l 1
 102 885 l 1
 235 885 l 1
 235 1016 l 2
 235 1087.33333333 249.833333333 1144.16666667 279.5 1186.5 c 128
 309.166666667 1228.83333333 360.666666667 1250 434 1250 c 0
 466 1250 498 1247.33333333 530 1242 c 1
 530 1133 l 1
EndSplineSet
EndChar

StartChar: endash
Encoding: 8211 8211 339
Width: 934
VWidth: 1660
Flags: W
LayerCount: 2
Fore
SplineSet
942 366 m 1
 82 366 l 1
 82 455 l 1
 942 455 l 1
 942 366 l 1
EndSplineSet
EndChar

StartChar: dagger
Encoding: 8224 8224 340
Width: 1038
VWidth: 1667
Flags: W
LayerCount: 2
Fore
SplineSet
512 707 m 1
 155 707 l 1
 155 813 l 1
 512 813 l 1
 512 1201 l 1
 627 1201 l 1
 627 813 l 1
 984 813 l 1
 984 707 l 1
 627 707 l 1
 627 -310 l 1
 512 -310 l 1
 512 707 l 1
EndSplineSet
EndChar

StartChar: daggerdbl
Encoding: 8225 8225 341
Width: 1038
VWidth: 1667
Flags: W
LayerCount: 2
Fore
SplineSet
512 718 m 1
 155 718 l 1
 155 824 l 1
 512 824 l 1
 512 1201 l 1
 627 1201 l 1
 627 824 l 1
 984 824 l 1
 984 718 l 1
 627 718 l 1
 627 168 l 1
 984 168 l 1
 984 63 l 1
 627 63 l 1
 627 -310 l 1
 512 -310 l 1
 512 63 l 1
 155 63 l 1
 155 168 l 1
 512 168 l 1
 512 718 l 1
EndSplineSet
EndChar

StartChar: periodcentered
Encoding: 183 183 342
AltUni2: 002219.ffffffff.0
Width: 519
VWidth: 1692
Flags: W
LayerCount: 2
Fore
SplineSet
194 595 m 128
 194 619.666666667 203.333333333 640.5 222 657.5 c 128
 240.666666667 674.5 262 683 286 683 c 128
 310 683 330.5 674.333333333 347.5 657 c 128
 364.5 639.666666667 373 618.833333333 373 594.5 c 128
 373 570.166666667 364.333333333 549 347 531 c 128
 329.666666667 513 308.833333333 504 284.5 504 c 128
 260.166666667 504 239 513 221 531 c 128
 203 549 194 570.333333333 194 595 c 128
EndSplineSet
EndChar

StartChar: paragraph
Encoding: 182 182 343
Width: 1200
VWidth: 1670
Flags: W
LayerCount: 2
Fore
SplineSet
531 541 m 1
 447.192890877 542.351727567 372.192890877 574.6850609 306 638 c 256
 240 702.565217391 207 784.373188406 207 883.423913043 c 128
 207 982.474637681 240.666666667 1060.83333333 308 1118.5 c 128
 375.333333333 1176.16666667 469.666666667 1205 591 1205 c 2
 964 1205 l 1
 964 -273 l 1
 849 -273 l 1
 849 1077 l 1
 647 1077 l 1
 647 -273 l 1
 531 -273 l 1
 531 541 l 1
EndSplineSet
EndChar

StartChar: bullet
Encoding: 8226 8226 344
Width: 934
VWidth: 1696
Flags: W
LayerCount: 2
Fore
SplineSet
824 613 m 256
 824 527.573643411 793.333333333 454.906976744 732 395 c 256
 669.888888889 334.333333333 595.888888889 304 510 304 c 256
 423.92248062 304 351.255813953 334.333333333 292 395 c 256
 230.666666667 456.333333333 200 529 200 613 c 256
 200 699.666666667 230.666666667 773.666666667 292 835 c 256
 350.545454545 896.333333333 423.212121212 927 510 927 c 256
 598.060606061 927 672.060606061 896.333333333 732 835 c 256
 793.333333333 773.666666667 824 699.666666667 824 613 c 256
EndSplineSet
EndChar

StartChar: quotesinglbase
Encoding: 8218 8218 345
Width: 416
VWidth: 1558
Flags: W
LayerCount: 2
Fore
SplineSet
307 -181 m 2
 307 -232.333333333 295 -273.666666667 271 -305 c 256
 247 -336.333333333 216.333333333 -357.666666667 179 -369 c 1
 170 -373 l 1
 170 -296 l 1
 185.6875 -285.541666667 199.109375 -273.09375 210.265625 -258.65625 c 128
 221.421875 -244.21875 227 -221 227 -189 c 2
 227 -138 l 1
 170 -138 l 1
 170 25 l 1
 307 25 l 1
 307 -181 l 2
EndSplineSet
EndChar

StartChar: quotedblbase
Encoding: 8222 8222 346
Width: 725
VWidth: 1558
Flags: W
LayerCount: 2
Fore
SplineSet
332 -181 m 2
 332 -232.333333333 320 -273.666666667 296 -305 c 256
 272 -336.333333333 241.333333333 -357.666666667 204 -369 c 1
 195 -373 l 1
 195 -296 l 1
 210.6875 -285.541666667 224.109375 -273.09375 235.265625 -258.65625 c 128
 246.421875 -244.21875 252 -221 252 -189 c 2
 252 -138 l 1
 195 -138 l 1
 195 25 l 1
 332 25 l 1
 332 -181 l 2
588 -181 m 2
 588 -232.333333333 576 -273.666666667 552 -305 c 256
 524.717948718 -340.618233618 490.717948718 -362.951566951 450 -372 c 1
 450 -296 l 1
 465.696969697 -285.535353535 479.287878788 -272.919191919 490.772727273 -258.151515152 c 128
 502.257575758 -243.383838384 508 -220.333333333 508 -189 c 2
 508 -138 l 1
 450 -138 l 1
 450 25 l 1
 588 25 l 1
 588 -181 l 2
EndSplineSet
EndChar

StartChar: quotedblright
Encoding: 8221 8221 347
Width: 725
VWidth: 1785
Flags: W
LayerCount: 2
Fore
SplineSet
332 1113 m 2
 332 1061.66666667 320 1020.33333333 296 989 c 256
 269.196581197 954.006647673 235.52991453 932.006647673 195 923 c 1
 195 999 l 1
 210.6875 1009.45833333 224.109375 1021.90625 235.265625 1036.34375 c 128
 246.421875 1050.78125 252 1074 252 1106 c 2
 252 1156 l 1
 195 1156 l 1
 195 1320 l 1
 332 1320 l 1
 332 1113 l 2
588 1113 m 2
 588 1061.66666667 576 1020.33333333 552 989 c 256
 525.333333333 954.185185185 491.333333333 932.185185185 450 923 c 1
 450 999 l 1
 465.733333333 1009.48888889 479.4 1021.82222222 491 1036 c 0
 502.333333333 1050.66666667 508 1074 508 1106 c 2
 508 1156 l 1
 450 1156 l 1
 450 1320 l 1
 588 1320 l 1
 588 1113 l 2
EndSplineSet
EndChar

StartChar: ellipsis
Encoding: 8230 8230 348
Width: 1869
VWidth: 1583
Flags: W
LayerCount: 2
Fore
SplineSet
956 -113 m 1
 956 49 l 1
 1094 49 l 1
 1094 -113 l 1
 956 -113 l 1
1519 -113 m 1
 1519 49 l 1
 1657 49 l 1
 1657 -113 l 1
 1519 -113 l 1
393 -113 m 1
 393 49 l 1
 531 49 l 1
 531 -113 l 1
 393 -113 l 1
EndSplineSet
EndChar

StartChar: perthousand
Encoding: 8240 8240 349
Width: 1868
VWidth: 1691
Flags: W
LayerCount: 2
Fore
SplineSet
1591 105 m 256
 1630.33333333 105 1665 120 1695 150 c 256
 1725 180 1740 214.333333333 1740 253 c 256
 1740 292.866666667 1725.33333333 328.2 1696 359 c 256
 1667.42857143 389 1632.42857143 404 1591 404 c 0
 1551 404 1516 389 1486 359 c 256
 1456.66666667 329.666666667 1442 294.333333333 1442 253 c 0
 1442 212.904761905 1457 178.571428571 1487 150 c 256
 1517 120 1551.66666667 105 1591 105 c 256
978 105 m 256
 1038.33333333 105 1084 136 1115 198 c 0
 1123.66666667 216 1128 234.333333333 1128 253 c 256
 1128 294.428571429 1113 329.428571429 1083 358 c 256
 1052.33333333 388.666666667 1017.33333333 404 978 404 c 256
 937.238095238 404 902.571428571 389 874 359 c 256
 844.666666667 328.2 830 292.866666667 830 253 c 256
 830 212.904761905 845 178.571428571 875 150 c 256
 905 120 939.333333333 105 978 105 c 256
467.875 1078 m 0
 395.217592593 1078 345.259259259 1047.33333333 318 986 c 256
 310 968 306 949 306 929 c 256
 306 890.466666667 320.666666667 855.8 350 825 c 256
 378.571428571 795 413.571428571 780 455 780 c 256
 494.333333333 780 529 795 559 825 c 256
 589 855 604 889.666666667 604 929 c 256
 604 971.190476191 588.625 1006.57142857 557.875 1035.14285714 c 128
 527.125 1063.71428571 497.125 1078 467.875 1078 c 0
312 -29 m 1
 1006 1197 l 1
 1008 1200 l 1
 1114 1200 l 1
 420 -26 l 1
 418 -29 l 1
 312 -29 l 1
1408 437 m 256
 1459.33333333 488.333333333 1520.5 514 1591.5 514 c 0
 1661.83333333 514 1722.66666667 488.333333333 1774 437 c 256
 1824.66666667 384.885714286 1850 323.552380953 1850 253 c 0
 1850 184.647058823 1824.66666667 123.647058823 1774 70 c 256
 1725.38888889 20 1664.38888889 -5 1591 -5 c 0
 1520.42857143 -5 1459.42857143 20 1408 70 c 256
 1356.66666667 121.333333333 1331 182.333333333 1331 253 c 0
 1331 322.866666667 1356.66666667 384.2 1408 437 c 256
455 1189 m 256
 524.2 1189 585.2 1163.33333333 638 1112 c 256
 689.333333333 1062.09259259 715 1001.09259259 715 929 c 0
 715 857.666666667 689.333333333 796.333333333 638 745 c 256
 585.885714286 694.333333333 524.885714286 669 455 669 c 256
 385.133333333 669 323.8 694.666666667 271 746 c 256
 221 796 196 857 196 929 c 256
 196 998.843137253 221.333333333 1059.84313725 272 1112 c 256
 323.333333333 1163.33333333 384.333333333 1189 455 1189 c 256
978 514 m 256
 1047.86666667 514 1109.2 488.333333333 1162 437 c 256
 1213.33333333 385.666666667 1239 324.333333333 1239 253 c 0
 1239 183.8 1213.33333333 122.8 1162 70 c 256
 1112 20 1050.66666667 -5 978 -5 c 256
 908.114285714 -5 847.114285714 20.3333333333 795 71 c 256
 745 119.611111111 720 180.277777778 720 253 c 256
 720 323.552380953 745.333333333 384.885714286 796 437 c 256
 845.907407407 488.333333333 906.574074074 514 978 514 c 256
EndSplineSet
EndChar

StartChar: questiondown
Encoding: 191 191 350
Width: 932
VWidth: 1626
Flags: W
LayerCount: 2
Fore
SplineSet
585 843 m 1
 585 679 l 1
 447 679 l 1
 447 843 l 1
 585 843 l 1
875 -29 m 1
 882.868247695 -84.0777338607 876.868247695 -138.744400527 857 -193 c 256
 821.7381117 -289.292079588 755.404778367 -355.958746255 658 -393 c 256
 610.666666667 -411.666666667 558.666666667 -421 502 -421 c 0
 386.945736434 -421 295.612403101 -391.333333333 228 -332 c 256
 161.333333333 -272.277777778 128 -193.611111111 128 -96 c 0
 128 -46 139.333333333 -2.66666666667 162 34 c 0
 184 70.6666666667 210.833333333 104.5 242.5 135.5 c 128
 274.166666667 166.5 307 197 341 227 c 0
 415.902661899 293.090584029 455.235995233 358.757250695 459 424 c 0
 461 459.333333333 462.333333333 494 463 528 c 1
 463 535 l 1
 575 535 l 1
 575 528 l 1
 576.333333333 465.333333333 572 408.166666667 562 356.5 c 128
 552 304.833333333 524.666666667 255.666666667 480 209 c 0
 455.333333333 183 429.5 157.5 402.5 132.5 c 0
 340.430417495 75.0281643473 299.663021869 28.7435387674 280.197813121 -6.35387673956 c 0
 245.877895372 -68.2355872833 241.478624332 -128.450961703 267 -187 c 256
 289.201305538 -237.932406823 332.867972205 -274.932406823 398 -298 c 256
 430 -309.333333333 466.333333333 -315 507 -315 c 0
 586.017543859 -315 648.684210526 -288.333333333 695 -235 c 256
 739.633266533 -181.997995992 760.633266533 -115.997995992 758 -37 c 1
 758 -29 l 1
 875 -29 l 1
EndSplineSet
EndChar

StartChar: grave
Encoding: 96 96 351
Width: 611
VWidth: 1798
Flags: W
LayerCount: 2
Fore
SplineSet
109 1320 m 1
 261 1320 l 1
 460 1072 l 1
 356 1072 l 1
 109 1320 l 1
EndSplineSet
EndChar

StartChar: acute
Encoding: 180 180 352
Width: 634
VWidth: 1798
Flags: W
LayerCount: 2
Fore
SplineSet
242 1072 m 1
 439 1318 l 1
 441 1320 l 1
 591 1320 l 1
 346 1072 l 1
 242 1072 l 1
EndSplineSet
EndChar

StartChar: circumflex
Encoding: 710 710 353
Width: 623
VWidth: 1798
Flags: W
LayerCount: 2
Fore
SplineSet
215 1072 m 1
 86 1072 l 1
 289 1318 l 1
 291 1320 l 1
 411 1320 l 1
 613 1072 l 1
 485 1072 l 1
 350 1239 l 1
 217 1074 l 1
 215 1072 l 1
EndSplineSet
EndChar

StartChar: tilde
Encoding: 732 732 354
Width: 623
VWidth: 1795
Flags: W
LayerCount: 2
Fore
SplineSet
626 1276 m 1
 623.372549019 1254.98039216 618.372549019 1230.64705883 611 1203 c 1
 611 1202 l 1
 610 1201 l 1
 597.333333333 1173.66666667 581 1149.33333333 561 1128 c 128
 541 1106.66666667 516.166666667 1096 486.5 1096 c 0
 446.166666667 1096 408 1104.83333333 372 1122.5 c 0
 304.754716981 1155.5 258.943396227 1172 234.566037736 1172 c 128
 210.188679245 1172 192.833333333 1164.33333333 182.5 1149 c 0
 175.119047619 1138.04761905 165.619047619 1118.04761905 154 1089 c 1
 81 1089 l 1
 91.5091693635 1173.07335491 126.17583603 1228.74002157 185 1256 c 0
 224.563421829 1273.89773845 271.230088495 1270.89773845 325 1247 c 0
 343 1239 361.333333333 1230.66666667 380 1222 c 0
 425.209302325 1201.00996678 458.209302325 1191.00996678 479 1192 c 0
 515.666666667 1192 538.666666667 1220 548 1276 c 1
 626 1276 l 1
EndSplineSet
EndChar

StartChar: macron
Encoding: 175 175 355
AltUni2: 0002c9.ffffffff.0
Width: 623
VWidth: 1795
Flags: W
LayerCount: 2
Fore
SplineSet
93 1223 m 1
 607 1223 l 1
 607 1132 l 1
 93 1132 l 1
 93 1223 l 1
EndSplineSet
EndChar

StartChar: breve
Encoding: 728 728 356
Width: 623
VWidth: 1798
Flags: W
LayerCount: 2
Fore
SplineSet
181 1309 m 1
 196.463732681 1216.21760391 253.463732681 1170.55093725 352 1172 c 256
 446.483091787 1172 504.483091787 1215.66666667 526 1303 c 1
 527 1309 l 1
 603 1309 l 1
 603 1301 l 1
 595 1228.33333333 567.666666667 1173.5 521 1136.5 c 128
 474.333333333 1099.5 415.833333333 1081 345.5 1081 c 128
 275.166666667 1081 218.333333333 1100.33333333 175 1139 c 256
 132.333333333 1177.66666667 107.666666667 1231.66666667 101 1301 c 1
 101 1309 l 1
 181 1309 l 1
EndSplineSet
EndChar

StartChar: dotaccent
Encoding: 729 729 357
Width: 621
VWidth: 1795
Flags: W
LayerCount: 2
Fore
SplineSet
279 1272 m 1
 403 1272 l 1
 403 1085 l 1
 279 1085 l 1
 279 1272 l 1
EndSplineSet
EndChar

StartChar: dieresis
Encoding: 168 168 358
Width: 623
VWidth: 1795
Flags: W
LayerCount: 2
Fore
SplineSet
425 1272 m 1
 549 1272 l 1
 549 1085 l 1
 425 1085 l 1
 425 1272 l 1
156 1272 m 1
 280 1272 l 1
 280 1085 l 1
 156 1085 l 1
 156 1272 l 1
EndSplineSet
EndChar

StartChar: ring
Encoding: 730 730 359
Width: 621
VWidth: 1810
Flags: W
LayerCount: 2
Fore
SplineSet
342 1160 m 256
 369.333333333 1160 393.333333333 1170.66666667 414 1192 c 256
 435.333333333 1213.33333333 446 1237.33333333 446 1264 c 256
 446 1291.33333333 435.666666667 1316 415 1338 c 256
 394.333333333 1360 370 1371 342 1371 c 256
 314 1371 289.333333333 1360.33333333 268 1339 c 256
 246.666666667 1317.66666667 236 1292.83333333 236 1264.5 c 128
 236 1236.16666667 246.666666667 1211.66666667 268 1191 c 256
 290 1170.33333333 314.666666667 1160 342 1160 c 256
342 1090 m 256
 294 1090 252.666666667 1107.33333333 218 1142 c 256
 183.333333333 1176.66666667 166 1217.33333333 166 1264 c 0
 166 1312 183.333333333 1353.33333333 218 1388 c 256
 251.92 1423.33333333 293.253333333 1441 342 1441 c 256
 390.08 1441 431.08 1423.33333333 465 1388 c 256
 499 1352.58333333 516 1311.25 516 1264 c 256
 516 1217.33333333 498.666666667 1176.66666667 464 1142 c 256
 429.333333333 1107.33333333 388.666666667 1090 342 1090 c 256
EndSplineSet
EndChar

StartChar: cedilla
Encoding: 184 184 360
Width: 617
VWidth: 1530
Flags: W
LayerCount: 2
Fore
SplineSet
314 -248 m 1
 334 -244 348.333333333 -242 357 -242 c 0
 396.333333333 -242 428 -251.666666667 452 -271 c 256
 476 -290.333333333 490.333333333 -313.666666667 495 -341 c 0
 504.732936213 -398.007197816 488.732936213 -442.340531149 447 -474 c 0
 409.666666667 -502 361 -516 301 -516 c 0
 261.307692308 -516 209.307692308 -505 145 -483 c 1
 137 -481 l 1
 166 -423 l 1
 168 -418 l 1
 220 -435.333333333 254.666666667 -444 272 -444 c 0
 324 -444 358.666666667 -431 376 -405 c 0
 382 -396.333333333 385 -383.666666667 385 -367 c 128
 385 -350.333333333 377 -337.166666667 361 -327.5 c 128
 345 -317.833333333 329.333333333 -313 314 -313 c 128
 298.666666667 -313 271 -318 231 -328 c 1
 203 -303 l 1
 198 -299 l 1
 303 -155 l 1
 305 -152 l 1
 390 -152 l 1
 314 -248 l 1
EndSplineSet
EndChar

StartChar: hungarumlaut
Encoding: 733 733 361
Width: 663
VWidth: 1798
Flags: W
LayerCount: 2
Fore
SplineSet
545 1072 m 1
 741 1318 l 1
 743 1320 l 1
 894 1320 l 1
 651 1074 l 1
 648 1072 l 1
 545 1072 l 1
271 1072 m 1
 468 1318 l 1
 470 1320 l 1
 620 1320 l 1
 375 1072 l 1
 271 1072 l 1
EndSplineSet
EndChar

StartChar: ogonek
Encoding: 731 731 362
Width: 616
VWidth: 1533
Flags: W
LayerCount: 2
Fore
SplineSet
398 -149 m 1
 398 -164 l 1
 308 -209 263 -256.333333333 263 -306 c 0
 263 -336 273.666666667 -358.5 295 -373.5 c 128
 316.333333333 -388.5 339.083333333 -396 363.25 -396 c 128
 387.416666667 -396 415.333333333 -389.666666667 447 -377 c 1
 447 -467 l 1
 418.666666667 -478.333333333 389.75 -484 360.25 -484 c 128
 330.75 -484 305.666666667 -481 285 -475 c 0
 239.771378709 -461.869109947 207.104712042 -435.869109947 187 -397 c 256
 177 -377 172 -350.5 172 -317.5 c 128
 172 -284.5 185.5 -252.5 212.5 -221.5 c 0
 240.014285714 -189.909523809 270.514285714 -165.742857143 304 -149 c 1
 398 -149 l 1
EndSplineSet
EndChar

StartChar: caron
Encoding: 711 711 363
Width: 623
VWidth: 1798
Flags: W
LayerCount: 2
Fore
SplineSet
485 1320 m 1
 613 1320 l 1
 413 1074 l 1
 411 1072 l 1
 291 1072 l 1
 96 1309 l 1
 86 1320 l 1
 215 1320 l 1
 350 1152 l 1
 483 1318 l 1
 485 1320 l 1
EndSplineSet
EndChar

StartChar: emdash
Encoding: 8212 8212 364
Width: 1868
VWidth: 1660
Flags: W
LayerCount: 2
Fore
SplineSet
172 366 m 1
 172 455 l 1
 1876 455 l 1
 1876 366 l 1
 172 366 l 1
EndSplineSet
EndChar

StartChar: AE
Encoding: 198 198 365
Width: 1890
VWidth: 1696
Flags: W
LayerCount: 2
Fore
SplineSet
798 1111 m 1
 528 487 l 1
 981 487 l 1
 981 1111 l 1
 798 1111 l 1
181 -0 m 1
 718 1220 l 1
 720 1224 l 1
 1808 1224 l 1
 1808 1111 l 1
 1112 1111 l 1
 1112 693 l 1
 1745 693 l 1
 1745 582 l 1
 1112 582 l 1
 1112 112 l 1
 1827 112 l 1
 1827 -0 l 1
 981 -0 l 1
 981 382 l 1
 475 382 l 1
 314 4 l 1
 312 -0 l 1
 181 -0 l 1
EndSplineSet
EndChar

StartChar: ordfeminine
Encoding: 170 170 366
Width: 624
VWidth: 1773
Flags: W
LayerCount: 2
Fore
SplineSet
467 1059 m 1
 435.924444445 1047.55111111 388.655555556 1039.18888889 325.193333333 1033.91333333 c 128
 261.731111111 1028.63777778 216 1017.83333333 188 1001.5 c 128
 160 985.166666667 146 961.166666667 146 929.5 c 128
 146 897.833333333 158.5 874.333333333 183.5 859 c 128
 208.5 843.666666667 234.833333333 836 262.5 836 c 0
 354.672413793 836 417.172413793 864 450 920 c 0
 461.333333333 938.666666667 467 961 467 987 c 2
 467 1059 l 1
616 790 m 1
 589.636363637 779.454545455 559.96969697 776.121212121 527 780 c 1
 526 780 l 1
 500.666666667 784 485.166666667 793.166666667 479.5 807.5 c 128
 473.833333333 821.833333333 470 836 468 850 c 1
 413.333333333 797.333333333 345 771.333333333 263 772 c 0
 174.333333333 772 114 801 82 859 c 256
 71.3333333333 879 66 902.333333333 66 929 c 0
 66 1022.33333333 134 1077.66666667 270 1095 c 2
 362 1107 l 1
 407.683060109 1111.80874317 435.43715847 1116.51092896 445.262295082 1121.10655738 c 0
 459.754098361 1127.88498149 467 1145.22849462 467 1173.13709677 c 128
 467 1201.04569892 456.666666667 1225 436 1245 c 256
 415.333333333 1265 381.666666667 1275 335 1275 c 128
 288.333333333 1275 251 1266.5 223 1249.5 c 0
 197.225165563 1233.85099338 180.225165563 1201.35099338 172 1152 c 1
 91 1152 l 1
 91 1160 l 1
 97 1224.66666667 122.833333333 1270.66666667 168.5 1298 c 128
 214.166666667 1325.33333333 269.333333333 1339 334 1339 c 0
 435.575757576 1339 500.909090909 1309 530 1249 c 256
 541.333333333 1227 547 1200.33333333 547 1169 c 2
 547 883 l 2
 547 861.666666667 550.333333333 848.666666667 557 844 c 256
 563.88172043 839.182795699 583.548387097 842.182795699 616 853 c 1
 616 790 l 1
EndSplineSet
EndChar

StartChar: Oslash
Encoding: 216 216 367
Width: 1481
VWidth: 1694
Flags: W
LayerCount: 2
Fore
SplineSet
510 186 m 1
 586.32 114 685.986666667 78 809 78 c 0
 959.72072072 78 1074.72072072 131.333333333 1154 238 c 0
 1224.66666667 334.839506173 1260 459.506172839 1260 612 c 0
 1260 737.863247863 1234.33333333 846.863247863 1183 939 c 1
 510 186 l 1
1119 1019 m 1
 1040.28 1101 935.613333333 1142 805 1142 c 0
 657 1142 542.666666667 1087 462 977 c 0
 391.333333333 878.851851852 356 754.518518519 356 604 c 0
 356 466.666666667 385.333333333 351.333333333 444 258 c 1
 1119 1019 l 1
1200 1110 m 1
 1341 1271 l 1
 1412 1206 l 1
 1417 1202 l 1
 1270 1032 l 1
 1301.33333333 994.666666667 1329 939.666666667 1353 867 c 128
 1377 794.333333333 1389.16666667 710.166666667 1389.5 614.5 c 128
 1389.83333333 518.833333333 1377.66666667 432.166666667 1353 354.5 c 128
 1328.33333333 276.833333333 1292 208.666666667 1244 150 c 0
 1139.81818182 22.6666666667 994.151515153 -41 807 -41 c 0
 657.207650273 -41 531.87431694 2.33333333333 431 89 c 1
 292 -69 l 1
 287 -75 l 1
 216 -12 l 1
 210 -8 l 1
 361 164 l 1
 272.381416203 277.749226963 227.381416203 424.41589363 226 604 c 0
 226 791.6 276.166666667 945.6 376.5 1066 c 0
 480.944444445 1191.33333333 619.358187135 1254 791.74122807 1254 c 128
 964.124269003 1254 1100.21052631 1206 1200 1110 c 1
EndSplineSet
EndChar

StartChar: OE
Encoding: 338 338 368
Width: 1898
VWidth: 1696
Flags: W
LayerCount: 2
Fore
SplineSet
1113 374 m 2
 1113 841 l 2
 1113 940.333333333 1083.33333333 1015.66666667 1024 1067 c 128
 964.666666667 1118.33333333 876.666666667 1144 760 1144 c 128
 643.333333333 1144 550.666666667 1099.33333333 482 1010 c 128
 413.333333333 920.666666667 379 787 379 609 c 0
 379 355.909090909 453.666666667 190.575757576 603 113 c 0
 654.333333333 86.3333333333 709 73 767 73 c 0
 870.983333333 73 959.316666667 102.666666667 1032 162 c 0
 1066 190 1088 221.5 1098 256.5 c 128
 1108 291.5 1113 330.666666667 1113 374 c 2
1118 -0 m 1
 1118 111 l 1
 1070.07953724 66.7657266811 1029.43275488 36.2071583514 996.059652928 19.3242950108 c 0
 928.422985085 -14.8919016631 851.670542636 -32 765.802325581 -32 c 128
 679.934108527 -32 603.5 -14 536.5 22 c 128
 469.5 58 414.666666667 106 372 166 c 0
 290.666666667 280.375 250 429.375 250 613 c 0
 250 802.428571429 291 953.761904762 373 1067 c 0
 463.644164295 1193.61407076 597.977497628 1256.28073743 776 1255 c 0
 850 1255 915.833333333 1244.83333333 973.5 1224.5 c 128
 1031.16666667 1204.16666667 1079.33333333 1166.66666667 1118 1112 c 1
 1118 1224 l 1
 1826 1224 l 1
 1826 1111 l 1
 1244 1111 l 1
 1244 693 l 1
 1789 693 l 1
 1789 581 l 1
 1244 581 l 1
 1244 112 l 1
 1843 112 l 1
 1843 -0 l 1
 1118 -0 l 1
EndSplineSet
EndChar

StartChar: ordmasculine
Encoding: 186 186 369
Width: 624
VWidth: 1773
Flags: W
LayerCount: 2
Fore
SplineSet
200 898 m 128
 232.666666667 856.666666667 280 836 342 836 c 128
 403.911111111 836 452.244444445 858.666666667 487 904 c 0
 517.666666667 945.333333333 533 996 533 1056 c 0
 533 1157.92592593 498.333333333 1225.25925926 429 1258 c 256
 405 1269.33333333 376.166666667 1275 342.5 1275 c 0
 281.1 1275 232.266666667 1252.33333333 196 1207 c 0
 166 1168.25 151 1117.39583333 151 1054.4375 c 128
 151 991.479166667 167.333333333 939.333333333 200 898 c 128
342 772 m 1
 217.551219512 776.444599303 134.551219512 830.11126597 93 933 c 256
 78.3333333333 967.666666667 71.1666666667 1006.66666667 71.5 1050 c 0
 72.5224004843 1182.91206297 123.022400484 1271.91206297 223 1317 c 256
 257 1331.66666667 296.666666667 1339 342 1339 c 256
 429.760683761 1339 497.760683761 1311.33333333 546 1256 c 256
 590.666666667 1206.07843137 613 1138.93137255 613 1054.55882353 c 128
 613 970.18627451 588.333333333 902 539 850 c 256
 489.666666667 798 424 772 342 772 c 1
EndSplineSet
EndChar

StartChar: ae
Encoding: 230 230 370
Width: 1688
VWidth: 1660
Flags: W
LayerCount: 2
Fore
SplineSet
953 469 m 1
 1496 469 l 1
 1494.56890849 552.003307607 1472.90224182 621.003307607 1431 676 c 0
 1384.21158997 735.947650353 1318.5449233 765.280983687 1234 764 c 0
 1138.25185185 764 1065.25185185 728.666666667 1015 658 c 0
 975.380313199 603.973154363 954.713646533 540.973154363 953 469 c 1
829 316 m 2
 829 422 l 1
 793.279069767 404.139534884 743.015503876 391.507751938 678.209302326 384.104651163 c 0
 552.292108367 369.720569796 473.611259489 355.940440927 442.166755694 342.764264556 c 0
 378.722251898 316.179142489 347 273.405484546 347 214.443290727 c 0
 347 100.716869267 405.666666667 44.5691056911 523 46 c 0
 625 46 701.5 70.8333333333 752.5 120.5 c 128
 803.5 170.166666667 829 235.333333333 829 316 c 2
1232 -60 m 0
 1081.40350877 -60 966.736842107 2.33333333333 888 127 c 1
 848.867256637 73.6371681416 811.250737463 35.1297935103 775.150442478 11.4778761062 c 0
 702.418568545 -36.1740412979 615.701754386 -60 515 -60 c 0
 380.104166667 -60 290.9375 -13.6666666667 247.5 79 c 0
 232.5 111 225 148.333333333 225 191 c 0
 225 269 250.666666667 332.5 302 381.5 c 128
 353.333333333 430.5 431.666666667 460.666666667 537 472 c 1
 634 481 l 1
 719.938400397 489.978638847 771.589667163 499.889965226 788.953800298 510.733979136 c 128
 806.317933433 521.577993045 817.333333333 532.166666667 822 542.5 c 128
 826.666666667 552.833333333 829 566 829 582 c 0
 829 653.333333333 813.333333333 701.666666667 782 727 c 128
 750.666666667 752.333333333 699 764.833333333 627 764.5 c 128
 555 764.166666667 498 750.166666667 456 722.5 c 128
 414 694.833333333 389 646.333333333 381 577 c 1
 380 571 l 1
 261 571 l 1
 268.953757225 634.630057803 281.442196532 682.870905588 298.465317919 715.722543353 c 0
 332.866488087 782.110766484 394.044715447 827.869918699 482 853 c 0
 524 864.333333333 568.666666667 870 616 870 c 0
 778.333333333 870 882.333333333 824.333333333 928 733 c 1
 966.666666667 785 1010.83333333 820.833333333 1060.5 840.5 c 128
 1110.16666667 860.166666667 1170.83333333 870 1242.5 870 c 128
 1314.16666667 870 1374.66666667 857 1424 831 c 0
 1517.24825663 781.855648535 1576.58158996 695.855648535 1602 573 c 0
 1613.33333333 515 1619 452.333333333 1619 385 c 2
 1619 378 l 1
 953 378 l 1
 955.31503268 225.207843137 1007.48169935 123.541176471 1109.5 73 c 0
 1145.83333333 55 1193.5 46 1252.5 46 c 128
 1311.5 46 1362 63.5 1404 98.5 c 128
 1446 133.5 1475 181.666666667 1491 243 c 1
 1492 249 l 1
 1613 249 l 1
 1590.62899787 148.330490405 1547.202914 71.6631130064 1482.7217484 18.9978678038 c 128
 1418.2405828 -33.6673773987 1334.66666667 -60 1232 -60 c 0
EndSplineSet
EndChar

StartChar: dotlessi
Encoding: 305 305 371
Width: 427
VWidth: 1660
Flags: W
LayerCount: 2
Fore
SplineSet
171 -44 m 1
 171 846 l 1
 287 846 l 1
 287 -44 l 1
 171 -44 l 1
EndSplineSet
EndChar

StartChar: oslash
Encoding: 248 248 372
Width: 1066
VWidth: 1660
Flags: W
LayerCount: 2
Fore
SplineSet
782 695 m 1
 736.898153034 742.062796834 672.898153034 765.062796834 590 764 c 0
 487.111111111 764 410.777777778 726.666666667 361 652 c 0
 314.230707717 583.850459816 291.56404105 499.517126483 293 399 c 0
 293 310.851851852 308.333333333 239.518518519 339 185 c 1
 782 695 l 1
393 115 m 1
 443.058823529 69 508.725490196 46 590 46 c 0
 691.533333333 46 768.2 83 820 157 c 0
 865.333333333 223.057142857 888 306.057142857 888 406 c 0
 888 500.435897436 872.333333333 574.769230769 841 629 c 1
 393 115 l 1
590 -60 m 0
 484.064516129 -60 394.731182796 -30.3333333333 322 29 c 1
 235 -73 l 1
 230 -78 l 1
 165 -25 l 1
 159 -21 l 1
 257 95 l 1
 200.415245737 172.961216984 171.415245737 275.627883651 170 403 c 0
 170 536.585760518 204.5 646.252427185 273.5 732 c 0
 347.53125 824 453.03125 870 590 870 c 0
 698.952380953 870 787.952380953 841 857 783 c 1
 940 882 l 1
 944 888 l 1
 1009 830 l 1
 1014 826 l 1
 920 716 l 1
 980 634.181818182 1010 529.848484849 1010 403 c 0
 1010 265.820512821 974 154.653846154 902 69.5 c 0
 829.002710027 -16.8333333333 725.002710027 -60 590 -60 c 0
EndSplineSet
EndChar

StartChar: oe
Encoding: 339 339 373
Width: 1791
VWidth: 1660
Flags: W
LayerCount: 2
Fore
SplineSet
1055 469 m 1
 1602 469 l 1
 1599.74353787 606.644189705 1552.07687121 697.310856372 1459 741 c 0
 1425.66666667 756.333333333 1386.66666667 764 1342 764 c 0
 1213.75757576 764 1126.09090909 702.333333333 1079 579 c 0
 1065.66666667 544.333333333 1057.66666667 507.666666667 1055 469 c 1
419.5 663.5 m 128
 371.166666667 596.5 348.666666667 504.666666667 352 388 c 1
 352 232.647975078 404.833333333 127.814641745 510.5 73.5 c 0
 546.166666667 55.1666666667 588.166666667 46 636.5 46 c 0
 730.56122449 46 803.06122449 80.6666666667 854 150 c 0
 903.301464255 215.291128337 928.634797588 305.957795004 930 422 c 0
 930 523.009009009 904.666666667 605.009009009 854 668 c 0
 801.377777778 732 727.888888889 764 633.533333333 764 c 128
 539.177777778 764 467.833333333 730.5 419.5 663.5 c 128
993 667 m 1
 1069.55218855 802.333333333 1186.55218855 870 1344 870 c 0
 1487.31343283 870 1590.31343283 820 1653 720 c 0
 1700.33333333 644.492063492 1724 532.825396825 1724 385 c 2
 1724 378 l 1
 1054 378 l 1
 1048.68102445 299.988358557 1067.18102445 229.988358557 1109.5 168 c 0
 1165.02564103 86.6666666667 1244.19230769 46 1347 46 c 0
 1410.33333333 46 1464.66666667 64 1510 100 c 0
 1554.66666667 136 1583 183.666666667 1595 243 c 1
 1597 249 l 1
 1714 249 l 1
 1713 240 l 1
 1692.33333333 142.666666667 1649.5 68.3333333333 1584.5 17 c 128
 1519.5 -34.3333333333 1441.5 -60 1350.5 -60 c 128
 1259.5 -60 1184.83333333 -40 1126.5 0 c 128
 1068.16666667 40 1023.33333333 88 992 144 c 1
 956.666666667 78 907.333333333 27.5 844 -7.5 c 128
 780.666666667 -42.5 714 -60 644 -60 c 128
 574 -60 514.166666667 -49.1666666667 464.5 -27.5 c 128
 414.833333333 -5.83333333333 372.5 25.3333333333 337.5 66 c 0
 265.166666667 150.044444445 229 262.377777778 229 403 c 0
 229 539.44 261 648.94 325 731.5 c 0
 396.57622739 823.833333333 500.242894057 870 636 870 c 0
 802.429487179 870 921.429487179 802.333333333 993 667 c 1
EndSplineSet
EndChar

StartChar: germandbls
Encoding: 223 223 374
Width: 964
VWidth: 1696
Flags: W
LayerCount: 2
Fore
SplineSet
524 -31 m 0
 496 -31 471 -27.3333333333 449 -20 c 1
 449 83 l 1
 543.620462046 64.0759075907 621.287128713 77.7425742574 682 124 c 128
 742.666666667 170.222222222 773 243.444444444 773 343.666666667 c 128
 773 443.888888889 749 516 701 560 c 0
 651.666666667 604 570.333333333 626 457 626 c 2
 449 626 l 1
 449 725 l 1
 457 725 l 1
 545.309488326 727.993541977 611.309488326 743.660208644 655 772 c 0
 703.666666667 804.921568627 728 854.318627451 728 920.191176471 c 128
 728 986.06372549 712 1039.66666667 680 1081 c 0
 647.333333333 1121.66666667 598.5 1142 533.5 1142 c 128
 468.5 1142 422 1136.33333333 394 1125 c 0
 341.01489118 1103.55364643 310.348224513 1062.22031309 302 1001 c 0
 297.333333333 971 295 937.666666667 295 901 c 2
 295 -0 l 1
 179 -0 l 1
 179 919 l 2
 179 1137.66666667 288.333333333 1247 507 1247 c 0
 667.862745098 1247 774.029411765 1184.5 825.5 1059.5 c 0
 841.833333333 1019.83333333 850 973.666666667 850 921 c 128
 850 868.333333333 837.333333333 823.166666667 812 785.5 c 128
 786.666666667 747.833333333 754.666666667 713.666666667 716 683 c 1
 800.916478979 647.790728228 856.749812312 578.290728228 883.5 474.5 c 0
 891.833333333 442.166666667 896 410 896 378 c 0
 896 244 864 142.166666667 800 72.5 c 128
 736 2.83333333333 644 -31.6666666667 524 -31 c 0
EndSplineSet
EndChar

StartChar: degree
Encoding: 176 176 375
Width: 747
VWidth: 1766
Flags: W
LayerCount: 2
Fore
SplineSet
535 888 m 256
 570.333333333 924.805555555 588 966.972222222 588 1014.5 c 0
 588 1062.83333333 570.333333333 1104.66666667 535 1140 c 256
 498.401709402 1176.5982906 456.068376069 1194.26495727 408 1193 c 256
 360 1193 318.333333333 1175.33333333 283 1140 c 256
 246.979076479 1105.41991342 229.645743146 1063.75324675 231 1015 c 0
 231 963.613333333 248.333333333 921.28 283 888 c 256
 318.948717949 852.051282051 361.282051282 834.717948718 410 836 c 0
 460.053333333 836 501.72 853.333333333 535 888 c 256
670 1015 m 256
 670 940.814814815 644.333333333 879.481481481 593 831 c 256
 540.2 779.666666667 479.2 754 410 754 c 256
 338 754 276.333333333 779.666666667 225 831 c 256
 174.333333333 883.156862745 149 944.490196079 149 1015 c 0
 149 1087.74074074 174.333333333 1148.74074074 225 1198 c 256
 276.205996295 1250.66902476 337.872662961 1276.33569143 410 1275 c 0
 482.092592593 1275 543.092592593 1249.33333333 593 1198 c 256
 644.333333333 1146.66666667 670 1085.66666667 670 1015 c 256
EndSplineSet
EndChar

StartChar: oacute
Encoding: 243 243 376
Width: 1066
VWidth: 1692
Flags: W
LayerCount: 2
Fore
SplineSet
468 959 m 1
 673 1205 l 1
 675 1208 l 1
 830 1208 l 1
 576 959 l 1
 468 959 l 1
813 189 m 0
 859.741333333 255.773333333 882.408 338.44 881 437 c 0
 881 605.666666667 828.333333333 716.333333333 723 769 c 0
 685.666666667 787.666666667 639.5 797 584.5 797 c 0
 481.717687075 797 404.884353741 760.333333333 354 687 c 0
 308.666666667 622.238095238 286 538.904761905 286 437 c 0
 286 327.18018018 311 240.513513513 361 177 c 0
 411.553191489 111 485.553191489 78 583 78 c 0
 687 78 763.666666667 115 813 189 c 0
583 -28 m 1
 389.204567161 -23.6450464531 260.371233828 64.0216202136 196.5 235 c 0
 174.833333333 293 164 357.333333333 164 428 c 0
 164 645.965811966 241.333333333 791.632478633 396 865 c 0
 449.333333333 889.666666667 512 902 584 902 c 128
 656 902 718.5 889.666666667 771.5 865 c 0
 874.550042553 817.039602837 943.71670922 734.706269503 979 618 c 0
 995.666666667 561.333333333 1004 499.5 1004 432.5 c 0
 1004 297.327160494 966.586021505 186.783950617 891.758064516 100.87037037 c 128
 816.930107527 14.9567901233 714.010752688 -28 583 -28 c 1
EndSplineSet
EndChar

StartChar: Odieresis
Encoding: 214 214 377
Width: 1481
VWidth: 1723
Flags: W
LayerCount: 2
Fore
SplineSet
895 1534 m 1
 1022 1534 l 1
 1022 1348 l 1
 895 1348 l 1
 895 1534 l 1
621 1534 m 1
 748 1534 l 1
 748 1348 l 1
 621 1348 l 1
 621 1534 l 1
1142 1028 m 0
 1060.85714286 1122.66666667 949.523809527 1170 808 1170 c 0
 659.050228311 1170 544.383561644 1115.66666667 464 1007 c 0
 393.333333333 910.160493827 358 785.493827161 358 633 c 128
 358 480.506172839 395.269406393 353.549382716 469.808219178 252.12962963 c 128
 544.347031963 150.709876543 657.40333827 100 808.977138097 100 c 128
 960.550937926 100 1073.9481982 151.043209877 1149.16891892 253.12962963 c 128
 1224.38963964 355.216049383 1262 485.744785015 1262 644.715836526 c 128
 1262 803.686888037 1222 931.448275862 1142 1028 c 0
229 633 m 128
 229 818.603729604 277.5 971.437062937 374.5 1091.5 c 0
 477.104519774 1218.5 620.271186441 1282 804 1282 c 0
 995.386064033 1282 1142.5527307 1219.16666667 1245.5 1093.5 c 0
 1343.89470597 973.390600296 1392.39470597 819.890600296 1391 633 c 0
 1391 447.814814815 1342.66666667 296.148148148 1246 178 c 0
 1142.61842105 51.6447368421 997.118421053 -11.8552631579 809.5 -12.5 c 128
 621.878025273 -13.1447490541 478.222531592 47.8799611183 378.533518955 170.574130517 c 128
 278.844506318 293.268299916 229 447.41025641 229 633 c 128
EndSplineSet
EndChar

StartChar: odieresis
Encoding: 246 246 378
Width: 1066
VWidth: 1688
Flags: W
LayerCount: 2
Fore
SplineSet
670 1158 m 1
 797 1158 l 1
 797 971 l 1
 670 971 l 1
 670 1158 l 1
390 1158 m 1
 519 1158 l 1
 519 971 l 1
 390 971 l 1
 390 1158 l 1
881 432 m 0
 881 600.666666667 828.333333333 711.333333333 723 764 c 0
 685.666666667 782.666666667 639.5 792 584.5 792 c 0
 480.7 792 403.866666667 755.333333333 354 682 c 0
 308.666666667 617.238095238 286 533.904761905 286 432 c 0
 286 322.18018018 311 235.513513513 361 172 c 0
 411.553191489 106 485.553191489 73 583 73 c 0
 687 73 763.018924034 108.52757502 811.056772101 179.582725061 c 128
 859.094620168 250.637875102 882.409029467 334.776966748 881 432 c 0
583 -33 m 1
 389.204567161 -28.6450464531 260.371233828 59.0216202136 196.5 230 c 0
 174.833333333 288 164 352.333333333 164 423 c 0
 164 640.965811966 241.333333333 786.632478633 396 860 c 0
 449.333333333 884.666666667 512 897.166666667 584 897.5 c 128
 656 897.833333333 718.5 885.5 771.5 860.5 c 0
 926.5 787.386792453 1004 644.553459119 1004 432 c 0
 1004 293.462962963 966.658927514 181.667111891 891.976782543 96.6124467845 c 128
 817.294637571 11.5577816779 714.302376723 -31.6463672503 583 -33 c 1
EndSplineSet
EndChar

StartChar: Ecircumflex
Encoding: 202 202 379
Width: 1176
VWidth: 1731
Flags: W
LayerCount: 2
Fore
SplineSet
513 1339 m 1
 384 1339 l 1
 590 1585 l 1
 592 1588 l 1
 717 1588 l 1
 925 1339 l 1
 794 1339 l 1
 654 1507 l 1
 515 1341 l 1
 513 1339 l 1
254 35 m 1
 254 1259 l 1
 1092 1259 l 1
 1092 1146 l 1
 383 1146 l 1
 383 728 l 1
 1024 728 l 1
 1024 616 l 1
 383 616 l 1
 383 147 l 1
 1108 147 l 1
 1108 35 l 1
 254 35 l 1
EndSplineSet
EndChar

StartChar: ucircumflex
Encoding: 251 251 380
Width: 1066
VWidth: 1692
Flags: W
LayerCount: 2
Fore
SplineSet
450 959 m 1
 322 959 l 1
 527 1205 l 1
 529 1208 l 1
 657 1208 l 1
 863 959 l 1
 735 959 l 1
 593 1127 l 1
 452 962 l 1
 450 959 l 1
828 879 m 1
 944 879 l 1
 944 -4 l 1
 828 -4 l 1
 828 104 l 1
 792.831908832 66.6339031339 762.873219373 40.1257122507 738.123931624 24.4754273504 c 0
 682.801000464 -10.5081908832 620.949612403 -28 552.569767442 -28 c 128
 484.189922481 -28 429.666666667 -19.6666666667 389 -3 c 128
 348.333333333 13.6666666667 315.5 37 290.5 67 c 0
 244.166666667 122.6 221 199.933333333 221 299 c 2
 221 879 l 1
 336 879 l 1
 336 302 l 2
 336 229.333333333 352.833333333 173.833333333 386.5 135.5 c 128
 420.166666667 97.1666666667 478 78 560 78 c 0
 687.819209039 78 771.152542373 141.666666667 810 269 c 0
 822 308.333333333 828 351.666666667 828 399 c 2
 828 879 l 1
EndSplineSet
EndChar

StartChar: logicalnot
Encoding: 172 172 381
Width: 1232
VWidth: 1655
Flags: W
LayerCount: 2
Fore
SplineSet
983 496 m 1
 246 496 l 1
 246 611 l 1
 1106 611 l 1
 1106 148 l 1
 983 148 l 1
 983 496 l 1
EndSplineSet
EndChar

StartChar: Edieresis
Encoding: 203 203 382
Width: 1176
VWidth: 1726
Flags: W
LayerCount: 2
Fore
SplineSet
453 1538 m 1
 580 1538 l 1
 580 1351 l 1
 453 1351 l 1
 453 1538 l 1
730 1538 m 1
 860 1538 l 1
 860 1351 l 1
 730 1351 l 1
 730 1538 l 1
254 30 m 1
 254 1254 l 1
 1092 1254 l 1
 1092 1142 l 1
 383 1142 l 1
 383 723 l 1
 1024 723 l 1
 1024 612 l 1
 383 612 l 1
 383 142 l 1
 1108 142 l 1
 1108 30 l 1
 254 30 l 1
EndSplineSet
EndChar

StartChar: Otilde
Encoding: 213 213 383
Width: 1481
VWidth: 1723
Flags: W
LayerCount: 2
Fore
SplineSet
543 1351 m 1
 548.692307692 1396.53846154 560.782051282 1432.58974359 579.269230769 1459.15384615 c 128
 597.756410256 1485.71794872 621.333333333 1505.33333333 650 1518 c 0
 690.045801527 1535.69465649 737.712468193 1532.69465649 793 1509 c 0
 811 1501 829.5 1492.66666667 848.5 1484 c 0
 893.807692308 1463.33333333 927.884615385 1453 950.730769231 1453 c 128
 973.576923077 1453 989.666666667 1461.33333333 999 1478 c 0
 1009.37037037 1496.51851852 1016.70370371 1516.51851852 1021 1538 c 1
 1100 1538 l 1
 1097.82222222 1520.57777778 1095.44444444 1506.55555556 1092.86666667 1495.93333333 c 128
 1090.28888889 1485.31111111 1088 1475 1086 1465 c 1
 1085 1464 l 1
 1071.66666667 1436 1054.83333333 1411.33333333 1034.5 1390 c 128
 1014.16666667 1368.66666667 988.833333333 1358 958.5 1358 c 0
 918.966666667 1358 880.166666667 1366.83333333 842.1 1384.5 c 0
 770.994339623 1417.5 723.367924528 1434 699.220754717 1434 c 128
 675.073584906 1434 657.666666667 1426.33333333 647 1411 c 0
 640.725490196 1401.98039216 631.392156863 1381.98039216 619 1351 c 1
 543 1351 l 1
1156 261 m 0
 1226.66666667 357.839506173 1262 481.839506173 1262 633 c 0
 1262 799.781609195 1222 931.448275862 1142 1028 c 0
 1060.28571429 1123.33333333 948.952380953 1171 808 1171 c 0
 658.450450451 1171 543.783783784 1116.33333333 464 1007 c 0
 393.333333333 910.160493827 358 785.493827161 358 633 c 128
 358 480.506172839 395.269406393 353.549382716 469.808219178 252.12962963 c 128
 544.347031963 150.709876543 657.130136986 100 808.157534247 100 c 128
 959.184931509 100 1075.13242009 153.666666667 1156 261 c 0
377.703389831 172.059440559 m 128
 278.56779661 294.765734266 229 448.91958042 229 634.520979021 c 128
 229 820.122377622 278.979166667 974.435897435 378.9375 1097.46153846 c 128
 478.895833333 1220.48717949 622.498106061 1282 809.744318182 1282 c 128
 996.990530301 1282 1141.02600424 1220.80981554 1241.85074001 1098.42944661 c 128
 1342.67547577 976.049077684 1392.73986971 821.837272129 1392.04392183 635.794029944 c 128
 1391.34797394 449.750787759 1341.00282486 295.274305556 1241.00847458 172.364583333 c 128
 1141.01412429 49.454861111 996.915254236 -12 808.711864407 -12 c 128
 620.508474576 -12 476.838983051 49.353146853 377.703389831 172.059440559 c 128
EndSplineSet
EndChar

StartChar: uacute
Encoding: 250 250 384
Width: 1066
VWidth: 1692
Flags: W
LayerCount: 2
Fore
SplineSet
465 959 m 1
 675 1205 l 1
 677 1208 l 1
 829 1208 l 1
 576 959 l 1
 465 959 l 1
828 879 m 1
 944 879 l 1
 944 -4 l 1
 828 -4 l 1
 828 104 l 1
 792.831908832 66.6339031339 762.873219373 40.1257122507 738.123931624 24.4754273504 c 0
 682.801000464 -10.5081908832 620.949612403 -28 552.569767442 -28 c 128
 484.189922481 -28 429.666666667 -19.6666666667 389 -3 c 128
 348.333333333 13.6666666667 315.5 37 290.5 67 c 0
 244.166666667 122.6 221 199.933333333 221 299 c 2
 221 879 l 1
 336 879 l 1
 336 302 l 2
 336 229.333333333 352.833333333 173.833333333 386.5 135.5 c 128
 420.166666667 97.1666666667 478 78 560 78 c 0
 687.819209039 78 771.152542373 141.666666667 810 269 c 0
 822 308.333333333 828 351.666666667 828 399 c 2
 828 879 l 1
EndSplineSet
EndChar

StartChar: eacute
Encoding: 233 233 385
Width: 1066
VWidth: 1692
Flags: W
LayerCount: 2
Fore
SplineSet
468 959 m 1
 673 1205 l 1
 676 1208 l 1
 830 1208 l 1
 576 959 l 1
 468 959 l 1
299 502 m 1
 869 502 l 1
 866.723171266 636.332895313 815.389837933 726.666228647 715 773 c 0
 679.666666667 789 639 797 593 797 c 0
 465.790123457 797 376.790123457 734.666666667 326 610 c 0
 312.666666667 576 303.666666667 540 299 502 c 1
992 407 m 1
 298 407 l 1
 300.317563893 256.358346928 354.98423056 155.691680261 462 105 c 0
 500 87 548.333333333 78 607 78 c 128
 665.666666667 78 718.666666667 95 766 129 c 0
 815.411764706 166.058823529 846.411764706 216.058823529 859 279 c 1
 987 279 l 1
 969 225 950.666666667 181.5 932 148.5 c 0
 865.441077441 30.8333333333 752.441077441 -28 593 -28 c 0
 450.333333333 -28 344 17 274 107 c 0
 208.666666667 188.013333333 176 296.68 176 433 c 0
 176 565.488888889 212.166666667 675.822222222 284.5 764 c 0
 359.96875 856 462.0859375 902 590.8515625 902 c 128
 719.6171875 902 819 860 889 776 c 128
 959 692 993.333333333 571.333333333 992 414 c 1
 992 407 l 1
EndSplineSet
EndChar

StartChar: iacute
Encoding: 237 237 386
Width: 434
VWidth: 1695
Flags: W
LayerCount: 2
Fore
SplineSet
111 976 m 1
 298 1210 l 1
 451 1210 l 1
 207 966 l 1
 205 962 l 1
 102 962 l 1
 111 976 l 1
185 -1 m 1
 185 881 l 1
 301 881 l 1
 301 -1 l 1
 185 -1 l 1
EndSplineSet
EndChar

StartChar: icircumflex
Encoding: 238 238 387
Width: 422
VWidth: 1695
Flags: W
LayerCount: 2
Fore
SplineSet
75 962 m 1
 -53 962 l 1
 -44 976 l 1
 148 1210 l 1
 273 1210 l 1
 464 976 l 1
 474 962 l 1
 344 962 l 1
 342 967 l 1
 210 1132 l 1
 77 967 l 1
 75 962 l 1
174 -1 m 1
 174 881 l 1
 290 881 l 1
 290 -1 l 1
 174 -1 l 1
EndSplineSet
EndChar

StartChar: registered
Encoding: 174 174 388
Width: 1494
VWidth: 1696
Flags: W
LayerCount: 2
Fore
SplineSet
678 664 m 1
 885 664 l 2
 950.538461539 664 996.871794872 679.333333333 1024 710 c 0
 1039.33333333 726.666666667 1047 750.166666667 1047 780.5 c 0
 1047 831.934782609 1029.33333333 866.101449275 994 883 c 0
 966 897 926.333333333 904 875 904 c 2
 678 904 l 1
 678 664 l 1
1156 784 m 0
 1156 659.761904762 1083 592.428571429 937 582 c 1
 1153 251 l 1
 1031 251 l 1
 827 581 l 1
 678 581 l 1
 678 251 l 1
 575 251 l 1
 575 980 l 1
 895 980 l 2
 991.666666667 980 1059.33333333 962.666666667 1098 928 c 128
 1136.66666667 893.333333333 1156 845.333333333 1156 784 c 0
821 66 m 256
 973.432432433 66 1100.0990991 119.333333333 1201 226 c 256
 1301 331.714285714 1351 462.047619047 1351 617 c 0
 1351 770.619047619 1301 900.285714286 1201 1006 c 256
 1101.36036036 1111.33333333 974.693693693 1164 821 1164 c 0
 665.306306306 1164 537.639639639 1111.33333333 438 1006 c 256
 337.333333333 901.079812207 287 771.41314554 287 617 c 0
 287 461.253521127 337.333333333 330.920187793 438 226 c 256
 540.342342343 119.333333333 668.009009009 66 821 66 c 256
1072 19 m 256
 994 -15 910.166666667 -32 820.5 -32 c 128
 730.833333333 -32 646.666666667 -15 568 19 c 256
 407.408284024 88.408284024 292.408284024 203.408284024 223 364 c 256
 189 442.666666667 172 526.833333333 172 616.5 c 128
 172 706.166666667 189 790 223 868 c 256
 291.325762953 1026.08705938 406.325762953 1140.75372605 568 1212 c 256
 646.666666667 1246 730.666666667 1262.83333333 820 1262.5 c 0
 999.670411987 1261.82958801 1152.33707865 1198.66292135 1278 1073 c 256
 1336.66666667 1015 1382.66666667 946.666666667 1416 868 c 256
 1449.33333333 789.333333333 1466 705.333333333 1466 616 c 128
 1466 526.666666667 1449.33333333 442.666666667 1416 364 c 256
 1348.10831721 203.775628627 1233.44165055 88.7756286267 1072 19 c 256
EndSplineSet
EndChar

StartChar: Atilde
Encoding: 195 195 389
Width: 1274
VWidth: 1727
Flags: W
LayerCount: 2
Fore
SplineSet
990 1542 m 1
 986.533333333 1514.26666667 981.2 1489.6 974 1468 c 1
 974 1467 l 1
 960.666666667 1439.66666667 943.833333333 1415.16666667 923.5 1393.5 c 128
 903.166666667 1371.83333333 877.833333333 1361 847.5 1361 c 128
 817.166666667 1361 791.166666667 1365.16666667 769.5 1373.5 c 128
 747.833333333 1381.83333333 726.5 1390.66666667 705.5 1400 c 0
 650 1424.66666667 610.375 1437 586.625 1437 c 128
 562.875 1437 545.666666667 1429.33333333 535 1414 c 0
 529.666666667 1406.33333333 520.666666667 1386.66666667 508 1355 c 1
 432 1355 l 1
 442.56 1439.48 478.226666667 1495.14666667 539 1522 c 0
 567.666666667 1534.66666667 594 1538.16666667 618 1532.5 c 128
 642 1526.83333333 663.333333333 1520 682 1512 c 128
 700.666666667 1504 719.333333333 1495.83333333 738 1487.5 c 0
 783.546666667 1467.16666667 817.6 1457 840.16 1457 c 128
 862.72 1457 878.666666667 1465.16666667 888 1481.5 c 0
 899.215686275 1501.12745098 906.549019608 1521.29411765 910 1542 c 1
 990 1542 l 1
701 1136 m 1
 468 525 l 1
 935 525 l 1
 701 1136 l 1
145 30 m 1
 632 1250 l 1
 634 1254 l 1
 777 1254 l 1
 1251 40 l 1
 1254 30 l 1
 1121 30 l 1
 980 412 l 1
 423 412 l 1
 280 35 l 1
 278 30 l 1
 145 30 l 1
EndSplineSet
EndChar

StartChar: Aacute
Encoding: 193 193 390
Width: 1274
VWidth: 1731
Flags: W
LayerCount: 2
Fore
SplineSet
586 1339 m 1
 788 1585 l 1
 790 1588 l 1
 943 1588 l 1
 693 1339 l 1
 586 1339 l 1
701 1140 m 1
 468 529 l 1
 935 529 l 1
 701 1140 l 1
145 35 m 1
 634 1259 l 1
 777 1259 l 1
 1251 44 l 1
 1254 35 l 1
 1121 35 l 1
 980 417 l 1
 423 417 l 1
 280 39 l 1
 278 35 l 1
 145 35 l 1
EndSplineSet
EndChar

StartChar: Ccedilla
Encoding: 199 199 391
Width: 1376
VWidth: 1663
Flags: W
LayerCount: 2
Fore
SplineSet
803 -242 m 0
 803 -225.333333333 794.833333333 -212.166666667 778.5 -202.5 c 128
 762.166666667 -192.833333333 745.833333333 -188 729.5 -188 c 128
 713.166666667 -188 685 -193 645 -203 c 1
 617 -178 l 1
 612 -174 l 1
 689 -71 l 1
 527.760806917 -58.1008645533 405.427473583 10.5658021133 322 135 c 0
 248.111142139 247.107232617 210.444475473 393.44056595 209 574 c 0
 209 794.857142857 264 961.357142857 374 1073.5 c 0
 471.108280255 1172.5 610.108280255 1222 791 1222 c 0
 995.538812787 1222 1138.53881279 1147.66666667 1220 999 c 0
 1250.2294197 943.831309042 1269.2294197 885.164642375 1277 823 c 1
 1144 823 l 1
 1123.55884773 925.205761317 1080.61522633 998.59053498 1015.1691358 1043.15432099 c 128
 949.723045267 1087.718107 872.333333333 1110 783 1110 c 128
 693.666666667 1110 622.5 1095.5 569.5 1066.5 c 0
 415.833333333 982.418238994 339 819.251572327 339 577 c 0
 339 333.473895582 413 169.807228915 561 86 c 0
 616.333333333 54.6666666667 678 39 746 39 c 0
 913.747899159 39 1033.58123249 104.833333333 1105.5 236.5 c 0
 1127.16666667 276.166666667 1143.66666667 320 1155 368 c 1
 1157 373 l 1
 1291 373 l 1
 1257.05211141 237.208445643 1203.88544475 133.708445643 1131.5 62.5 c 0
 1044.25737705 -23.3240437159 924.424043713 -68.1573770492 772 -72 c 1
 730 -122 l 1
 746.666666667 -118.666666667 768.166666667 -117 794.5 -117 c 128
 820.833333333 -117 846.333333333 -126.666666667 871 -146 c 128
 895.666666667 -165.333333333 910.666666667 -188.666666667 916 -216 c 0
 926.858119658 -271.647863248 910.524786325 -315.981196581 867 -349 c 0
 828.333333333 -377 778 -391 716 -391 c 0
 674.307692308 -391 621.307692308 -380 557 -358 c 1
 549 -356 l 1
 579 -298 l 1
 581 -293 l 1
 590.333333333 -294.555555555 607.166666667 -299.277777778 631.5 -307.166666667 c 128
 655.833333333 -315.055555556 675.833333333 -319 691.5 -319 c 0
 765.833333333 -319 803 -293.333333333 803 -242 c 0
EndSplineSet
EndChar

StartChar: ntilde
Encoding: 241 241 392
Width: 1066
VWidth: 1690
Flags: W
LayerCount: 2
Fore
SplineSet
874 1164 m 1
 873.333333333 1158.66666667 868.666666667 1134.33333333 860 1091 c 1
 860 1090 l 1
 859 1089 l 1
 826.070199907 1017.94095769 782.070199907 982.940957694 727 984 c 0
 690.466666667 984 653 992.833333333 614.6 1010.5 c 0
 545.007160293 1042.5175391 497.008950366 1058.77192388 470.60537022 1059.26315433 c 128
 444.201790073 1059.75438478 425.833333333 1052.33333333 415.5 1037 c 0
 411.399470899 1030.91534391 402.566137566 1010.91534391 389 977 c 1
 315 977 l 1
 320.686746988 1022.49397591 332.353413655 1059.49397591 350 1088 c 1
 351 1088 l 1
 369 1112.66666667 391.833333333 1131.33333333 419.5 1144 c 128
 447.166666667 1156.66666667 473.333333333 1160.33333333 498 1155 c 0
 527.477178423 1148.62655601 560.679806362 1137.36652835 597.607883817 1121.21991701 c 0
 662.858477694 1092.68943149 705.989183088 1078.94945915 727 1080 c 0
 763.666666667 1080 786.666666667 1108 796 1164 c 1
 874 1164 l 1
336 -13 m 1
 221 -13 l 1
 221 877 l 1
 336 877 l 1
 336 765 l 1
 373.333333333 803 413.666666667 835.166666667 457 861.5 c 128
 500.333333333 887.833333333 553 901 615 901 c 0
 746.192488263 901 840.859154929 858 899 772 c 0
 921 740 934 707 938 673 c 128
 942 639 944 603.666666667 944 567 c 2
 944 -13 l 1
 828 -13 l 1
 828 565 l 2
 828 641.666666667 811.333333333 699.166666667 778 737.5 c 128
 744.666666667 775.833333333 686.333333333 795 603 795 c 0
 512.288135593 795 441.788135593 760.5 391.5 691.5 c 0
 361.285333333 650.042666667 344.118666667 602.542666667 340 549 c 0
 337.333333333 523.666666667 336 495.666666667 336 465 c 2
 336 -13 l 1
EndSplineSet
EndChar

StartChar: Aring
Encoding: 197 197 393
Width: 1274
VWidth: 1743
Flags: W
LayerCount: 2
Fore
SplineSet
661 1458 m 128
 683 1437.33333333 708 1427 736 1427 c 128
 764 1427 788.833333333 1437.66666667 810.5 1459 c 128
 832.166666667 1480.33333333 843 1504.5 843 1531.5 c 128
 843 1558.5 832.333333333 1582.83333333 811 1604.5 c 128
 789.666666667 1626.16666667 764.666666667 1637 736 1637 c 128
 707.333333333 1637 682.166666667 1626.5 660.5 1605.5 c 128
 638.833333333 1584.5 628 1559.83333333 628 1531.5 c 128
 628 1503.16666667 639 1478.66666667 661 1458 c 128
804.5 1371 m 128
 782.833333333 1361.66666667 760 1357 736 1357 c 128
 712 1357 688.833333333 1361.66666667 666.5 1371 c 0
 623.464192315 1388.98511366 591.297525649 1419.98511366 570 1464 c 0
 560 1485.33333333 555 1507.83333333 555 1531.5 c 128
 555 1555.16666667 560 1577.5 570 1598.5 c 128
 580 1619.5 593.333333333 1638.16666667 610 1654.5 c 128
 626.666666667 1670.83333333 645.833333333 1683.83333333 667.5 1693.5 c 128
 689.166666667 1703.16666667 712 1708 736 1708 c 128
 760 1708 782.833333333 1703.16666667 804.5 1693.5 c 0
 848.600890823 1673.82421794 880.434224156 1642.32421794 900 1599 c 0
 910 1577.66666667 915 1555.16666667 915 1531.5 c 128
 915 1507.83333333 910.166666667 1485.5 900.5 1464.5 c 128
 890.833333333 1443.5 877.833333333 1425 861.5 1409 c 128
 845.166666667 1393 826.166666667 1380.33333333 804.5 1371 c 128
701 1152 m 1
 468 541 l 1
 935 541 l 1
 701 1152 l 1
145 46 m 1
 632 1266 l 1
 634 1270 l 1
 777 1270 l 1
 1251 56 l 1
 1254 46 l 1
 1121 46 l 1
 980 428 l 1
 423 428 l 1
 280 51 l 1
 278 46 l 1
 145 46 l 1
EndSplineSet
EndChar

StartChar: mu
Encoding: 181 181 394
AltUni2: 0003bc.ffffffff.0
Width: 1038
VWidth: 1624
Flags: W
LayerCount: 2
Fore
SplineSet
329 -48 m 1
 329 -418 l 1
 213 -418 l 1
 213 817 l 1
 329 817 l 1
 329 235 l 2
 329 161.666666667 345.833333333 105.666666667 379.5 67 c 128
 413.166666667 28.3333333333 469 9 547 9 c 0
 626.523809524 9 689.857142857 39 737 99 c 0
 782.300869565 158.028405797 805.634202899 236.028405797 807 333 c 1
 807 817 l 1
 923 817 l 1
 923 -73 l 1
 807 -73 l 1
 807 37 l 1
 770.098591549 -2.3615023474 739.70657277 -29.7018779343 715.823943662 -45.0211267606 c 0
 661.800748613 -79.6737089202 598.342811092 -97 525.4501311 -97 c 128
 452.557451107 -97 387.074074074 -80.6666666667 329 -48 c 1
EndSplineSet
EndChar

StartChar: Ugrave
Encoding: 217 217 395
Width: 1376
VWidth: 1728
Flags: W
LayerCount: 2
Fore
SplineSet
526 1585 m 1
 682 1585 l 1
 888 1335 l 1
 780 1335 l 1
 538 1572 l 1
 526 1585 l 1
1240 489 m 2
 1240 157.666666667 1077.66666667 -8 753 -8 c 0
 587 -8 464.666666667 35.5 386 122.5 c 128
 307.333333333 209.5 268 331.666666667 268 489 c 2
 268 1255 l 1
 397 1255 l 1
 397 523 l 2
 397 374.333333333 424.666666667 267.333333333 480 202 c 0
 536 137.333333333 627 104.666666667 753 104 c 0
 886.179487179 104 979.179487179 138.333333333 1032 207 c 0
 1082.63129565 271.215301807 1108.63129565 376.54863514 1110 523 c 1
 1110 1255 l 1
 1240 1255 l 1
 1240 489 l 2
EndSplineSet
EndChar

StartChar: Egrave
Encoding: 200 200 396
Width: 1176
VWidth: 1731
Flags: W
LayerCount: 2
Fore
SplineSet
418 1588 m 1
 573 1588 l 1
 770 1350 l 1
 780 1339 l 1
 671 1339 l 1
 418 1588 l 1
254 35 m 1
 254 1259 l 1
 1092 1259 l 1
 1092 1146 l 1
 383 1146 l 1
 383 728 l 1
 1024 728 l 1
 1024 616 l 1
 383 616 l 1
 383 147 l 1
 1108 147 l 1
 1108 35 l 1
 254 35 l 1
EndSplineSet
EndChar

